<?xml version="1.0" encoding="UTF-8" standalone="no"?>
<!-- Generator: Adobe Illustrator 16.0.0, SVG Export Plug-In . SVG Version: 6.00 Build 0)  -->

<svg
   xmlns:dc="http://purl.org/dc/elements/1.1/"
   xmlns:cc="http://creativecommons.org/ns#"
   xmlns:rdf="http://www.w3.org/1999/02/22-rdf-syntax-ns#"
   xmlns:svg="http://www.w3.org/2000/svg"
   xmlns="http://www.w3.org/2000/svg"
   xmlns:sodipodi="http://sodipodi.sourceforge.net/DTD/sodipodi-0.dtd"
   xmlns:inkscape="http://www.inkscape.org/namespaces/inkscape"
   version="1.1"
   id="Layer_1"
   x="0px"
   y="0px"
   width="512px"
   height="512px"
   viewBox="0 0 24 24"
   enable-background="new 0 0 24 24"
   xml:space="preserve"
   sodipodi:docname="anime_updates.svg"
   inkscape:version="0.92.1 r15371"><metadata
     id="metadata246"><rdf:RDF><cc:Work
         rdf:about=""><dc:format>image/svg+xml</dc:format><dc:type
           rdf:resource="http://purl.org/dc/dcmitype/StillImage" /><dc:title /></cc:Work></rdf:RDF></metadata><defs
     id="defs244" /><sodipodi:namedview
     pagecolor="#ffffff"
     bordercolor="#666666"
     borderopacity="1"
     objecttolerance="10"
     gridtolerance="10"
     guidetolerance="10"
     inkscape:pageopacity="0"
     inkscape:pageshadow="2"
     inkscape:window-width="1920"
     inkscape:window-height="1017"
     id="namedview242"
     showgrid="false"
     inkscape:zoom="0.921875"
     inkscape:cx="71.484427"
     inkscape:cy="102.24602"
     inkscape:window-x="1016"
     inkscape:window-y="-8"
     inkscape:window-maximized="1"
     inkscape:current-layer="Layer_1" /><path
     sodipodi:type="star"
     style="fill:#ffffff;stroke-width:0.046875"
     id="path252"
     sodipodi:sides="5"
     sodipodi:cx="4.1313558"
     sodipodi:cy="22.70339"
     sodipodi:r1="0.32805476"
     sodipodi:r2="0.2654019"
     sodipodi:arg1="0.62024949"
     sodipodi:arg2="1.248568"
     inkscape:flatsided="true"
     inkscape:rounded="0"
     inkscape:randomized="0"
     d="m 4.3983049,22.894068 -0.3658028,0.122129 -0.2291904,-0.31016 0.2241554,-0.313817 0.367726,0.116209 z"
     inkscape:transform-center-x="0.030547473"
     inkscape:transform-center-y="0.00081798651" /><path
     sodipodi:type="star"
     style="fill:#ffffff;stroke-width:0.046875"
     id="path258"
     sodipodi:sides="5"
     sodipodi:cx="4.0325022"
     sodipodi:cy="23.016195"
     sodipodi:r1="0.73804259"
     sodipodi:r2="0.59708893"
     sodipodi:arg1="0.63399564"
     sodipodi:arg2="1.2623142"
     inkscape:flatsided="true"
     inkscape:rounded="0"
     inkscape:randomized="0"
     d="M 4.6271188,23.453389 3.8004533,23.716809 3.2944715,23.012005 3.808423,22.312992 4.6320443,22.585781 Z"
     inkscape:transform-center-x="0.06924427"
     inkscape:transform-center-y="-0.0012947579" /><path
     sodipodi:type="star"
     style="fill:#ffffff;stroke-width:0.046875"
     id="path260"
     sodipodi:sides="5"
     sodipodi:cx="4.3983049"
     sodipodi:cy="22.89407"
     sodipodi:r1="0.4427307"
     sodipodi:r2="0.35817665"
     sodipodi:arg1="0.68370854"
     sodipodi:arg2="1.3120271"
     inkscape:flatsided="true"
     inkscape:rounded="0"
     inkscape:randomized="0"
     d="m 4.7415255,23.17373 -0.5031328,0.133182 -0.2821395,-0.437353 0.3287609,-0.40348 0.485325,0.187988 z"
     inkscape:transform-center-x="0.035008779"
     inkscape:transform-center-y="-0.0075741053" /><path
     sodipodi:type="star"
     style="fill:#ffffff;stroke-width:0.046875"
     id="path262"
     sodipodi:sides="5"
     sodipodi:cx="4.6016951"
     sodipodi:cy="22.881355"
     sodipodi:r1="0.33367133"
     sodipodi:r2="0.26994577"
     sodipodi:arg1="0.70449406"
     sodipodi:arg2="1.3328126"
     inkscape:flatsided="true"
     inkscape:rounded="0"
     inkscape:randomized="0"
     d="M 4.8559324,23.097457 4.4747338,23.189928 4.2689914,22.855962 4.5230342,22.557088 4.8857836,22.70634 Z"
     inkscape:transform-center-x="0.024307554"
     inkscape:transform-center-y="-0.0078468732" /><path
     sodipodi:type="star"
     style="fill:#ffffff;stroke-width:0.046875"
     id="path278"
     sodipodi:sides="5"
     sodipodi:cx="13.004238"
     sodipodi:cy="23.313559"
     sodipodi:r1="0.69949913"
     sodipodi:r2="0.56590664"
     sodipodi:arg1="-1.237552"
     sodipodi:arg2="-0.60923349"
     inkscape:flatsided="true"
     inkscape:rounded="0"
     inkscape:randomized="0"
     d="m 13.233052,22.652542 0.470558,0.674366 -0.49595,0.655918 -0.777072,-0.268987 0.01569,-0.822161 z"
     inkscape:transform-center-x="-0.062860842"
     inkscape:transform-center-y="0.004125116" /><path
     sodipodi:type="star"
     style="fill:#ffffff;stroke-width:0.046875"
     id="path97"
     sodipodi:sides="8"
     sodipodi:cx="17.932549"
     sodipodi:cy="6.3410516"
     sodipodi:r1="6.3059049"
     sodipodi:r2="3.1529524"
     sodipodi:arg1="-0.016127634"
     sodipodi:arg2="0.37657145"
     inkscape:flatsided="false"
     inkscape:rounded="0"
     inkscape:randomized="0"
     d="M 24.237633,6.2393567 20.864576,7.5005004 22.462826,10.727511 19.185951,9.2341625 18.034243,12.646136 16.7731,9.2730795 13.546089,10.871329 15.039438,7.5944542 11.627464,6.4427465 15.000521,5.1816028 13.402271,1.9545925 16.679146,3.4479407 17.830854,0.03596678 19.091997,3.4090237 22.319008,1.8107742 20.825659,5.0876489 Z"
     transform="matrix(1.2263545,0,0,1.1888341,-5.6737984,-0.00679175)" /><path
     d="m 8.9467623,20.541548 c -0.066316,0.08469 -0.4744181,0.242973 -0.96414,0.227701 -0.3392344,-0.0083 -0.6185287,-0.09858 -0.7141776,-0.22909 -0.1084022,-0.149949 -0.3086269,-0.176329 -0.4476366,-0.05831 -0.1377342,0.118015 -0.1632403,0.335997 -0.053563,0.487335 0.3099018,0.429022 0.9220542,0.494277 1.26639,0.494277 0.00382,0 0.00765,0 0.011478,0 0.4858964,-0.0014 1.1452355,-0.133288 1.4041247,-0.495666 0.1058512,-0.148561 0.080345,-0.355435 -0.054839,-0.474839 -0.1313578,-0.116628 -0.332858,-0.0958 -0.4476366,0.04859 z"
     id="path235"
     style="fill:#ffffff;stroke-width:1.33066761"
     inkscape:connector-curvature="0" /><path
     d="M 18.310143,7.8277863 C 18.328003,7.5362182 18.500166,4.0151853 16.895816,2.7045169 16.276012,2.1977437 15.477663,2.1130501 14.542855,2.4032298 L 14.430628,1.7909367 c -0.0038,-0.01805 -0.02041,-0.024992 -0.02551,-0.041653 -0.0051,-0.016661 0.0038,-0.033322 -0.0038,-0.049983 -0.01275,-0.027768 -0.04081,-0.031934 -0.05866,-0.054148 -0.02806,-0.037487 -0.05356,-0.066644 -0.09437,-0.087471 -0.03698,-0.019438 -0.07142,-0.022215 -0.113503,-0.024992 -0.02678,0 -0.04974,-0.022215 -0.07907,-0.015273 -0.01658,0.00278 -0.02296,0.020826 -0.03698,0.027768 -0.0153,0.00555 -0.03061,-0.00417 -0.04591,0.00417 -0.808553,0.4526249 -1.404126,1.2870652 -1.711477,1.7924501 L 12.132505,3.1849133 c -0.02678,-0.030545 -0.06504,-0.031934 -0.09692,-0.051372 -0.03061,-0.019438 -0.05356,-0.055537 -0.09182,-0.06109 -0.0064,0 -0.0102,0.00417 -0.01658,0.00417 -0.04209,-0.00555 -0.08035,0.01805 -0.121155,0.031934 -0.03826,0.012496 -0.08035,0.013884 -0.110952,0.041653 -0.0038,0.00278 -0.0102,0.00139 -0.01403,0.00417 -0.02678,0.02638 -0.02678,0.065256 -0.04336,0.098578 -0.02041,0.036099 -0.05356,0.062479 -0.05994,0.1082968 l -0.364746,2.5199718 c -0.02423,-0.016661 -0.04464,-0.03471 -0.04846,-0.037487 -0.01913,-0.019438 -0.04336,-0.013884 -0.06504,-0.027768 -0.02041,-0.012496 -0.02678,-0.038876 -0.04846,-0.047206 -0.01913,-0.00694 -0.03698,0.00555 -0.05611,0.00278 -0.04336,-0.00833 -0.07907,-0.00417 -0.12243,0.00555 -0.03826,0.00972 -0.06759,0.022215 -0.09947,0.047206 -0.01785,0.012496 -0.04081,0.00833 -0.05611,0.02638 -0.01785,0.019438 -0.01403,0.048595 -0.02678,0.070809 -0.01275,0.022215 -0.03698,0.029157 -0.04591,0.055537 L 10.293498,7.0447205 C 9.6711428,6.9433629 8.9582401,6.8725535 8.1178061,6.8669997 c -0.00382,0 -0.00638,-0.00555 -0.011478,-0.00555 -0.01913,0 -0.033158,0.00139 -0.053563,0.00139 -0.01913,0 -0.033158,-0.00139 -0.052288,-0.00139 -0.0051,0 -0.00765,0.00417 -0.011478,0.00555 C 3.964097,6.8919916 2.5791022,8.3026263 2.5421179,8.34289 1.4007088,9.3606021 0.9288414,10.378314 0.907161,10.424132 c 0,0 -0.001275,0 -0.001275,0.0014 -0.60705109,1.345379 -0.77539299,3.296109 -0.78304489,3.378026 0,0.0014 0.00128,0.0028 0.00128,0.0042 0,0.0014 -0.00128,0.0014 -0.00128,0.0028 -0.3009748,4.923338 1.51762789,9.750874 1.59669759,9.954971 0.00765,0.02083 0.026782,0.03055 0.036984,0.04859 0.014028,0.0236 0.026782,0.03888 0.043361,0.05831 0.043361,0.04582 0.091823,0.07359 0.1492121,0.08747 0.014028,0.0028 0.020405,0.01805 0.033158,0.01944 0.010203,0 0.020405,0.0014 0.029332,0.0014 0.04081,0 0.08162,-0.0083 0.1224305,-0.02638 0.017854,-0.0083 0.02168,-0.02916 0.035709,-0.04026 0.039535,-0.02638 0.065041,-0.05693 0.089272,-0.09719 0.02168,-0.03332 0.036984,-0.06109 0.047187,-0.09997 0.00383,-0.01805 0.02168,-0.02916 0.022956,-0.04998 l 0.052618,-1.641944 c 10.2031087,3.401984 11.4629537,-2.575516 11.2281017,1.489403 0.191953,-0.870394 0.193917,-0.136302 0.197743,-0.116864 0.0102,0.03888 0.01724,0.386029 0.03765,0.419352 0.02551,0.04165 0.04974,0.0722 0.088,0.09719 0.01658,0.01111 0.02041,0.03193 0.03698,0.04026 0.03954,0.01805 0.08035,0.02638 0.12243,0.02638 0.0102,0 0.02041,0 0.03061,-0.0014 0.01403,-0.0014 0.02168,-0.01666 0.03443,-0.02083 0.05611,-0.01388 0.104577,-0.04026 0.146662,-0.08608 0.01785,-0.01944 0.02933,-0.03471 0.04336,-0.05831 0.01148,-0.01805 0.02933,-0.02777 0.03698,-0.04859 0.04719,-0.12357 0.739684,-1.96739 1.205175,-4.501256 l 0.42468,-0.73864 c 0.177269,0.785845 0.584096,1.975722 1.558439,3.336373 0.0025,0.0028 0.0077,0.0014 0.0102,0.0042 0.0026,0.0042 0,0.0097 0.0038,0.01389 0.06377,0.07636 0.150487,0.115238 0.238484,0.115238 0.06887,0 0.13646,-0.0236 0.195124,-0.07359 0.0025,-0.0028 0.0025,-0.0069 0.0051,-0.0097 0.0038,-0.0028 0.0077,-0.0014 0.01148,-0.0042 0.04081,-0.04026 1.013878,-0.995497 1.296998,-2.675485 0.0013,-0.0042 -0.0025,-0.0069 -0.0025,-0.01111 0.0013,-0.0042 0.0051,-0.0056 0.0051,-0.0097 0.201507,-1.850761 -0.05356,-3.19614 -0.34943,-4.752559 -0.316297,-1.64954 -0.672111,-3.522519 -0.677212,-6.6311907 z M 11.114802,6.600423 c 0.0204,0.00972 0.05101,0.016661 0.07269,0.02638 0.04719,0.086082 0.11733,0.1541147 0.215529,0.1707755 0.01785,0.00277 0.03316,0.00417 0.04974,0.00417 0.05229,0 0.09437,-0.030545 0.137734,-0.055537 0.149213,0.029157 0.307352,0.055537 0.501201,0.055537 0.01658,0 0.02551,-0.015273 0.03953,-0.018049 0.01658,-0.00139 0.02806,0.011107 0.04464,0.00555 0.302251,-0.090247 0.552213,-0.07914 0.733308,0.037487 0.24231,0.1541147 0.315003,0.4581787 0.316279,0.4581787 0.0051,0.023603 0.02423,0.034711 0.03188,0.055537 0.0064,0.016661 -0.0013,0.034711 0.0077,0.049983 0.01275,0.023603 0.312452,0.5081615 0.920779,1.051034 l -0.274194,0.2332543 c -0.1033,-0.102743 -0.207876,-0.205486 -0.325206,-0.3096174 -0.04081,-0.043041 -0.779218,-0.7733498 -2.657761,-1.199595 z M 14.365586,9.169 14.847656,8.7580277 C 14.791542,8.9815633 14.712473,9.2342557 14.62065,9.4925018 14.545406,9.3897588 14.458685,9.2814621 14.365586,9.169 Z m 0.544561,-0.9663403 c -0.01275,-0.012495 -0.01275,-0.033322 -0.02678,-0.044429 -0.05356,-0.040264 -0.08927,-0.07914 -0.139009,-0.1194038 0.105851,-0.045818 0.175994,-0.066644 0.181095,-0.074975 0.02423,0.047206 0.02423,0.1443956 0.0153,0.2568576 -0.0089,-0.00972 -0.02168,-0.00972 -0.03061,-0.01805 z M 0.75794887,13.867413 v 0 c 0.00127,-0.01944 0.16579123,-1.907689 0.72055423,-3.135052 v -0.0014 c 0.011478,-0.0236 0.4438105,-0.9399605 1.485745,-1.8688135 0.014029,-0.012495 1.3097511,-1.2940073 5.088517,-1.3065028 3.7838669,0.012495 5.0770389,1.2940074 5.1101969,1.325941 0.988371,0.8788697 1.418153,1.7577393 1.456413,1.8368793 0.0026,0.0055 -0.0013,0.0097 0.0013,0.01527 0.556038,1.227364 0.720554,3.115615 0.721829,3.135052 v 0 c 0.192573,3.17254 -0.550937,6.370071 -1.072542,8.166687 l -0.651687,-7.354462 c -0.0038,-0.0361 -0.02933,-0.05693 -0.04081,-0.08747 -0.0153,-0.03888 -0.02423,-0.0722 -0.04846,-0.104132 -0.02933,-0.03471 -0.06632,-0.05137 -0.108402,-0.07081 -0.02678,-0.0125 -0.04081,-0.04165 -0.07142,-0.04721 -0.01403,-0.0014 -0.02551,0.01111 -0.03826,0.01111 -0.01658,0 -0.02551,-0.01527 -0.04081,-0.01388 -0.03316,0.0028 -0.05229,0.03332 -0.08035,0.04721 -0.03443,0.01527 -0.06504,0.02638 -0.0931,0.05415 -0.03316,0.03193 -0.04846,0.07081 -0.06632,0.115239 -0.01275,0.02777 -0.03826,0.04443 -0.04336,0.07497 l -0.307351,2.171488 -0.915678,-4.590116 c -0.0064,-0.03055 -0.03188,-0.04443 -0.04464,-0.07081 -0.02168,-0.04443 -0.03698,-0.08053 -0.07269,-0.111074 -0.03061,-0.02916 -0.06377,-0.03749 -0.102026,-0.05137 -0.02678,-0.01111 -0.04591,-0.03888 -0.07779,-0.04026 -0.01658,-0.0028 -0.02678,0.01527 -0.04209,0.01527 -0.0153,0 -0.02678,-0.01111 -0.03954,-0.0083 -0.02423,0.0056 -0.03443,0.03055 -0.05484,0.04165 -0.04591,0.02222 -0.08162,0.04026 -0.114779,0.08469 -0.02551,0.03332 -0.03188,0.06664 -0.04464,0.108297 -0.0102,0.03055 -0.03571,0.05415 -0.03698,0.08747 l -0.119887,2.681012 -0.941184,-1.798004 c 0.118604,-0.459567 0.191297,-0.901084 0.191297,-1.299561 0,-0.191602 -0.142835,-0.347105 -0.318829,-0.347105 -0.1759938,0 -0.3188295,0.155503 -0.3188295,0.347105 0,1.399527 -1.0572379,3.529364 -1.7280548,4.740066 -0.0982,-1.563361 -0.4323328,-4.31521 -1.5762928,-5.335698 -0.1351833,-0.120793 -0.3354085,-0.09997 -0.4476361,0.04859 -0.1122281,0.148561 -0.091823,0.367931 0.044636,0.488723 0.1810954,0.161057 0.3315829,0.405419 0.4693172,0.677549 L 5.0876518,14.982314 4.9664964,12.29711 c -0.00255,-0.04165 -0.028057,-0.0722 -0.04081,-0.111073 -0.010203,-0.02499 -0.011478,-0.04998 -0.026782,-0.0722 -0.030608,-0.05276 -0.077795,-0.07775 -0.1351839,-0.101355 -0.01913,-0.0083 -0.028057,-0.03193 -0.048462,-0.0361 -0.014028,-0.0028 -0.025506,0.0083 -0.03826,0.0069 -0.017854,0 -0.025506,-0.01805 -0.044636,-0.01527 -0.031883,0.0014 -0.051013,0.02916 -0.077794,0.03888 -0.038259,0.01388 -0.071418,0.02499 -0.1033007,0.05276 -0.033158,0.03193 -0.048462,0.06664 -0.068867,0.109685 -0.014029,0.02777 -0.039535,0.04026 -0.045911,0.0722 L 3.4259131,16.834466 3.1147356,14.660201 c -0.0051,-0.03332 -0.031883,-0.04998 -0.043361,-0.07775 -0.017854,-0.04304 -0.033158,-0.08053 -0.063766,-0.112462 -0.030608,-0.02916 -0.061215,-0.04026 -0.098199,-0.05692 -0.029332,-0.0125 -0.047187,-0.04165 -0.080345,-0.04582 -0.015304,-0.0014 -0.025506,0.0125 -0.039535,0.01388 -0.014028,0 -0.025506,-0.0125 -0.03826,-0.01111 -0.030608,0.0056 -0.045911,0.03471 -0.072693,0.0486 -0.039535,0.01805 -0.075244,0.03332 -0.1033007,0.06803 -0.026782,0.03193 -0.036984,0.06803 -0.052288,0.109686 -0.011478,0.03054 -0.036984,0.04859 -0.04081,0.0833 l -0.6478613,7.35446 C 1.3114366,20.238872 0.56665117,17.042729 0.75794887,13.867413 Z M 11.00385,16.359627 c 0.0077,0.01527 0.02295,0.02083 0.03061,0.03332 0.01275,0.01805 0.02423,0.02916 0.03826,0.04304 0.05101,0.04998 0.109677,0.08192 0.175994,0.08886 0.0064,0 0.0102,0.0069 0.01658,0.0083 h 0.0153 c 0.01275,0 0.02423,-0.0083 0.03571,-0.0097 -0.113503,0.145785 -0.276743,0.244362 -0.46294,0.244362 -0.341785,0 -0.618529,-0.301287 -0.618529,-0.669218 0,-0.254081 0.135184,-0.467897 0.329032,-0.581748 z M 5.9752726,15.496029 c 0.3392344,0 0.6121524,0.299899 0.6121524,0.670607 0,0.36932 -0.274193,0.671996 -0.6121524,0.671996 -0.3417848,0 -0.6159783,-0.302676 -0.6159783,-0.671996 0,-0.372096 0.2741935,-0.670607 0.6159783,-0.670607 z m -3.4178509,5.599498 0.3162789,-3.600173 0.1861964,1.292619 c 0.00383,0.02916 0.026782,0.04582 0.035709,0.07081 0.014028,0.03471 0.025506,0.06248 0.047187,0.09025 0.030608,0.03888 0.067592,0.06248 0.1109526,0.0833 0.02168,0.0097 0.030608,0.03471 0.053563,0.04026 0.022956,0.0056 0.044636,0.0083 0.067592,0.0083 0.016579,0 0.031883,-0.0014 0.048462,-0.0042 0.02168,-0.0042 0.031883,-0.02638 0.052288,-0.03471 0.047187,-0.01805 0.087997,-0.04026 0.1237057,-0.08192 0.022956,-0.02638 0.031883,-0.05137 0.047187,-0.08331 0.011478,-0.02499 0.033158,-0.04165 0.039535,-0.07081 l 0.7613645,-3.840369 0.056114,1.235693 c 0,0.0069 0.00765,0.0125 0.00893,0.01944 -0.1109526,0.266576 -0.1900223,0.558144 -0.1900223,0.885811 0,1.0191 0.6019499,1.839657 1.349286,1.839657 0.7409596,0 1.349286,-0.820557 1.349286,-1.839657 0,-1.013546 -0.6083264,-1.838268 -1.349286,-1.838268 h -0.00255 L 6.70603,13.293993 c 0.4667662,1.491163 0.598124,3.530752 0.598124,4.447109 0,0.0125 0.011478,0.01944 0.012753,0.03055 0.00382,0.04582 0.025506,0.07914 0.044636,0.119404 0.020405,0.04026 0.031883,0.07914 0.065041,0.108297 0.00765,0.0069 0.00765,0.02083 0.016579,0.02777 0.056114,0.04165 0.1186045,0.06109 0.181095,0.06109 0.073968,0 0.1415602,-0.03749 0.2002247,-0.09025 0.011478,-0.01111 0.022956,-0.01944 0.031883,-0.03193 0.00893,-0.01111 0.022956,-0.01666 0.029333,-0.02916 0.068867,-0.109685 1.2434344,-1.992382 1.9155267,-3.879245 l 0.6159786,1.17738 c -0.6797445,0.09164 -1.2179286,0.85249 -1.2179286,1.804946 0,1.016324 0.6032255,1.841045 1.3467356,1.841045 0.748611,0 1.349286,-0.824721 1.349286,-1.841045 0,-0.409584 -0.117329,-0.770573 -0.284396,-1.076025 l 0.04464,-0.999662 0.765191,3.841757 c 0.0064,0.02916 0.02806,0.04582 0.03953,0.07081 0.0153,0.03193 0.02551,0.05831 0.04846,0.08469 0.03316,0.04026 0.07524,0.06248 0.12243,0.08053 0.02041,0.0083 0.03061,0.03055 0.05229,0.03471 0.01658,0.0028 0.03188,0.0042 0.04846,0.0042 0.02296,0 0.04464,-0.0028 0.06759,-0.0083 0.02296,-0.0056 0.03316,-0.03055 0.05356,-0.04026 0.04336,-0.02083 0.08035,-0.04304 0.110953,-0.0833 0.02296,-0.02916 0.03316,-0.05693 0.04719,-0.09164 0.0102,-0.02638 0.03188,-0.04304 0.03571,-0.07081 l 0.18237,-1.2829 0.329032,3.707081 C 11.341809,23.018489 4.5469171,22.947679 2.5574217,21.095527 Z M 16.499192,17.524511 c -0.0051,-0.04582 -0.02678,-0.07914 -0.04591,-0.119404 -0.02168,-0.03888 -0.03443,-0.07498 -0.06759,-0.102743 -0.01148,-0.0097 -0.01148,-0.02638 -0.02295,-0.03332 -0.02678,-0.01944 -0.05994,-0.0069 -0.08927,-0.01666 -0.02806,-0.0083 -0.04846,-0.0361 -0.08034,-0.0361 h -0.0013 c -0.01275,0 -0.02168,0.01388 -0.03316,0.01527 -0.04081,0.0056 -0.07014,0.02777 -0.105851,0.0486 -0.03826,0.0236 -0.07269,0.03888 -0.09947,0.07636 -0.0077,0.01111 -0.02296,0.01111 -0.02933,0.0236 l -0.06632,0.115239 c 0.135183,-1.170438 0.196398,-2.421404 0.119879,-3.679312 0,-0.0014 -0.0013,-0.0014 -0.0013,-0.0028 0,-0.0014 0.0013,-0.0028 0.0013,-0.0056 -0.0077,-0.08192 -0.175993,-2.015986 -0.776668,-3.358588 -0.0025,-0.0055 0.0013,-0.01111 -0.0013,-0.01805 -0.0064,-0.0125 -0.05356,-0.112462 -0.137734,-0.2638 0.353263,-0.8663732 0.786871,-2.2089754 0.303525,-2.7046415 -0.247411,-0.2526924 -0.62363,-0.2290894 -1.117178,0.062479 -0.01148,0.00694 -0.01148,0.022214 -0.02168,0.029157 C 13.985543,7.2904699 13.851634,7.0974794 13.826128,7.0530499 13.780218,6.890605 13.636106,6.4935166 13.242032,6.2380474 12.927029,6.0339498 12.538058,6.0020161 12.096797,6.1130897 c -0.0013,0 -0.0026,-0.00139 -0.0038,-0.00139 -0.102025,0 -0.178544,-0.013884 -0.26144,-0.024992 l 0.276744,-1.9118542 c 0.0038,0.00278 0.0077,0.00139 0.0102,0.00417 0.01658,0.015273 0.01913,0.040264 0.03826,0.051372 0.04846,0.027768 0.09947,0.041653 0.150488,0.041653 0.06887,0 0.132633,-0.030545 0.187472,-0.076363 0.0064,-0.00555 0.01658,-0.00278 0.02423,-0.00972 0.0102,-0.00972 0.0077,-0.024992 0.01658,-0.03471 0.01785,-0.020826 0.04081,-0.034711 0.05356,-0.061091 0.0051,-0.011107 0.516504,-1.0357613 1.307201,-1.6674923 l 0.088,0.4859469 c 0.0026,0.011107 0.01275,0.016661 0.0153,0.02638 0.0025,0.00833 -0.0038,0.01805 -0.0013,0.02638 0.0077,0.023603 0.03061,0.030545 0.04336,0.051371 0.02678,0.047206 0.05484,0.087471 0.09947,0.1152389 0.02678,0.016661 0.04846,0.022215 0.07907,0.030545 0.02678,0.00833 0.04846,0.029157 0.07779,0.029157 0.02041,0 0.04081,-0.00139 0.06249,-0.00694 0.0089,-0.00139 0.01403,-0.012496 0.02296,-0.016661 0.0089,-0.00278 0.01786,0.00417 0.02678,0.00139 0.88252,-0.3554355 1.591596,-0.320725 2.104274,0.098578 1.363314,1.1121244 1.163089,4.509588 1.161814,4.5429101 0,0.00417 0.0038,0.00694 0.0038,0.012496 0,0.00555 -0.0051,0.00694 -0.0051,0.012495 0.0051,3.1822579 0.38387,5.1746409 0.688671,6.7754899 0.294599,1.55503 0.527982,2.786559 0.343061,4.51653 -0.160691,0.944125 -0.577719,1.621674 -0.848087,1.981275 -1.299548,-1.981275 -1.342909,-3.52381 -1.342909,-3.539083 -0.0025,-0.01944 -0.0153,-0.02916 -0.01658,-0.04165 z"
     id="path237"
     style="fill:#ffffff;stroke-width:1.33066761"
     inkscape:connector-curvature="0"
     sodipodi:nodetypes="ccccssccccccccccccccccccccccccscccssscccccsccccccsccccccccsccsccscccccccscccccccccccscsccccccccccccccccccccccccccccccccccccccscccccccccccscccccccsssccsccccccccccsccccccccccccccccccccccscssccsssssccccccssccccccccssssccsccccscccccssscccccccssccccccccccccssccccccsccccccccccsccccscccccccccscscccccscccccc" /></svg>