<?xml version="1.0" encoding="UTF-8" standalone="no"?>
<!-- Generator: Adobe Illustrator 16.0.0, SVG Export Plug-In . SVG Version: 6.00 Build 0)  -->

<svg
   xmlns:dc="http://purl.org/dc/elements/1.1/"
   xmlns:cc="http://creativecommons.org/ns#"
   xmlns:rdf="http://www.w3.org/1999/02/22-rdf-syntax-ns#"
   xmlns:svg="http://www.w3.org/2000/svg"
   xmlns="http://www.w3.org/2000/svg"
   xmlns:sodipodi="http://sodipodi.sourceforge.net/DTD/sodipodi-0.dtd"
   xmlns:inkscape="http://www.inkscape.org/namespaces/inkscape"
   version="1.1"
   id="Layer_1"
   x="0px"
   y="0px"
   width="512px"
   height="512px"
   viewBox="0 0 24 24"
   enable-background="new 0 0 24 24"
   xml:space="preserve"
   sodipodi:docname="anime.svg"
   inkscape:version="0.92.1 r15371"><metadata
     id="metadata246"><rdf:RDF><cc:Work
         rdf:about=""><dc:format>image/svg+xml</dc:format><dc:type
           rdf:resource="http://purl.org/dc/dcmitype/StillImage" /></cc:Work></rdf:RDF></metadata><defs
     id="defs244" /><sodipodi:namedview
     pagecolor="#ffffff"
     bordercolor="#666666"
     borderopacity="1"
     objecttolerance="10"
     gridtolerance="10"
     guidetolerance="10"
     inkscape:pageopacity="0"
     inkscape:pageshadow="2"
     inkscape:window-width="1920"
     inkscape:window-height="1017"
     id="namedview242"
     showgrid="false"
     inkscape:zoom="2.6074563"
     inkscape:cx="269.96406"
     inkscape:cy="103.23285"
     inkscape:window-x="1016"
     inkscape:window-y="-8"
     inkscape:window-maximized="1"
     inkscape:current-layer="g239" /><g
     id="g239"
     style="fill:#000000"
     transform="matrix(1.2753175,0,0,1.3884199,-4.7420113,1.3423993)"><path
       d="m 11.371,13.857 c -0.052,0.061 -0.372,0.175 -0.756,0.164 C 10.349,14.015 10.13,13.95 10.055,13.856 9.97,13.748 9.813,13.729 9.704,13.814 c -0.108,0.085 -0.128,0.242 -0.042,0.351 0.243,0.309 0.723,0.356 0.993,0.356 0.003,0 0.006,0 0.009,0 0.381,-0.001 0.898,-0.096 1.101,-0.357 0.083,-0.107 0.063,-0.256 -0.043,-0.342 -0.103,-0.084 -0.261,-0.069 -0.351,0.035 z"
       id="path235"
       style="fill:#ffffff"
       inkscape:connector-curvature="0" /><path
       d="M 18.713,4.7 C 18.727,4.49 18.862,1.954 17.604,1.01 17.118,0.645 16.492,0.584 15.759,0.793 L 15.671,0.352 C 15.668,0.339 15.655,0.334 15.651,0.322 15.647,0.31 15.654,0.298 15.648,0.286 15.638,0.266 15.616,0.263 15.602,0.247 15.58,0.22 15.56,0.199 15.528,0.184 15.499,0.17 15.472,0.168 15.439,0.166 15.418,0.166 15.4,0.15 15.377,0.155 15.364,0.157 15.359,0.17 15.348,0.175 15.336,0.179 15.324,0.172 15.312,0.178 14.678,0.504 14.211,1.105 13.97,1.469 L 13.869,1.356 C 13.848,1.334 13.818,1.333 13.793,1.319 13.769,1.305 13.751,1.279 13.721,1.275 c -0.005,0 -0.008,0.003 -0.013,0.003 -0.033,-0.004 -0.063,0.013 -0.095,0.023 -0.03,0.009 -0.063,0.01 -0.087,0.03 -0.003,0.002 -0.008,0.001 -0.011,0.003 -0.021,0.019 -0.021,0.047 -0.034,0.071 -0.016,0.026 -0.042,0.045 -0.047,0.078 L 13.148,3.298 C 13.129,3.286 13.113,3.273 13.11,3.271 13.095,3.257 13.076,3.261 13.059,3.251 13.043,3.242 13.038,3.223 13.021,3.217 13.006,3.212 12.992,3.221 12.977,3.219 12.943,3.213 12.915,3.216 12.881,3.223 12.851,3.23 12.828,3.239 12.803,3.257 12.789,3.266 12.771,3.263 12.759,3.276 12.745,3.29 12.748,3.311 12.738,3.327 12.728,3.343 12.709,3.348 12.702,3.367 L 12.427,4.136 C 11.939,4.063 11.38,4.012 10.721,4.008 c -0.003,0 -0.005,-0.004 -0.009,-0.004 -0.015,0 -0.026,0.001 -0.042,0.001 -0.015,0 -0.026,-0.001 -0.041,-0.001 -0.004,0 -0.006,0.003 -0.009,0.004 C 7.464,4.026 6.378,5.042 6.349,5.071 5.454,5.804 5.084,6.537 5.067,6.57 c 0,0 -0.001,0 -0.001,10e-4 C 4.59,7.54 4.458,8.945 4.452,9.004 c 0,0.001 0.001,0.002 0.001,0.003 0,10e-4 -0.001,10e-4 -0.001,0.002 -0.236,3.546 1.19,7.023 1.252,7.17 0.006,0.015 0.021,0.022 0.029,0.035 0.011,0.017 0.021,0.028 0.034,0.042 0.034,0.033 0.072,0.053 0.117,0.063 0.011,0.002 0.016,0.013 0.026,0.014 0.008,0 0.016,0.001 0.023,0.001 0.032,0 0.064,-0.006 0.096,-0.019 0.014,-0.006 0.017,-0.021 0.028,-0.029 0.031,-0.019 0.051,-0.041 0.07,-0.07 0.017,-0.024 0.029,-0.044 0.037,-0.072 0.003,-0.013 0.017,-0.021 0.018,-0.036 l 0.041259,-1.182599 c 8.000446,2.450256 8.988314,-1.854998 8.804162,1.072732 0.150514,-0.626895 0.152054,-0.09817 0.155054,-0.08417 0.008,0.028 0.01352,0.278035 0.02952,0.302035 0.02,0.03 0.039,0.052 0.069,0.07 0.013,0.008 0.016,0.023 0.029,0.029 0.031,0.013 0.063,0.019 0.096,0.019 0.008,0 0.016,0 0.024,-0.001 0.011,-10e-4 0.017,-0.012 0.027,-0.015 0.044,-0.01 0.082,-0.029 0.115,-0.062 0.014,-0.014 0.023,-0.025 0.034,-0.042 0.009,-0.013 0.023,-0.02 0.029,-0.035 0.037,-0.089 0.58,-1.417 0.945,-3.242 l 0.333,-0.532 c 0.139,0.566 0.458,1.423 1.222,2.403 0.002,0.002 0.006,10e-4 0.008,0.003 0.002,0.003 0,0.007 0.003,0.01 0.05,0.055 0.118,0.083 0.187,0.083 0.054,0 0.107,-0.017 0.153,-0.053 0.002,-0.002 0.002,-0.005 0.004,-0.007 0.003,-0.002 0.006,-0.001 0.009,-0.003 0.032,-0.029 0.795,-0.717 1.017,-1.927 10e-4,-0.003 -0.002,-0.005 -0.002,-0.008 0.001,-0.003 0.004,-0.004 0.004,-0.007 C 19.676,11.566 19.476,10.597 19.244,9.476 18.996,8.288 18.717,6.939 18.713,4.7 Z M 13.071,3.816 c 0.016,0.007 0.04,0.012 0.057,0.019 0.037,0.062 0.092,0.111 0.169,0.123 0.014,0.002 0.026,0.003 0.039,0.003 0.041,0 0.074,-0.022 0.108,-0.04 0.117,0.021 0.241,0.04 0.393,0.04 0.013,0 0.02,-0.011 0.031,-0.013 0.013,-10e-4 0.022,0.008 0.035,0.004 0.237,-0.065 0.433,-0.057 0.575,0.027 0.19,0.111 0.247,0.33 0.248,0.33 0.004,0.017 0.019,0.025 0.025,0.04 0.005,0.012 -10e-4,0.025 0.006,0.036 0.01,0.017 0.245,0.366 0.722,0.757 L 15.264,5.31 C 15.183,5.236 15.101,5.162 15.009,5.087 14.977,5.056 14.398,4.53 12.925,4.223 Z M 15.62,5.666 15.998,5.37 C 15.954,5.531 15.892,5.713 15.82,5.899 15.761,5.825 15.693,5.747 15.62,5.666 Z M 16.047,4.97 C 16.037,4.961 16.037,4.946 16.026,4.938 15.984,4.909 15.956,4.881 15.917,4.852 16,4.819 16.055,4.804 16.059,4.798 16.078,4.832 16.078,4.902 16.071,4.983 16.064,4.976 16.054,4.976 16.047,4.97 Z M 4.95,9.05 v 0 C 4.951,9.036 5.08,7.676 5.515,6.792 V 6.791 C 5.524,6.774 5.863,6.114 6.68,5.445 6.691,5.436 7.707,4.513 10.67,4.504 c 2.967,0.009 3.981,0.932 4.007,0.955 0.775,0.633 1.112,1.266 1.142,1.323 0.002,0.004 -0.001,0.007 10e-4,0.011 0.436,0.884 0.565,2.244 0.566,2.258 v 0 c 0.151,2.285 -0.432,4.588 -0.841,5.882 L 15.034,9.636 C 15.031,9.61 15.011,9.595 15.002,9.573 14.99,9.545 14.983,9.521 14.964,9.498 14.941,9.473 14.912,9.461 14.879,9.447 14.858,9.438 14.847,9.417 14.823,9.413 c -0.011,-10e-4 -0.02,0.008 -0.03,0.008 -0.013,0 -0.02,-0.011 -0.032,-0.01 -0.026,0.002 -0.041,0.024 -0.063,0.034 -0.027,0.011 -0.051,0.019 -0.073,0.039 -0.026,0.023 -0.038,0.051 -0.052,0.083 -0.01,0.02 -0.03,0.032 -0.034,0.054 L 14.298,11.185 13.58,7.879 C 13.575,7.857 13.555,7.847 13.545,7.828 13.528,7.796 13.516,7.77 13.488,7.748 13.464,7.727 13.438,7.721 13.408,7.711 13.387,7.703 13.372,7.683 13.347,7.682 13.334,7.68 13.326,7.693 13.314,7.693 13.302,7.693 13.293,7.685 13.283,7.687 13.264,7.691 13.256,7.709 13.24,7.717 13.204,7.733 13.176,7.746 13.15,7.778 13.13,7.802 13.125,7.826 13.115,7.856 13.107,7.878 13.087,7.895 13.086,7.919 L 12.992,9.85 12.254,8.555 c 0.093,-0.331 0.15,-0.649 0.15,-0.936 0,-0.138 -0.112,-0.25 -0.25,-0.25 -0.138,0 -0.25,0.112 -0.25,0.25 0,1.008 -0.829,2.542 -1.355,3.414 C 10.472,9.907 10.21,7.925 9.313,7.19 9.207,7.103 9.05,7.118 8.962,7.225 8.874,7.332 8.89,7.49 8.997,7.577 9.139,7.693 9.257,7.869 9.365,8.065 L 8.345,9.853 8.25,7.919 C 8.248,7.889 8.228,7.867 8.218,7.839 8.21,7.821 8.209,7.803 8.197,7.787 8.173,7.749 8.136,7.731 8.091,7.714 8.076,7.708 8.069,7.691 8.053,7.688 8.042,7.686 8.033,7.694 8.023,7.693 8.009,7.693 8.003,7.68 7.988,7.682 7.963,7.683 7.948,7.703 7.927,7.71 7.897,7.72 7.871,7.728 7.846,7.748 7.82,7.771 7.808,7.796 7.792,7.827 7.781,7.847 7.761,7.856 7.756,7.879 L 7.042,11.187 6.798,9.621 C 6.794,9.597 6.773,9.585 6.764,9.565 6.75,9.534 6.738,9.507 6.714,9.484 6.69,9.463 6.666,9.455 6.637,9.443 6.614,9.434 6.6,9.413 6.574,9.41 6.562,9.409 6.554,9.419 6.543,9.42 6.532,9.42 6.523,9.411 6.513,9.412 6.489,9.416 6.477,9.437 6.456,9.447 6.425,9.46 6.397,9.471 6.375,9.496 6.354,9.519 6.346,9.545 6.334,9.575 6.325,9.597 6.305,9.61 6.302,9.635 L 5.794,14.932 C 5.384,13.639 4.8,11.337 4.95,9.05 Z m 8.034,1.795 c 0.006,0.011 0.018,0.015 0.024,0.024 0.01,0.013 0.019,0.021 0.03,0.031 0.04,0.036 0.086,0.059 0.138,0.064 0.005,0 0.008,0.005 0.013,0.006 h 0.012 c 0.01,0 0.019,-0.006 0.028,-0.007 -0.089,0.105 -0.217,0.176 -0.363,0.176 -0.268,0 -0.485,-0.217 -0.485,-0.482 0,-0.183 0.106,-0.337 0.258,-0.419 z M 9.041,10.223 c 0.266,0 0.48,0.216 0.48,0.483 0,0.266 -0.215,0.484 -0.48,0.484 -0.268,0 -0.483,-0.218 -0.483,-0.484 0,-0.268 0.215,-0.483 0.483,-0.483 z m -2.68,4.033 0.248,-2.593 0.146,0.931 c 0.003,0.021 0.021,0.033 0.028,0.051 0.011,0.025 0.02,0.045 0.037,0.065 0.024,0.028 0.053,0.045 0.087,0.06 0.017,0.007 0.024,0.025 0.042,0.029 0.018,0.004 0.035,0.006 0.053,0.006 0.013,0 0.025,-10e-4 0.038,-0.003 0.017,-0.003 0.025,-0.019 0.041,-0.025 0.037,-0.013 0.069,-0.029 0.097,-0.059 0.018,-0.019 0.025,-0.037 0.037,-0.06 0.009,-0.018 0.026,-0.03 0.031,-0.051 l 0.597,-2.766 0.044,0.89 c 0,0.005 0.006,0.009 0.007,0.014 -0.087,0.192 -0.149,0.402 -0.149,0.638 0,0.734 0.472,1.325 1.058,1.325 0.581,0 1.058,-0.591 1.058,-1.325 0,-0.73 -0.477,-1.324 -1.058,-1.324 H 8.801 L 9.614,8.637 c 0.366,1.074 0.469,2.543 0.469,3.203 0,0.009 0.009,0.014 0.01,0.022 0.003,0.033 0.02,0.057 0.035,0.086 0.016,0.029 0.025,0.057 0.051,0.078 0.006,0.005 0.006,0.015 0.013,0.02 0.044,0.03 0.093,0.044 0.142,0.044 0.058,0 0.111,-0.027 0.157,-0.065 0.009,-0.008 0.018,-0.014 0.025,-0.023 0.007,-0.008 0.018,-0.012 0.023,-0.021 0.054,-0.079 0.975,-1.435 1.502,-2.794 l 0.483,0.848 c -0.533,0.066 -0.955,0.614 -0.955,1.3 0,0.732 0.473,1.326 1.056,1.326 0.587,0 1.058,-0.594 1.058,-1.326 0,-0.295 -0.092,-0.555 -0.223,-0.775 l 0.035,-0.72 0.6,2.767 c 0.005,0.021 0.022,0.033 0.031,0.051 0.012,0.023 0.02,0.042 0.038,0.061 0.026,0.029 0.059,0.045 0.096,0.058 0.016,0.006 0.024,0.022 0.041,0.025 0.013,0.002 0.025,0.003 0.038,0.003 0.018,0 0.035,-0.002 0.053,-0.006 0.018,-0.004 0.026,-0.022 0.042,-0.029 0.034,-0.015 0.063,-0.031 0.087,-0.06 0.018,-0.021 0.026,-0.041 0.037,-0.066 0.008,-0.019 0.025,-0.031 0.028,-0.051 l 0.143,-0.924 0.258,2.67 C 13.249,15.641 7.921,15.59 6.361,14.256 Z M 17.293,11.684 C 17.289,11.651 17.272,11.627 17.257,11.598 17.24,11.57 17.23,11.544 17.204,11.524 17.195,11.517 17.195,11.505 17.186,11.5 17.165,11.486 17.139,11.495 17.116,11.488 17.094,11.482 17.078,11.462 17.053,11.462 h -0.001 c -0.01,0 -0.017,0.01 -0.026,0.011 -0.032,0.004 -0.055,0.02 -0.083,0.035 -0.03,0.017 -0.057,0.028 -0.078,0.055 -0.006,0.008 -0.018,0.008 -0.023,0.017 l -0.052,0.083 c 0.106,-0.843 0.154,-1.744 0.094,-2.65 0,-10e-4 -0.001,-10e-4 -0.001,-0.002 0,-10e-4 0.001,-0.002 0.001,-0.004 C 16.878,8.948 16.746,7.555 16.275,6.588 16.273,6.584 16.276,6.58 16.274,6.575 16.269,6.566 16.232,6.494 16.166,6.385 16.443,5.761 16.783,4.794 16.404,4.437 16.21,4.255 15.915,4.272 15.528,4.482 15.519,4.487 15.519,4.498 15.511,4.503 15.322,4.313 15.217,4.174 15.197,4.142 15.161,4.025 15.048,3.739 14.739,3.555 14.492,3.408 14.187,3.385 13.841,3.465 c -10e-4,0 -0.002,-10e-4 -0.003,-10e-4 -0.08,0 -0.14,-0.01 -0.205,-0.018 L 13.85,2.069 c 0.003,0.002 0.006,10e-4 0.008,0.003 0.013,0.011 0.015,0.029 0.03,0.037 0.038,0.02 0.078,0.03 0.118,0.03 0.054,0 0.104,-0.022 0.147,-0.055 C 14.158,2.08 14.166,2.082 14.172,2.077 14.18,2.07 14.178,2.059 14.185,2.052 14.199,2.037 14.217,2.027 14.227,2.008 14.231,2 14.632,1.262 15.252,0.807 l 0.069,0.35 c 0.002,0.008 0.01,0.012 0.012,0.019 0.002,0.006 -0.003,0.013 -10e-4,0.019 0.006,0.017 0.024,0.022 0.034,0.037 0.021,0.034 0.043,0.063 0.078,0.083 0.021,0.012 0.038,0.016 0.062,0.022 0.021,0.006 0.038,0.021 0.061,0.021 0.016,0 0.032,-0.001 0.049,-0.005 0.007,-10e-4 0.011,-0.009 0.018,-0.012 0.007,-0.002 0.014,0.003 0.021,0.001 0.692,-0.256 1.248,-0.231 1.65,0.071 1.069,0.801 0.912,3.248 0.911,3.272 0,0.003 0.003,0.005 0.003,0.009 0,0.004 -0.004,0.005 -0.004,0.009 0.004,2.292 0.301,3.727 0.54,4.88 0.231,1.12 0.414,2.007 0.269,3.253 -0.126,0.68 -0.453,1.168 -0.665,1.427 -1.019,-1.427 -1.053,-2.538 -1.053,-2.549 -0.002,-0.014 -0.012,-0.021 -0.013,-0.03 z"
       id="path237"
       style="fill:#ffffff"
       inkscape:connector-curvature="0"
       sodipodi:nodetypes="ccccssccccccccccccccccccccccccscccssscccccsccccccsccccccccsccsccscccccccscccccccccccscsccccccccccccccccccccccccccccccccccccccscccccccccccscccccccsssccsccccccccccsccccccccccccccccccccccscssccsssssccccccssccccccccssssccsccccscccccssscccccccssccccccccccccssccccccsccccccccccsccccscccccccccscscccccscccccc" /></g></svg>