<?xml version="1.0" encoding="UTF-8" standalone="no"?>
<!-- Created with Inkscape (http://www.inkscape.org/) -->

<svg
   xmlns:dc="http://purl.org/dc/elements/1.1/"
   xmlns:cc="http://creativecommons.org/ns#"
   xmlns:rdf="http://www.w3.org/1999/02/22-rdf-syntax-ns#"
   xmlns:svg="http://www.w3.org/2000/svg"
   xmlns="http://www.w3.org/2000/svg"
   xmlns:sodipodi="http://sodipodi.sourceforge.net/DTD/sodipodi-0.dtd"
   xmlns:inkscape="http://www.inkscape.org/namespaces/inkscape"
   width="32px"
   height="32px"
   viewBox="0 0 32 32"
   version="1.1"
   id="SVGRoot"
   inkscape:version="0.92.1 r15371"
   sodipodi:docname="anime_follow.svg">
  <sodipodi:namedview
     id="base"
     pagecolor="#ffffff"
     bordercolor="#666666"
     borderopacity="1.0"
     inkscape:pageopacity="0.0"
     inkscape:pageshadow="2"
     inkscape:zoom="8"
     inkscape:cx="16"
     inkscape:cy="16"
     inkscape:document-units="px"
     inkscape:current-layer="layer1"
     showgrid="false"
     inkscape:window-width="1920"
     inkscape:window-height="1017"
     inkscape:window-x="2936"
     inkscape:window-y="-8"
     inkscape:window-maximized="1"
     inkscape:grid-bbox="true" />
  <defs
     id="defs29" />
  <metadata
     id="metadata32">
    <rdf:RDF>
      <cc:Work
         rdf:about="">
        <dc:format>image/svg+xml</dc:format>
        <dc:type
           rdf:resource="http://purl.org/dc/dcmitype/StillImage" />
        <dc:title></dc:title>
      </cc:Work>
    </rdf:RDF>
  </metadata>
  <g
     id="layer1"
     inkscape:groupmode="layer"
     inkscape:label="Ebene 1">
    <path
       sodipodi:type="star"
       style="fill:#ffffff;stroke-width:1"
       id="path252"
       sodipodi:sides="5"
       sodipodi:cx="86.676537"
       sodipodi:cy="4.6772561"
       sodipodi:r1="6.9985013"
       sodipodi:r2="5.6619072"
       sodipodi:arg1="0.62024949"
       sodipodi:arg2="1.248568"
       inkscape:flatsided="true"
       inkscape:rounded="0"
       inkscape:randomized="0"
       d="M 92.371451,8.7450524 84.567658,11.35046 79.678263,4.7337267 84.460244,-1.9610471 92.305066,0.51808851 Z"
       inkscape:transform-center-x="0.0019268967"
       inkscape:transform-center-y="4.7991734e-005"
       transform="matrix(0.06308404,0,0,0.05842508,-1.3759207e-6,30.130398)" />
    <path
       d="M 24.52155,11.866926 C 24.545589,11.503515 24.777281,7.1148939 22.618159,5.4812746 21.784031,4.8496317 20.709619,4.7440693 19.45156,5.1057497 l -0.151035,-0.763163 c -0.0051,-0.022498 -0.02746,-0.03115 -0.03433,-0.051916 -0.0068,-0.020766 0.0051,-0.041533 -0.0051,-0.062299 -0.01716,-0.03461 -0.05493,-0.039803 -0.07894,-0.067491 -0.03777,-0.046723 -0.07208,-0.083065 -0.127003,-0.109023 -0.04977,-0.024228 -0.09611,-0.027689 -0.15275,-0.03115 -0.03604,0 -0.06694,-0.027689 -0.106417,-0.019036 -0.02232,0.00347 -0.0309,0.025957 -0.04977,0.03461 -0.02059,0.00691 -0.0412,-0.0052 -0.06178,0.0052 -1.088143,0.5641509 -1.889661,1.6041984 -2.303291,2.2341113 L 16.207751,6.0800445 c -0.03604,-0.038071 -0.08753,-0.039803 -0.130435,-0.064031 -0.04119,-0.024228 -0.07209,-0.069221 -0.12357,-0.076143 -0.0087,0 -0.01373,0.0052 -0.02232,0.0052 -0.05665,-0.00691 -0.108138,0.022497 -0.163049,0.039803 -0.05149,0.015575 -0.108138,0.017305 -0.149318,0.051916 -0.0051,0.00347 -0.01373,0.00173 -0.01888,0.0052 -0.03604,0.032881 -0.03604,0.081336 -0.05836,0.1228679 -0.02746,0.044994 -0.07209,0.077874 -0.08067,0.1349812 L 14.970277,9.440731 c -0.03261,-0.020763 -0.06007,-0.04326 -0.06522,-0.046728 -0.02574,-0.024231 -0.05836,-0.017306 -0.08753,-0.034612 -0.02747,-0.015572 -0.03604,-0.048461 -0.06522,-0.058832 -0.02575,-0.00862 -0.04977,0.00689 -0.07551,0.00345 -0.05836,-0.010338 -0.106417,-0.00517 -0.164766,0.00689 -0.05149,0.012115 -0.09096,0.027688 -0.133866,0.058843 -0.02403,0.015572 -0.05493,0.010338 -0.07551,0.032878 -0.02403,0.024231 -0.01888,0.060566 -0.03604,0.088254 -0.01716,0.027688 -0.04977,0.036335 -0.06178,0.069225 l -0.472014,1.330776 c -0.837563,-0.126329 -1.796983,-0.214586 -2.928032,-0.221507 -0.0051,0 -0.0086,-0.0069 -0.01545,-0.0069 -0.02575,0 -0.04462,0.0017 -0.07209,0.0017 -0.02574,0 -0.04462,-0.0017 -0.07037,-0.0017 -0.0069,0 -0.01029,0.0052 -0.01545,0.0069 -5.416684,0.03116 -7.2805997,1.789367 -7.330373,1.839552 -1.5361002,1.268477 -2.1711356,2.536955 -2.2003132,2.594063 0,0 -0.00172,0 -0.00172,0.0017 -0.81696482,1.676883 -1.04351852,4.108276 -1.05381636,4.210377 0,0.0017 0.0017159,0.0034 0.0017159,0.0053 0,0.0017 -0.0017159,0.0017 -0.0017159,0.0034 -0.40504935,6.136456 2.04241326,12.153505 2.14882466,12.407892 0.010292,0.02596 0.036043,0.03808 0.049773,0.06057 0.018878,0.02942 0.036043,0.04846 0.058355,0.07268 0.058355,0.05711 0.1235753,0.09172 0.2008091,0.109023 0.018878,0.0034 0.02746,0.0225 0.044624,0.02423 0.013731,0 0.02746,0.0017 0.039475,0.0017 0.054922,0 0.1098431,-0.01034 0.164766,-0.03288 0.024027,-0.01034 0.029176,-0.03635 0.048057,-0.05018 0.053206,-0.03288 0.087532,-0.07096 0.1201416,-0.121138 0.029177,-0.04153 0.049773,-0.07614 0.063503,-0.124603 0.00516,-0.0225 0.029177,-0.03635 0.030893,-0.0623 l 0.070795,-2.046523 c 13.7312702,4.240321 15.4267612,-3.210045 15.1106992,1.856477 0.25833,-1.08486 0.260972,-0.169887 0.266121,-0.14566 0.01373,0.04846 0.0232,0.481148 0.05067,0.522681 0.03433,0.05191 0.06694,0.08999 0.11843,0.121138 0.02232,0.01385 0.02746,0.03979 0.04977,0.05018 0.05321,0.0225 0.108128,0.03288 0.164765,0.03288 0.01373,0 0.02747,0 0.0412,-0.0017 0.01888,-0.0017 0.02917,-0.02076 0.04633,-0.02596 0.07551,-0.0173 0.140739,-0.05018 0.197377,-0.107294 0.02402,-0.02423 0.03948,-0.04326 0.05835,-0.07268 0.01545,-0.0225 0.03948,-0.03461 0.04977,-0.06057 0.06351,-0.154019 0.995461,-2.452159 1.621916,-5.610373 l 0.571531,-0.920642 c 0.238568,0.979478 0.786073,2.462542 2.097336,4.15846 0.0034,0.0034 0.0104,0.0017 0.01373,0.0053 0.0035,0.0053 0,0.01209 0.0051,0.01732 0.08582,0.09518 0.202525,0.143633 0.32095,0.143633 0.09268,0 0.183648,-0.02941 0.262596,-0.09172 0.0034,-0.0034 0.0034,-0.0086 0.0068,-0.01209 0.0051,-0.0034 0.0104,-0.0017 0.01545,-0.0053 0.05493,-0.05018 1.36447,-1.24079 1.745491,-3.334729 0.0017,-0.0053 -0.0034,-0.0086 -0.0034,-0.01385 0.0017,-0.0053 0.0068,-0.007 0.0068,-0.01209 0.271186,-2.306791 -0.07208,-3.983673 -0.470261,-5.923597 -0.425669,-2.055989 -0.904522,-4.390473 -0.911386,-8.265127 z m -9.68344,-1.529788 c 0.02745,0.01211 0.06865,0.02076 0.09783,0.03288 0.0635,0.107294 0.157901,0.192089 0.290056,0.212855 0.02403,0.0034 0.04462,0.0052 0.06694,0.0052 0.07037,0 0.127002,-0.03807 0.185362,-0.06923 0.20081,0.03634 0.413631,0.06923 0.674512,0.06923 0.02232,0 0.03433,-0.01904 0.0532,-0.0225 0.02232,-0.0017 0.03777,0.01384 0.06007,0.0069 0.406769,-0.112485 0.743165,-0.09863 0.986881,0.04673 0.326099,0.192088 0.423929,0.571075 0.425646,0.571075 0.0068,0.02942 0.03261,0.04326 0.0429,0.06922 0.0086,0.02076 -0.0017,0.04326 0.0104,0.0623 0.01716,0.02942 0.420496,0.633374 1.239178,1.310011 l -0.369008,0.290729 c -0.13902,-0.128059 -0.279758,-0.256118 -0.43766,-0.385908 -0.05493,-0.05364 -1.048666,-0.963904 -3.576795,-1.495177 z m 4.374882,3.201478 0.648767,-0.512236 c -0.07551,0.278615 -0.181928,0.593571 -0.305502,0.915449 -0.10126,-0.128059 -0.217972,-0.263039 -0.343265,-0.403213 z m 0.732867,-1.204448 c -0.01716,-0.01557 -0.01716,-0.04154 -0.03604,-0.05537 -0.07207,-0.05019 -0.120138,-0.09864 -0.187076,-0.148825 0.142452,-0.05711 0.236851,-0.08306 0.243716,-0.09344 0.03261,0.05883 0.03261,0.179975 0.0206,0.320146 -0.01198,-0.01211 -0.02918,-0.01211 -0.0412,-0.0225 z M 0.89993212,19.394726 v 0 c 0.00171,-0.02423 0.22312068,-2.377746 0.96971638,-3.907534 v -0.0017 c 0.015447,-0.02941 0.5972772,-1.171568 1.9995049,-2.329292 0.01888,-0.01557 1.7626537,-1.612853 6.8480886,-1.628427 5.092302,0.01557 6.832644,1.612853 6.877268,1.652655 1.330142,1.095424 1.908541,2.190848 1.960031,2.289489 0.0035,0.0069 -0.0017,0.01209 0.0017,0.01903 0.748312,1.529789 0.969717,3.883308 0.971433,3.907534 v 0 c 0.259163,3.954258 -0.741448,7.939667 -1.443421,10.178971 l -0.877001,-9.16661 c -0.0051,-0.04499 -0.03948,-0.07096 -0.05493,-0.109024 -0.02059,-0.04846 -0.03261,-0.08999 -0.06522,-0.12979 -0.03948,-0.04326 -0.08926,-0.06402 -0.145886,-0.08825 -0.03604,-0.01558 -0.05493,-0.05191 -0.09611,-0.05884 -0.01888,-0.0017 -0.03433,0.01385 -0.05149,0.01385 -0.02232,0 -0.03433,-0.01903 -0.05493,-0.0173 -0.04462,0.0034 -0.07037,0.04153 -0.108138,0.05884 -0.04634,0.01903 -0.08753,0.03288 -0.125294,0.06749 -0.04462,0.03979 -0.06522,0.08825 -0.08926,0.143635 -0.01716,0.03461 -0.05149,0.05538 -0.05835,0.09344 l -0.41363,2.706546 -1.232313,-5.721127 c -0.0086,-0.03808 -0.0429,-0.05538 -0.06008,-0.08825 -0.02917,-0.05537 -0.04977,-0.100369 -0.09783,-0.138444 -0.0412,-0.03635 -0.08582,-0.04673 -0.137306,-0.06402 -0.03604,-0.01385 -0.06178,-0.04846 -0.104694,-0.05018 -0.02232,-0.0034 -0.03604,0.01903 -0.05665,0.01903 -0.0206,0 -0.03604,-0.01385 -0.05321,-0.01034 -0.03261,0.007 -0.04633,0.03808 -0.07381,0.05191 -0.06178,0.0277 -0.109843,0.05017 -0.154468,0.10556 -0.03433,0.04153 -0.0429,0.08306 -0.06008,0.134982 -0.01373,0.03808 -0.04806,0.06749 -0.04977,0.109022 l -0.161344,3.341617 -1.266639,-2.241034 c 0.159618,-0.572806 0.257447,-1.123113 0.257447,-1.619775 0,-0.238813 -0.192228,-0.432633 -0.429079,-0.432633 -0.236852,0 -0.429078,0.19382 -0.429078,0.432633 0,1.744372 -1.422823,4.399005 -2.325603,5.908025 -0.132158,-1.94861 -0.5818309,-5.378519 -2.121364,-6.650457 -0.1819287,-0.150556 -0.4513903,-0.124602 -0.6024254,0.06058 -0.1510359,0.185166 -0.1235748,0.458589 0.06007,0.609144 0.243717,0.200743 0.446242,0.505315 0.6316037,0.844498 L 6.7267685,20.784341 6.5637183,17.437498 c -0.00343,-0.05191 -0.037759,-0.08999 -0.054922,-0.138442 -0.013731,-0.03114 -0.015446,-0.0623 -0.036043,-0.08999 -0.041192,-0.06576 -0.104696,-0.09691 -0.1819294,-0.12633 -0.025746,-0.01034 -0.037759,-0.0398 -0.06522,-0.04499 -0.018878,-0.0034 -0.034326,0.01034 -0.05149,0.0086 -0.024029,0 -0.034326,-0.0225 -0.060071,-0.01903 -0.042908,0.0017 -0.068652,0.03635 -0.1046939,0.04846 -0.051489,0.0173 -0.096114,0.03114 -0.1390214,0.06576 -0.044624,0.03979 -0.06522,0.08306 -0.092681,0.136712 -0.01888,0.03461 -0.053206,0.05018 -0.061787,0.08999 l -1.225447,5.724615 -0.4187808,-2.710007 c -0.00687,-0.04153 -0.042908,-0.0623 -0.058355,-0.09691 -0.024028,-0.05364 -0.044624,-0.100369 -0.085816,-0.140172 -0.041192,-0.03635 -0.082382,-0.05018 -0.132156,-0.07095 -0.039474,-0.01558 -0.063503,-0.05191 -0.1081269,-0.05711 -0.020596,-0.0017 -0.034326,0.01558 -0.053206,0.01731 -0.018878,0 -0.034326,-0.01558 -0.05149,-0.01385 -0.041192,0.007 -0.061786,0.04326 -0.09783,0.06058 -0.053206,0.0225 -0.1012629,0.04153 -0.1390214,0.0848 -0.036043,0.03979 -0.049773,0.0848 -0.070369,0.136712 -0.015446,0.03807 -0.049773,0.06057 -0.054922,0.103826 L 2.3485,29.573691 C 1.6448121,27.336123 0.64248489,23.352445 0.89993212,19.394726 Z M 14.688793,22.501025 c 0.0104,0.01903 0.03089,0.02597 0.0412,0.04153 0.01716,0.0225 0.03261,0.03635 0.05149,0.05364 0.06865,0.0623 0.147603,0.102103 0.236853,0.110755 0.0087,0 0.01373,0.0086 0.02232,0.01034 h 0.0206 c 0.01716,0 0.03261,-0.01034 0.04806,-0.01209 -0.152751,0.181707 -0.372438,0.304573 -0.623021,0.304573 -0.459971,0 -0.832411,-0.375524 -0.832411,-0.834115 0,-0.316686 0.181929,-0.583187 0.442808,-0.725091 z M 7.9213685,21.424636 c 0.4565392,0 0.8238303,0.373794 0.8238303,0.835845 0,0.460322 -0.3690069,0.837577 -0.8238303,0.837577 -0.4599716,0 -0.8289791,-0.377255 -0.8289791,-0.837577 0,-0.463781 0.3690075,-0.835845 0.8289791,-0.835845 z m -4.5997191,6.979223 0.4256457,-4.487261 0.2505818,1.611122 c 0.00516,0.03635 0.036043,0.05711 0.048057,0.08825 0.018879,0.04326 0.034326,0.07787 0.063504,0.112487 0.041192,0.04846 0.090965,0.07787 0.1493193,0.103826 0.029178,0.01209 0.041192,0.04326 0.072085,0.05017 0.030893,0.007 0.06007,0.01034 0.090965,0.01034 0.022311,0 0.042908,-0.0017 0.06522,-0.0053 0.029176,-0.0053 0.042908,-0.03288 0.070368,-0.04326 0.063504,-0.0225 0.1184257,-0.05017 0.1664826,-0.102103 0.030894,-0.03288 0.042908,-0.06402 0.063503,-0.103837 0.015447,-0.03114 0.044624,-0.05191 0.053206,-0.08825 l 1.0246386,-4.786641 0.075517,1.540169 c 0,0.0086 0.010292,0.01558 0.012018,0.02423 -0.1493187,0.332261 -0.2557302,0.695672 -0.2557302,1.104077 0,1.270207 0.8101001,2.292951 1.815859,2.292951 0.9971782,0 1.8158595,-1.022744 1.8158595,-2.292951 0,-1.263286 -0.8186813,-2.291221 -1.8158595,-2.291221 h -0.00343 L 8.9048168,18.67994 c 0.6281707,1.858588 0.8049505,4.400735 0.8049505,5.542884 0,0.01558 0.015447,0.02423 0.017163,0.03808 0.00515,0.05711 0.034326,0.09864 0.06007,0.148825 0.027462,0.05018 0.042908,0.09864 0.087532,0.134981 0.010292,0.0086 0.010292,0.02596 0.022312,0.03461 0.075518,0.05191 0.1596167,0.07614 0.2437157,0.07614 0.09955,0 0.190511,-0.04673 0.269461,-0.112487 0.01545,-0.01385 0.03089,-0.02423 0.04291,-0.0398 0.01202,-0.01385 0.03089,-0.02076 0.03948,-0.03635 0.09268,-0.136711 1.673405,-2.483308 2.577903,-4.835097 l 0.828979,1.467489 c -0.914796,0.11422 -1.63908,1.062544 -1.63908,2.249687 0,1.266748 0.811816,2.294682 1.812427,2.294682 1.007475,0 1.81586,-1.027934 1.81586,-2.294682 0,-0.510506 -0.157901,-0.960443 -0.382738,-1.34116 l 0.06008,-1.245979 1.029788,4.788371 c 0.0087,0.03635 0.03777,0.05711 0.0532,0.08825 0.02059,0.0398 0.03433,0.07268 0.06522,0.10556 0.04462,0.05018 0.101259,0.07787 0.164765,0.100369 0.02746,0.01034 0.0412,0.03808 0.07037,0.04326 0.02232,0.0034 0.0429,0.0053 0.06522,0.0053 0.0309,0 0.06007,-0.0034 0.09096,-0.01034 0.0309,-0.007 0.04462,-0.03808 0.07209,-0.05017 0.05835,-0.02596 0.108139,-0.05364 0.14932,-0.103826 0.0309,-0.03635 0.04462,-0.07096 0.0635,-0.11422 0.01373,-0.03288 0.0429,-0.05364 0.04806,-0.08825 l 0.245431,-1.599009 0.442809,4.620512 C 15.143615,30.800642 5.9990982,30.712383 3.3216494,28.403859 Z M 22.084385,23.952938 c -0.0068,-0.05711 -0.03604,-0.09863 -0.06178,-0.148824 -0.02917,-0.04846 -0.04633,-0.09345 -0.09096,-0.12806 -0.01545,-0.01209 -0.01545,-0.03288 -0.03089,-0.04153 -0.03604,-0.02423 -0.08066,-0.0086 -0.120138,-0.02076 -0.03777,-0.01034 -0.06522,-0.04499 -0.108117,-0.04499 h -0.0017 c -0.01716,0 -0.02917,0.01729 -0.04462,0.01903 -0.05493,0.007 -0.09439,0.03461 -0.142454,0.06058 -0.05149,0.02941 -0.09783,0.04846 -0.133865,0.09518 -0.0104,0.01385 -0.0309,0.01385 -0.03948,0.02941 l -0.08926,0.143635 c 0.181929,-1.458836 0.264311,-3.018042 0.161332,-4.585901 0,-0.0017 -0.0017,-0.0017 -0.0017,-0.0034 0,-0.0017 0.0017,-0.0034 0.0017,-0.007 -0.0104,-0.102103 -0.23685,-2.512729 -1.045234,-4.18615 -0.0034,-0.0069 0.0017,-0.01385 -0.0017,-0.0225 -0.0087,-0.01558 -0.07208,-0.140172 -0.185362,-0.328799 0.475419,-1.07985 1.058966,-2.753272 0.408483,-3.371071 -0.332964,-0.314956 -0.839277,-0.285537 -1.503492,0.07787 -0.01545,0.0086 -0.01545,0.02769 -0.02917,0.03634 C 18.701639,11.197234 18.521425,10.956691 18.4871,10.901313 18.42532,10.698842 18.23137,10.203911 17.701028,9.8854936 17.277098,9.631106 16.753625,9.591304 16.159779,9.7297457 c -0.0017,0 -0.0035,-0.00172 -0.0051,-0.00172 -0.137304,0 -0.240283,-0.017306 -0.351843,-0.031145 l 0.37244,-2.3829377 c 0.0051,0.00347 0.0104,0.00173 0.01373,0.0052 0.02232,0.019036 0.02574,0.050185 0.05149,0.06403 0.06522,0.03461 0.133866,0.051916 0.202525,0.051916 0.09268,0 0.178498,-0.038071 0.252299,-0.09518 0.0086,-0.00691 0.02232,-0.00347 0.03261,-0.012115 0.01373,-0.012115 0.0104,-0.03115 0.02232,-0.043262 0.02402,-0.025958 0.05493,-0.043263 0.07209,-0.076144 0.0068,-0.013844 0.695107,-1.2909745 1.759222,-2.0783651 l 0.118429,0.6056845 c 0.0035,0.013844 0.01716,0.020766 0.0206,0.032881 0.0034,0.010382 -0.0051,0.022497 -0.0017,0.03288 0.0104,0.029418 0.04119,0.038071 0.05835,0.06403 0.03604,0.058838 0.07381,0.1090235 0.133866,0.143634 0.03604,0.020766 0.06522,0.027689 0.106416,0.038071 0.03604,0.010381 0.06522,0.036342 0.104694,0.036342 0.02746,0 0.05493,-0.00173 0.0841,-0.00865 0.01198,-0.00173 0.01888,-0.015575 0.0309,-0.020766 0.01198,-0.00347 0.02404,0.0052 0.03604,0.00173 1.18769,-0.4430152 2.141959,-0.399752 2.831918,0.122868 1.834738,1.3861536 1.565277,5.6207566 1.563561,5.6622886 0,0.0052 0.0051,0.0086 0.0051,0.01557 0,0.0069 -0.0068,0.0086 -0.0068,0.01557 0.0068,3.966371 0.51661,6.449681 0.926808,8.444982 0.396469,1.938191 0.710554,3.473172 0.46169,5.62941 -0.216257,1.176759 -0.777491,2.021258 -1.14135,2.469463 -1.748922,-2.469463 -1.807277,-4.392081 -1.807277,-4.411118 -0.0034,-0.02423 -0.0206,-0.03635 -0.02232,-0.05191 z"
       id="path237"
       style="fill:#ffffff;stroke-width:1.72340631"
       inkscape:connector-curvature="0"
       sodipodi:nodetypes="ccccssccccccccccccccccccccccccscccssscccccsccccccsccccccccsccsccscccccccscccccccccccscsccccccccccccccccccccccccccccccccccccccscccccccccccscccccccsssccsccccccccccsccccccccccccccccccccccscssccsssssccccccssccccccccssssccsccccscccccssscccccccssccccccccccccssccccccsccccccccccsccccscccccccccscscccccscccccc" />
    <path
       d="m 11.918768,27.599111 c -0.08925,0.10556 -0.638469,0.302843 -1.297533,0.283807 -0.456539,-0.01034 -0.8324124,-0.122871 -0.961136,-0.285537 -0.1458863,-0.186898 -0.4153472,-0.219778 -0.6024254,-0.07268 -0.1853617,0.147096 -0.2196883,0.41879 -0.072085,0.607417 0.4170644,0.534733 1.2408944,0.616068 1.7042984,0.616068 0.0052,0 0.01029,0 0.01545,0 0.653915,-0.0017 1.541249,-0.16613 1.889659,-0.617799 0.142455,-0.185166 0.108139,-0.443014 -0.07381,-0.591841 -0.17678,-0.145364 -0.447957,-0.119405 -0.602426,0.06057 z"
       id="path235"
       style="fill:#ffffff;stroke-width:1.72340631"
       inkscape:connector-curvature="0" />
    <rect
       style="fill:#ffffff;stroke-width:1.3021239"
       id="rect5332"
       width="5.3066034"
       height="16.627357"
       x="19.949499"
       y="0.11364251" />
    <rect
       style="fill:#ffffff;stroke-width:1.34343207"
       id="rect5332-1"
       width="18.183962"
       height="5.1650934"
       x="13.758459"
       y="5.2433596" />
  </g>
</svg>
