<?xml version="1.0" encoding="UTF-8" standalone="no"?>
<!-- Created with Inkscape (http://www.inkscape.org/) -->

<svg
   xmlns:dc="http://purl.org/dc/elements/1.1/"
   xmlns:cc="http://creativecommons.org/ns#"
   xmlns:rdf="http://www.w3.org/1999/02/22-rdf-syntax-ns#"
   xmlns:svg="http://www.w3.org/2000/svg"
   xmlns="http://www.w3.org/2000/svg"
   xmlns:sodipodi="http://sodipodi.sourceforge.net/DTD/sodipodi-0.dtd"
   xmlns:inkscape="http://www.inkscape.org/namespaces/inkscape"
   width="32px"
   height="32px"
   viewBox="0 0 32 32"
   version="1.1"
   id="SVGRoot"
   inkscape:version="0.92.1 r15371"
   sodipodi:docname="anime_updates.svg">
  <sodipodi:namedview
     id="base"
     pagecolor="#ffffff"
     bordercolor="#666666"
     borderopacity="1.0"
     inkscape:pageopacity="0.0"
     inkscape:pageshadow="2"
     inkscape:zoom="8"
     inkscape:cx="20.5"
     inkscape:cy="16"
     inkscape:document-units="px"
     inkscape:current-layer="layer1"
     showgrid="false"
     inkscape:window-width="1920"
     inkscape:window-height="1017"
     inkscape:window-x="2936"
     inkscape:window-y="-8"
     inkscape:window-maximized="1"
     inkscape:grid-bbox="true" />
  <defs
     id="defs133" />
  <metadata
     id="metadata136">
    <rdf:RDF>
      <cc:Work
         rdf:about="">
        <dc:format>image/svg+xml</dc:format>
        <dc:type
           rdf:resource="http://purl.org/dc/dcmitype/StillImage" />
        <dc:title></dc:title>
      </cc:Work>
    </rdf:RDF>
  </metadata>
  <g
     id="layer1"
     inkscape:groupmode="layer"
     inkscape:label="Ebene 1">
    <path
       d="m 11.920318,27.713379 c -0.08925,0.105558 -0.638465,0.302842 -1.297526,0.283807 -0.456538,-0.01035 -0.8324082,-0.12287 -0.9611312,-0.285538 -0.1458862,-0.186897 -0.4153459,-0.219776 -0.6024233,-0.07268 -0.1853608,0.147094 -0.2196866,0.418786 -0.072085,0.607415 0.4170618,0.534733 1.2408885,0.616067 1.7042915,0.616067 0.0051,0 0.01029,0 0.01545,0 0.653912,-0.0017 1.541242,-0.166131 1.889652,-0.617799 0.142452,-0.185167 0.108126,-0.443014 -0.0738,-0.59184 -0.17678,-0.145365 -0.447955,-0.119405 -0.602423,0.06056 z"
       id="path235"
       style="fill:#ffffff;stroke-width:1.72340226"
       inkscape:connector-curvature="0" />
    <path
       d="M 24.521431,11.866929 C 24.545471,11.503518 24.777161,7.1148971 22.618048,5.4812785 21.783924,4.8496351 20.709517,4.7440733 19.451465,5.1057537 L 19.300431,4.3425903 c -0.0051,-0.022497 -0.02747,-0.03115 -0.03433,-0.051916 -0.0069,-0.020767 0.0051,-0.041533 -0.0051,-0.062299 -0.01716,-0.03461 -0.05492,-0.039803 -0.07894,-0.06749 -0.03776,-0.046724 -0.07208,-0.083065 -0.127003,-0.1090241 -0.04977,-0.024228 -0.09612,-0.027689 -0.15275,-0.03115 -0.03604,0 -0.06694,-0.027689 -0.106411,-0.019037 -0.02231,0.00346 -0.0309,0.025958 -0.04977,0.03461 -0.02059,0.00692 -0.04119,-0.0052 -0.06179,0.0052 -1.088138,0.5641518 -1.889652,1.6041998 -2.303281,2.234112 l -0.173395,-0.195549 c -0.03604,-0.038071 -0.08753,-0.039803 -0.130434,-0.06403 -0.04119,-0.024228 -0.07208,-0.069221 -0.123569,-0.076143 -0.0086,0 -0.01373,0.0052 -0.02231,0.0052 -0.05664,-0.00692 -0.108134,0.022498 -0.163049,0.039803 -0.05149,0.015575 -0.108133,0.017305 -0.149318,0.051916 -0.0051,0.00346 -0.01373,0.00174 -0.01888,0.0052 -0.03604,0.03288 -0.03604,0.081335 -0.05835,0.1228679 -0.02747,0.044994 -0.07208,0.077874 -0.08067,0.1349812 l -0.490869,3.1408966 c -0.03261,-0.020767 -0.06008,-0.043263 -0.06522,-0.046724 -0.02574,-0.024227 -0.05835,-0.017305 -0.08753,-0.03461 -0.02747,-0.015575 -0.03604,-0.048455 -0.06522,-0.058838 -0.02575,-0.00865 -0.04977,0.00692 -0.07551,0.00346 -0.05835,-0.010383 -0.106412,-0.0052 -0.164765,0.00692 -0.05149,0.012115 -0.09096,0.027689 -0.133865,0.058838 -0.02402,0.015575 -0.05492,0.010383 -0.07551,0.03288 -0.02402,0.024228 -0.01888,0.060569 -0.03604,0.088256 -0.01716,0.027689 -0.04977,0.036342 -0.06178,0.069221 l -0.472013,1.3307761 c -0.837557,-0.126333 -1.796972,-0.21459 -2.928017,-0.221512 -0.0051,0 -0.0086,-0.0069 -0.01545,-0.0069 -0.02574,0 -0.04462,0.0017 -0.07208,0.0017 -0.02574,0 -0.04462,-0.0017 -0.07037,-0.0017 -0.0069,0 -0.01029,0.0052 -0.01545,0.0069 -5.416659,0.03115 -7.2805667,1.789367 -7.3303398,1.839552 -1.5360931,1.268478 -2.1711256,2.536956 -2.2003031,2.594063 0,0 -0.00172,0 -0.00172,0.0017 -0.81696101,1.676882 -1.04351305,4.108275 -1.05381084,4.210376 0,0.0017 0.0017222,0.0035 0.0017222,0.0052 0,0.0017 -0.0017222,0.0017 -0.0017222,0.0035 -0.40504813,6.136456 2.04240324,12.153504 2.14881414,12.40789 0.010295,0.02596 0.036043,0.03808 0.049772,0.06056 0.018879,0.02942 0.036043,0.04846 0.058354,0.07268 0.058355,0.05711 0.1235748,0.09172 0.2008082,0.109022 0.018878,0.0035 0.02746,0.0225 0.044623,0.02423 0.013731,0 0.02746,0.0017 0.039475,0.0017 0.054921,0 0.1098427,-0.01035 0.1647653,-0.03288 0.024027,-0.01035 0.029176,-0.03635 0.048057,-0.05018 0.053205,-0.03288 0.087531,-0.07096 0.1201412,-0.121138 0.029176,-0.04153 0.049772,-0.07614 0.063503,-0.124603 0.00515,-0.0225 0.029177,-0.03635 0.030894,-0.0623 l 0.070799,-2.046521 c 13.7312069,4.240238 15.4266889,-3.210127 15.1106289,1.856394 0.258327,-1.08486 0.26097,-0.169887 0.266119,-0.14566 0.01373,0.04846 0.0232,0.481148 0.05067,0.522682 0.03433,0.05191 0.06694,0.08999 0.11843,0.121137 0.02231,0.01385 0.02747,0.0398 0.04977,0.05018 0.05321,0.0225 0.108134,0.03288 0.164764,0.03288 0.01373,0 0.02747,0 0.0412,-0.0017 0.01888,-0.0017 0.02918,-0.02076 0.04633,-0.02596 0.07551,-0.0173 0.140739,-0.05018 0.197376,-0.10729 0.02402,-0.02423 0.03947,-0.04326 0.05835,-0.07268 0.01545,-0.0225 0.03947,-0.03461 0.04977,-0.06056 0.06351,-0.154017 0.995457,-2.452157 1.621908,-5.610371 l 0.571529,-0.920643 c 0.238566,0.979479 0.786069,2.462543 2.097326,4.158461 0.0034,0.0035 0.01036,0.0017 0.01373,0.0052 0.0035,0.0052 0,0.01209 0.0051,0.01731 0.08582,0.09518 0.202524,0.143633 0.320948,0.143633 0.09268,0 0.183646,-0.02942 0.262596,-0.09172 0.0034,-0.0035 0.0034,-0.0086 0.0069,-0.01209 0.0051,-0.0035 0.01036,-0.0017 0.01545,-0.0052 0.05492,-0.05018 1.364463,-1.240789 1.745483,-3.334728 0.0017,-0.0052 -0.0034,-0.0086 -0.0034,-0.01385 0.0017,-0.0052 0.0069,-0.007 0.0069,-0.01209 0.271185,-2.306791 -0.07208,-3.983673 -0.470258,-5.923596 -0.425668,-2.055989 -0.904518,-4.390473 -0.911383,-8.265125 z m -9.683394,-1.529788 c 0.02745,0.01211 0.06865,0.02077 0.09783,0.03288 0.06351,0.107292 0.157901,0.192088 0.290056,0.212854 0.02402,0.0035 0.04463,0.0052 0.06694,0.0052 0.07037,0 0.127003,-0.03807 0.185361,-0.06922 0.200809,0.03634 0.41363,0.06922 0.67451,0.06922 0.02231,0 0.03433,-0.01904 0.0532,-0.0225 0.02231,-0.0017 0.03776,0.01384 0.06008,0.0069 0.406766,-0.112484 0.743162,-0.09864 0.986877,0.04672 0.326098,0.192089 0.423927,0.571075 0.425644,0.571075 0.0069,0.02942 0.03261,0.04326 0.0429,0.06922 0.0086,0.02077 -0.0017,0.04326 0.01036,0.0623 0.01716,0.02942 0.420494,0.633373 1.239172,1.31001 l -0.369006,0.290729 c -0.13902,-0.12806 -0.279757,-0.256119 -0.437658,-0.385908 -0.05492,-0.05365 -1.048662,-0.963904 -3.57678,-1.495176 z m 4.374862,3.201478 0.648763,-0.512236 c -0.07552,0.278615 -0.181927,0.593571 -0.305501,0.915449 -0.101263,-0.128059 -0.217971,-0.26304 -0.343262,-0.403213 z m 0.732862,-1.204448 c -0.01716,-0.01557 -0.01716,-0.04153 -0.03604,-0.05538 -0.07208,-0.05019 -0.120138,-0.09864 -0.187076,-0.148825 0.142452,-0.05711 0.23685,-0.08306 0.243715,-0.09345 0.03261,0.05884 0.03261,0.179975 0.02059,0.320148 -0.01198,-0.01211 -0.02918,-0.01211 -0.0412,-0.0225 z M 0.89992253,19.394728 v 0 c 0.00171,-0.02423 0.22311967,-2.377746 0.96971267,-3.907533 v -0.0017 c 0.015447,-0.02942 0.5972738,-1.171569 1.9994955,-2.329293 0.01888,-0.01557 1.7626451,-1.612852 6.8480583,-1.628426 5.092277,0.01557 6.832611,1.612853 6.877234,1.652654 1.330137,1.095425 1.908532,2.190849 1.960022,2.289489 0.0035,0.0069 -0.0017,0.01209 0.0017,0.01903 0.748308,1.529788 0.969712,3.883307 0.971428,3.907533 v 0 c 0.259162,3.954258 -0.741444,7.939666 -1.443413,10.178971 l -0.877029,-9.16661 c -0.0051,-0.045 -0.03947,-0.07096 -0.05492,-0.109023 -0.02059,-0.04846 -0.03261,-0.08999 -0.06522,-0.12979 -0.03947,-0.04326 -0.08925,-0.06403 -0.145886,-0.08826 -0.03604,-0.01558 -0.05492,-0.05191 -0.09612,-0.05884 -0.01888,-0.0017 -0.03433,0.01385 -0.05149,0.01385 -0.02231,0 -0.03433,-0.01903 -0.05492,-0.0173 -0.04463,0.0035 -0.07037,0.04153 -0.108134,0.05884 -0.04634,0.01903 -0.08753,0.03288 -0.125293,0.06749 -0.04463,0.0398 -0.06522,0.08826 -0.08925,0.143634 -0.01716,0.03461 -0.05149,0.05538 -0.05835,0.09344 l -0.413629,2.706546 -1.232307,-5.721127 c -0.0086,-0.03808 -0.0429,-0.05538 -0.06008,-0.08826 -0.02918,-0.05538 -0.04977,-0.100373 -0.09783,-0.138442 -0.0412,-0.03635 -0.08582,-0.04673 -0.137305,-0.06403 -0.03604,-0.01385 -0.06179,-0.04846 -0.104689,-0.05018 -0.02231,-0.0035 -0.03604,0.01903 -0.05664,0.01903 -0.02059,0 -0.03604,-0.01385 -0.05321,-0.01035 -0.03261,0.007 -0.04633,0.03808 -0.0738,0.05191 -0.06179,0.0277 -0.109842,0.05018 -0.154468,0.105557 -0.03433,0.04153 -0.0429,0.08306 -0.06008,0.134982 -0.01373,0.03808 -0.04806,0.06749 -0.04977,0.109022 L 14.702398,20.779135 13.435765,18.5381 c 0.159616,-0.572805 0.257445,-1.123112 0.257445,-1.619775 0,-0.238813 -0.192225,-0.432632 -0.429076,-0.432632 -0.23685,0 -0.429076,0.193819 -0.429076,0.432632 0,1.744373 -1.422817,4.399005 -2.325593,5.908025 -0.132156,-1.948575 -0.5818279,-5.378484 -2.1213539,-6.650421 -0.1819279,-0.150557 -0.4513882,-0.124603 -0.6024227,0.06056 -0.1510351,0.185167 -0.1235741,0.45859 0.060071,0.609145 0.2437152,0.200742 0.4462393,0.505315 0.6316008,0.844499 L 6.7267281,20.784342 6.5636787,17.4375 c -0.00343,-0.05191 -0.037759,-0.08999 -0.054921,-0.138441 -0.013732,-0.03115 -0.015447,-0.06229 -0.036043,-0.08999 -0.041192,-0.06576 -0.1046957,-0.09691 -0.181929,-0.126329 -0.025745,-0.01035 -0.037759,-0.0398 -0.065219,-0.04499 -0.018879,-0.0035 -0.034326,0.01034 -0.05149,0.0086 -0.024028,0 -0.034326,-0.0225 -0.060071,-0.01903 -0.042908,0.0017 -0.068653,0.03635 -0.1046942,0.04846 -0.051488,0.0173 -0.096113,0.03115 -0.1390206,0.06576 -0.044624,0.0398 -0.06522,0.08306 -0.09268,0.136712 -0.01888,0.03461 -0.053206,0.05018 -0.061786,0.08999 L 4.4903829,23.092867 4.0716046,20.38286 c -0.00686,-0.04153 -0.042908,-0.0623 -0.058355,-0.09691 -0.024027,-0.05365 -0.044624,-0.100372 -0.085815,-0.140173 -0.041192,-0.03635 -0.082382,-0.05018 -0.1321548,-0.07095 -0.039475,-0.01558 -0.063504,-0.05191 -0.1081275,-0.05711 -0.020596,-0.0017 -0.034325,0.01558 -0.053205,0.0173 -0.018879,0 -0.034326,-0.01558 -0.05149,-0.01385 -0.041192,0.007 -0.061787,0.04326 -0.09783,0.06058 -0.053205,0.0225 -0.101262,0.04153 -0.1390208,0.08479 -0.036042,0.0398 -0.049772,0.08479 -0.070368,0.136713 -0.015447,0.03806 -0.049772,0.06056 -0.054922,0.103825 L 2.3484837,29.573692 C 1.644799,27.336124 0.6424765,23.352446 0.89992253,19.394728 Z M 14.68872,22.501027 c 0.01036,0.01903 0.03088,0.02596 0.04119,0.04153 0.01716,0.0225 0.03261,0.03635 0.05149,0.05365 0.06865,0.06229 0.147603,0.102105 0.236851,0.110755 0.0086,0 0.01373,0.0086 0.02231,0.01035 h 0.02059 c 0.01716,0 0.03261,-0.01035 0.04806,-0.01209 -0.152751,0.181706 -0.372437,0.304572 -0.623019,0.304572 -0.459969,0 -0.832408,-0.375524 -0.832408,-0.834114 0,-0.316686 0.181929,-0.583187 0.442807,-0.725091 z m -6.7673928,-1.07639 c 0.4565371,0 0.8238264,0.373795 0.8238264,0.835846 0,0.460321 -0.3690052,0.837576 -0.8238264,0.837576 -0.4599695,0 -0.8289753,-0.377255 -0.8289753,-0.837576 0,-0.463781 0.3690058,-0.835846 0.8289753,-0.835846 z m -4.5996978,6.979222 0.4256437,-4.48726 0.2505806,1.611122 c 0.00515,0.03635 0.036043,0.05711 0.048057,0.08826 0.018878,0.04326 0.034326,0.07788 0.063504,0.112487 0.041192,0.04846 0.090964,0.07788 0.149318,0.103826 0.029177,0.01209 0.041192,0.04326 0.072084,0.05018 0.030894,0.007 0.060071,0.01035 0.090964,0.01035 0.022312,0 0.042908,-0.0017 0.06522,-0.0052 0.029177,-0.0052 0.042908,-0.03288 0.070369,-0.04326 0.063503,-0.0225 0.1184252,-0.05018 0.1664811,-0.102106 0.030894,-0.03288 0.042908,-0.06403 0.063504,-0.103837 0.015447,-0.03115 0.044624,-0.05191 0.053205,-0.08826 l 1.0246342,-4.786642 0.075518,1.54017 c 0,0.0086 0.010295,0.01558 0.012018,0.02423 C 5.803411,22.66018 5.697,23.023591 5.697,23.431995 c 0,1.270208 0.8100962,2.292951 1.8158511,2.292951 0.9971736,0 1.8158512,-1.022743 1.8158512,-2.292951 0,-1.263285 -0.8186776,-2.29122 -1.8158512,-2.29122 h -0.00343 l 1.3953514,-2.460716 c 0.6281677,1.858587 0.8049473,4.400734 0.8049473,5.542883 0,0.01558 0.015447,0.02423 0.017163,0.03808 0.00514,0.05711 0.034326,0.09864 0.060071,0.148826 0.02746,0.05018 0.042908,0.09864 0.087531,0.134981 0.010295,0.0086 0.010295,0.02596 0.022311,0.03461 0.075518,0.05191 0.1596172,0.07614 0.2437152,0.07614 0.09955,0 0.190511,-0.04673 0.26946,-0.112488 0.01545,-0.01385 0.03089,-0.02423 0.04291,-0.0398 0.01202,-0.01385 0.03089,-0.02076 0.03948,-0.03634 0.09268,-0.136712 1.673398,-2.483308 2.577891,-4.835097 l 0.828975,1.467488 c -0.914791,0.114221 -1.639072,1.062545 -1.639072,2.249687 0,1.266748 0.811813,2.294682 1.812418,2.294682 1.007471,0 1.815852,-1.027934 1.815852,-2.294682 0,-0.510506 -0.1579,-0.960443 -0.382736,-1.341159 l 0.06008,-1.24598 1.029784,4.788372 c 0.0086,0.03635 0.03776,0.05711 0.0532,0.08826 0.02059,0.0398 0.03433,0.07268 0.06522,0.105557 0.04463,0.05018 0.101257,0.07787 0.164764,0.100373 0.02747,0.01034 0.04119,0.03808 0.07037,0.04326 0.02231,0.0035 0.0429,0.0052 0.06522,0.0052 0.0309,0 0.06008,-0.0035 0.09096,-0.01034 0.0309,-0.007 0.04463,-0.03808 0.07208,-0.05018 0.05835,-0.02596 0.108133,-0.05364 0.149319,-0.103825 0.0309,-0.03635 0.04463,-0.07096 0.06351,-0.11422 0.01373,-0.03288 0.0429,-0.05365 0.04806,-0.08826 l 0.245432,-1.599009 0.442806,4.620512 C 15.14354,30.800642 5.9990653,30.712385 3.3216294,28.403859 Z M 22.084277,23.95294 c -0.0069,-0.05711 -0.03604,-0.09864 -0.06179,-0.148825 -0.02918,-0.04846 -0.04633,-0.09345 -0.09096,-0.128059 -0.01545,-0.01209 -0.01545,-0.03288 -0.03089,-0.04153 -0.03604,-0.02423 -0.08067,-0.0086 -0.120138,-0.02077 -0.03776,-0.01034 -0.06522,-0.04499 -0.10812,-0.04499 h -0.0017 c -0.01716,0 -0.02918,0.0173 -0.04463,0.01903 -0.05492,0.007 -0.09439,0.03461 -0.142452,0.06058 -0.05149,0.02942 -0.09783,0.04846 -0.133866,0.09518 -0.01036,0.01385 -0.0309,0.01385 -0.03947,0.02942 l -0.08925,0.143633 c 0.181927,-1.458835 0.264309,-3.018041 0.161331,-4.585899 0,-0.0017 -0.0017,-0.0017 -0.0017,-0.0035 0,-0.0017 0.0017,-0.0035 0.0017,-0.007 -0.01036,-0.102105 -0.236849,-2.512728 -1.045229,-4.186149 -0.0034,-0.0069 0.0017,-0.01385 -0.0017,-0.0225 -0.0086,-0.01558 -0.07208,-0.140172 -0.18536,-0.3288 0.475417,-1.079849 1.058961,-2.75327 0.40848,-3.371069 -0.332962,-0.314956 -0.839273,-0.285538 -1.503483,0.07787 -0.01545,0.0087 -0.01545,0.02769 -0.02918,0.03634 -0.324337,-0.328711 -0.50455,-0.569254 -0.538876,-0.624631 -0.06179,-0.202472 -0.255729,-0.697403 -0.786068,-1.0158205 -0.423927,-0.2543874 -0.947399,-0.2941901 -1.541242,-0.1557478 -0.0017,0 -0.0035,-0.00174 -0.0051,-0.00174 -0.137304,0 -0.240282,-0.017305 -0.351842,-0.03115 L 16.17518,7.3139069 c 0.0051,0.00346 0.01036,0.00174 0.01373,0.0052 0.02231,0.019036 0.02574,0.050185 0.05149,0.06403 0.06522,0.03461 0.133865,0.051916 0.202524,0.051916 0.09268,0 0.178496,-0.038071 0.252297,-0.095179 0.0086,-0.00692 0.02231,-0.00346 0.03261,-0.012115 0.01373,-0.012115 0.01036,-0.03115 0.02231,-0.043263 0.02402,-0.025958 0.05492,-0.043264 0.07208,-0.076144 0.0069,-0.013844 0.695104,-1.2909743 1.759213,-2.0783649 l 0.11843,0.6056851 c 0.0035,0.013844 0.01716,0.020766 0.02059,0.03288 0.0034,0.010383 -0.0051,0.022498 -0.0017,0.03288 0.01036,0.029419 0.04119,0.038071 0.05835,0.064029 0.03604,0.058838 0.0738,0.1090241 0.133865,0.143634 0.03604,0.020766 0.06522,0.027689 0.106412,0.038072 0.03604,0.010382 0.06522,0.036341 0.104689,0.036341 0.02747,0 0.05492,-0.00173 0.0841,-0.00865 0.01198,-0.00174 0.01888,-0.015575 0.0309,-0.020767 0.01198,-0.00346 0.02404,0.0052 0.03604,0.00174 1.187684,-0.4430151 2.141949,-0.3997519 2.831904,0.1228679 1.83473,1.3861534 1.565269,5.620757 1.563554,5.66229 0,0.0052 0.0051,0.0086 0.0051,0.01558 0,0.0069 -0.0069,0.0086 -0.0069,0.01557 0.0069,3.966371 0.516607,6.44968 0.926804,8.44498 0.396468,1.938192 0.710551,3.473171 0.461687,5.629409 -0.216255,1.176759 -0.777486,2.021257 -1.141344,2.469464 -1.748914,-2.469464 -1.807269,-4.392081 -1.807269,-4.411117 -0.0034,-0.02423 -0.02059,-0.03635 -0.02231,-0.05191 z"
       id="path237"
       style="fill:#ffffff;stroke-width:1.72340226"
       inkscape:connector-curvature="0"
       sodipodi:nodetypes="ccccssccccccccccccccccccccccccscccssscccccsccccccsccccccccsccsccscccccccscccccccccccscsccccccccccccccccccccccccccccccccccccccscccccccccccscccccccsssccsccccccccccsccccccccccccccccccccccscssccsssssccccccssccccccccssssccsccccscccccssscccccccssccccccccccccssccccccsccccccccccsccccscccccccccscscccccscccccc" />
    <path
       sodipodi:type="star"
       style="fill:#ffffff;stroke-width:0.06691027"
       id="path97"
       sodipodi:sides="8"
       sodipodi:cx="23"
       sodipodi:cy="9"
       sodipodi:r1="9.0011702"
       sodipodi:r2="4.5005851"
       sodipodi:arg1="-0.016127634"
       sodipodi:arg2="0.37657145"
       inkscape:flatsided="false"
       inkscape:rounded="0"
       inkscape:randomized="0"
       d="M 32,8.8548387 27.185233,10.65502 29.466605,15.261316 24.789131,13.129682 23.145161,18 21.34498,13.185233 16.738684,15.466605 18.870318,10.789131 14,9.1451613 18.814767,7.3449804 16.533395,2.7386838 21.210869,4.8703177 22.854839,4.2102348e-7 24.65502,4.8147669 29.261316,2.5333947 27.129682,7.2108689 Z" />
  </g>
</svg>
