<?xml version="1.0" encoding="UTF-8" standalone="no"?>
<!-- Created with Inkscape (http://www.inkscape.org/) -->

<svg
   xmlns:dc="http://purl.org/dc/elements/1.1/"
   xmlns:cc="http://creativecommons.org/ns#"
   xmlns:rdf="http://www.w3.org/1999/02/22-rdf-syntax-ns#"
   xmlns:svg="http://www.w3.org/2000/svg"
   xmlns="http://www.w3.org/2000/svg"
   xmlns:sodipodi="http://sodipodi.sourceforge.net/DTD/sodipodi-0.dtd"
   xmlns:inkscape="http://www.inkscape.org/namespaces/inkscape"
   width="32px"
   height="32px"
   viewBox="0 0 32 32"
   version="1.1"
   id="SVGRoot"
   inkscape:version="0.92.1 r15371"
   sodipodi:docname="anime.svg">
  <sodipodi:namedview
     id="base"
     pagecolor="#ffffff"
     bordercolor="#666666"
     borderopacity="1.0"
     inkscape:pageopacity="0.0"
     inkscape:pageshadow="2"
     inkscape:zoom="8"
     inkscape:cx="-5.3125"
     inkscape:cy="16"
     inkscape:document-units="px"
     inkscape:current-layer="layer1"
     showgrid="false"
     inkscape:window-width="1920"
     inkscape:window-height="1017"
     inkscape:window-x="1016"
     inkscape:window-y="-8"
     inkscape:window-maximized="1"
     inkscape:grid-bbox="true" />
  <defs
     id="defs371" />
  <metadata
     id="metadata374">
    <rdf:RDF>
      <cc:Work
         rdf:about="">
        <dc:format>image/svg+xml</dc:format>
        <dc:type
           rdf:resource="http://purl.org/dc/dcmitype/StillImage" />
        <dc:title />
      </cc:Work>
    </rdf:RDF>
  </metadata>
  <g
     id="layer1"
     inkscape:groupmode="layer"
     inkscape:label="Ebene 1">
    <path
       d="m 12.906809,27.715431 c -0.09837,0.104893 -0.691756,0.302573 -1.405527,0.2824 -0.494582,-0.01023 -0.901581,-0.121029 -1.04115,-0.286433 -0.159234,-0.185577 -0.449619,-0.217852 -0.6524152,-0.07263 -0.2013916,0.145232 -0.2388604,0.418757 -0.07962,0.607562 0.4496202,0.534945 1.3441762,0.616035 1.8462502,0.616035 0.0052,0 0.0109,0 0.0167,0 0.70815,-0.0016 1.669679,-0.165406 2.046702,-0.618052 0.154554,-0.185578 0.117094,-0.442965 -0.07958,-0.59183 -0.192024,-0.145233 -0.485216,-0.12103 -0.652419,0.0605 z"
       id="path235"
       style="fill:#ffffff;stroke-width:1.79377747"
       inkscape:connector-curvature="0" />
    <path
       d="M 24.513692,11.867168 C 24.537731,11.504083 24.768765,7.1146162 22.610593,5.4808106 21.776636,4.8490411 20.702307,4.7433427 19.444236,5.1056218 L 19.292929,4.3423345 c -0.0048,-0.02247 -0.02746,-0.031146 -0.03429,-0.052445 -0.0068,-0.020776 0.0048,-0.040344 -0.0048,-0.060513 -0.01712,-0.034614 -0.05621,-0.039819 -0.07783,-0.068583 -0.03773,-0.048412 -0.07346,-0.084719 -0.125374,-0.1089258 -0.05189,-0.024245 -0.09512,-0.027676 -0.151307,-0.031145 -0.03609,0 -0.06486,-0.027716 -0.108095,-0.019043 -0.02229,0.00342 -0.03092,0.02594 -0.05189,0.034614 -0.02055,0.00692 -0.04118,-0.0052 -0.06053,0.00516 -1.08819,0.5643963 -1.889291,1.6044357 -2.303026,2.2341881 L 16.202647,6.082 C 16.166567,6.043916 16.116207,6.042182 16.072951,6.017453 16.031721,5.993247 15.999501,5.94887 15.947574,5.940802 c -0.0084,0 -0.01365,0.00516 -0.02227,0.00516 -0.05621,-0.00692 -0.108085,0.022512 -0.164285,0.039818 -0.05189,0.015572 -0.108084,0.017307 -0.151306,0.052446 -0.0048,0.00348 -0.01364,0.00172 -0.01878,0.00516 -0.03608,0.032921 -0.03608,0.080685 -0.05622,0.1210287 -0.02752,0.044378 -0.07349,0.076651 -0.08216,0.1331318 l -0.490741,3.1410986 c -0.0326,-0.020785 -0.06053,-0.044369 -0.06486,-0.048408 -0.02574,-0.024242 -0.0605,-0.017295 -0.08644,-0.034612 -0.02751,-0.015572 -0.03608,-0.048408 -0.06486,-0.060512 -0.02574,-0.00872 -0.05189,0.00689 -0.07349,0.00355 -0.05622,-0.010338 -0.108084,-0.00517 -0.164284,0.00689 -0.05189,0.012148 -0.0908,0.02772 -0.13402,0.060512 -0.02391,0.015572 -0.05622,0.010339 -0.07349,0.032879 -0.02391,0.024252 -0.0188,0.060523 -0.03609,0.08876 -0.01709,0.027666 -0.05189,0.036346 -0.06053,0.068578 L 13.731646,10.8872 c -0.837396,-0.125061 -1.796728,-0.213816 -2.927693,-0.221885 -0.0048,0 -0.0085,-0.0069 -0.01542,-0.0069 -0.02575,0 -0.04325,0.0017 -0.07349,0.0017 -0.02575,0 -0.04325,-0.0017 -0.06919,-0.0017 -0.0067,0 -0.01006,0.0052 -0.01542,0.0069 -5.4160949,0.03117 -7.2798096,1.789625 -7.3295703,1.83965 -1.5360547,1.268784 -2.1707095,2.537164 -2.2001076,2.59445 0,0 -0.0017,0 -0.0017,0.0017 -0.81709621,1.677055 -1.04320273,4.10876 -1.05357851,4.210869 0,0.0017 0.001733,0.0034 0.001733,0.0052 0,0.0017 -0.001733,0.0017 -0.001733,0.0034 -0.40638919,6.13712 2.04230591,12.154867 2.14865831,12.40931 0.010302,0.02589 0.036056,0.03804 0.05188,0.06051 0.018893,0.02945 0.036055,0.04841 0.0562,0.07261 0.0562,0.05647 0.125375,0.09279 0.1988702,0.10892 0.018893,0.0036 0.027453,0.02239 0.043232,0.02429 0.013748,0 0.027453,0.0017 0.039475,0.0017 0.0562,0 0.1080821,-0.01023 0.1642841,-0.03288 0.023949,-0.01034 0.029179,-0.03636 0.047557,-0.04841 0.051878,-0.03292 0.086467,-0.07263 0.1210515,-0.12103 0.02918,-0.04035 0.05188,-0.07663 0.064848,-0.125061 0.00511,-0.02239 0.029178,-0.03636 0.03087,-0.06051 l 0.069172,-2.046594 c 13.7297233,4.240723 15.4250043,-3.210487 15.1089723,1.856579 0.259396,-1.084821 0.259396,-0.16944 0.268041,-0.145234 0.01365,0.04841 0.02323,0.48129 0.05189,0.522843 0.03427,0.05245 0.06486,0.08875 0.116728,0.12103 0.02229,0.01375 0.02751,0.03981 0.05189,0.04841 0.05189,0.02238 0.108085,0.03287 0.164282,0.03287 0.01364,0 0.02746,0 0.04118,-0.0017 0.0188,-0.0017 0.02915,-0.02076 0.04756,-0.0259 0.07345,-0.01727 0.142664,-0.04841 0.19887,-0.10892 0.02391,-0.02429 0.03944,-0.04437 0.05622,-0.07263 0.01543,-0.02239 0.03944,-0.0346 0.05189,-0.06051 0.06486,-0.153303 0.995217,-2.452445 1.621656,-5.611009 l 0.571535,-0.920625 c 0.23778,0.979526 0.78597,2.462932 2.097215,4.158947 0.0031,0.0036 0.0099,0.0017 0.01364,0.0052 0.0033,0.0052 0,0.01213 0.0048,0.01727 0.08644,0.09683 0.203193,0.145233 0.319922,0.145233 0.09081,0 0.181577,-0.02937 0.263718,-0.0928 0.0032,-0.0036 0.0032,-0.0086 0.0068,-0.01213 0.0048,-0.0036 0.0099,-0.0017 0.01543,-0.0052 0.05622,-0.04841 1.36442,-1.240947 1.745301,-3.335145 0.0016,-0.0052 -0.0031,-0.0086 -0.0031,-0.01375 0.0016,-0.0052 0.0068,-0.0071 0.0068,-0.01213 0.272369,-2.307211 -0.07347,-3.984262 -0.470368,-5.924271 -0.423705,-2.056375 -0.904453,-4.390977 -0.911367,-8.26607 z m -9.682331,-1.529802 c 0.0275,0.01212 0.06919,0.02076 0.09942,0.03288 0.06486,0.10892 0.159962,0.193646 0.289657,0.213818 0.02391,0.0034 0.04325,0.0052 0.06486,0.0052 0.06919,0 0.125375,-0.03808 0.185901,-0.06858 0.198872,0.03631 0.415035,0.06858 0.674428,0.06858 0.02221,0 0.03425,-0.01908 0.05189,-0.02252 0.02227,-0.0017 0.03778,0.01384 0.06053,0.0069 0.406385,-0.112958 0.743167,-0.09683 0.986568,0.04841 0.324246,0.193646 0.423679,0.571255 0.423679,0.571255 0.0068,0.02941 0.03259,0.04437 0.0429,0.06858 0.0084,0.02077 -0.0016,0.04437 0.01008,0.06051 0.01712,0.02941 0.419359,0.633385 1.239051,1.309935 l -0.367532,0.290475 c -0.13834,-0.129093 -0.281011,-0.25416 -0.43751,-0.387293 -0.05623,-0.05246 -1.048393,-0.964194 -3.576202,-1.49551 z m 4.374404,3.202016 0.648491,-0.512355 c -0.07346,0.278365 -0.181579,0.593443 -0.306951,0.91538 -0.09941,-0.129092 -0.216164,-0.262229 -0.34154,-0.403429 z m 0.732793,-1.204639 c -0.01712,-0.01552 -0.01712,-0.04035 -0.03608,-0.05649 -0.07346,-0.04841 -0.121051,-0.09683 -0.185901,-0.149271 0.142665,-0.0565 0.237782,-0.08472 0.242103,-0.09278 0.03258,0.06051 0.03258,0.181543 0.02056,0.318709 -0.01195,-0.01212 -0.02915,-0.01212 -0.04123,-0.02252 z M 0.89476569,19.396116 v 0 c 0.00174,-0.02427 0.22481001,-2.377806 0.96970771,-3.908012 v -0.0017 c 0.015428,-0.02946 0.5970424,-1.171561 1.9990756,-2.329403 0.018844,-0.01557 1.7625933,-1.612907 6.847313,-1.628641 5.091761,0.01556 6.831874,1.61291 6.876492,1.652847 1.329832,1.095714 1.908287,2.191023 1.959733,2.289862 0.0031,0.0069 -0.0016,0.01213 0.0016,0.01917 0.748356,1.529802 0.969706,3.883808 0.971436,3.908014 v 0 c 0.259396,3.954813 -0.741438,7.940569 -1.443105,10.180122 l -0.877115,-9.167593 c -0.0048,-0.04437 -0.0394,-0.07261 -0.05621,-0.10892 -0.02056,-0.04841 -0.03259,-0.08875 -0.06486,-0.129094 -0.03946,-0.04437 -0.09082,-0.06454 -0.146985,-0.08875 -0.03608,-0.01565 -0.05622,-0.05245 -0.09514,-0.06051 -0.01876,-0.0017 -0.03425,0.01375 -0.05189,0.01375 -0.02225,0 -0.03426,-0.01917 -0.05623,-0.01727 -0.04325,0.0034 -0.06919,0.04035 -0.108084,0.06051 -0.04754,0.01917 -0.08644,0.03288 -0.125375,0.06858 -0.04325,0.03981 -0.06486,0.08875 -0.09081,0.145235 -0.0171,0.0346 -0.05189,0.0565 -0.05621,0.09279 l -0.415012,2.706996 -1.23213,-5.721791 c -0.0084,-0.03808 -0.04288,-0.05649 -0.06051,-0.08875 -0.02914,-0.05647 -0.05189,-0.100854 -0.0994,-0.137163 -0.04123,-0.03631 -0.08645,-0.04841 -0.138342,-0.06454 -0.03609,-0.01375 -0.06053,-0.04841 -0.103762,-0.04841 -0.02225,-0.0036 -0.03608,0.01917 -0.05623,0.01917 -0.02056,0 -0.03609,-0.01375 -0.05189,-0.01023 -0.0326,0.0069 -0.04755,0.03804 -0.07349,0.05245 -0.06053,0.02768 -0.108084,0.04841 -0.155632,0.104892 -0.03429,0.04035 -0.04293,0.08471 -0.06051,0.133126 -0.01365,0.03804 -0.04755,0.06858 -0.05189,0.10892 l -0.159959,3.342 -1.266715,-2.24145 c 0.159957,-0.572869 0.259393,-1.123146 0.259393,-1.62017 0,-0.238023 -0.190222,-0.432879 -0.428003,-0.432879 -0.237777,0 -0.428002,0.193646 -0.428002,0.432879 0,1.744425 -1.422783,4.399512 -2.325481,5.908698 -0.133982,-1.948963 -0.5818732,-5.379077 -2.1209543,-6.651168 -0.1815764,-0.149269 -0.451349,-0.125062 -0.6022299,0.06051 -0.1513083,0.185575 -0.1253751,0.458697 0.06053,0.609176 0.2421029,0.201714 0.4461608,0.505495 0.6316282,0.844377 l -1.7504217,3.09465 -0.1642842,-3.347248 c -0.00349,-0.05245 -0.037786,-0.08875 -0.056202,-0.137166 -0.013667,-0.03119 -0.015412,-0.0605 -0.036008,-0.08875 C 6.4214011,17.150693 6.358837,17.118407 6.281026,17.09017 6.255253,17.079939 6.24324,17.050388 6.216177,17.0458 6.197379,17.0424 6.181854,17.05603 6.164295,17.0544 6.14035,17.0544 6.129972,17.03201 6.103765,17.03523 6.060831,17.03693 6.034595,17.07159 6,17.08364 c -0.051881,0.01727 -0.095123,0.03115 -0.1383419,0.06455 -0.043237,0.03981 -0.064847,0.08471 -0.09078,0.137166 -0.018798,0.0346 -0.051882,0.04841 -0.06053,0.08875 l -1.2251938,5.725171 -0.419355,-2.710234 c -0.00686,-0.04035 -0.042889,-0.06051 -0.056202,-0.09683 -0.023945,-0.05246 -0.043237,-0.100853 -0.08646,-0.141201 -0.041204,-0.03636 -0.082139,-0.04841 -0.1340193,-0.07263 -0.039426,-0.01565 -0.06485,-0.05245 -0.1080865,-0.05648 -0.020531,-0.0017 -0.034323,0.01565 -0.051883,0.01727 -0.018798,0 -0.034294,-0.01562 -0.051882,-0.01375 -0.041156,0.0071 -0.06053,0.04437 -0.099445,0.06052 -0.051877,0.02239 -0.099435,0.04035 -0.1383463,0.08471 -0.036055,0.03982 -0.051878,0.08471 -0.069172,0.137165 -0.015394,0.03808 -0.051878,0.06051 -0.0562,0.104893 L 2.3425355,29.580091 C 1.638713,27.342335 0.63658082,23.358191 0.89424699,19.400032 Z M 14.682077,22.502922 c 0.01008,0.01917 0.0309,0.0259 0.04118,0.04035 0.01712,0.02239 0.03258,0.03631 0.05189,0.05245 0.06919,0.06051 0.146986,0.100853 0.237778,0.10892 0.0084,0 0.01363,0.0086 0.02227,0.01023 h 0.02052 c 0.0171,0 0.03263,-0.01023 0.04756,-0.01213 -0.151311,0.181542 -0.371802,0.302571 -0.622983,0.302571 -0.459995,0 -0.832229,-0.375188 -0.832229,-0.834289 0,-0.314676 0.181579,-0.583358 0.442703,-0.724962 z M 7.9153957,21.426575 c 0.4565371,0 0.8235809,0.375188 0.8235809,0.835906 0,0.46031 -0.367476,0.837516 -0.8235809,0.837516 -0.459995,0 -0.828768,-0.379223 -0.828768,-0.837516 0,-0.463943 0.3674764,-0.835906 0.828768,-0.835906 z m -4.5991711,6.980044 0.4236797,-4.487782 0.2507486,1.611294 c 0.00509,0.03636 0.036008,0.0565 0.047562,0.08875 0.018798,0.04437 0.034323,0.07666 0.064847,0.112968 0.041202,0.04841 0.090779,0.07667 0.1513083,0.104892 0.029189,0.01213 0.041155,0.04437 0.073494,0.04841 0.030877,0.007 0.06053,0.01023 0.09078,0.01023 0.022212,0 0.042889,-0.0017 0.064848,-0.0052 0.029171,-0.0052 0.042934,-0.03288 0.06917,-0.04437 0.064848,-0.02239 0.1167309,-0.04841 0.1642845,-0.100854 0.030909,-0.03288 0.042934,-0.06454 0.064847,-0.104892 0.015411,-0.03115 0.043237,-0.05245 0.051883,-0.08875 l 1.0246121,-4.787204 0.073494,1.540292 c 0,0.0086 0.010173,0.01565 0.011921,0.02428 -0.1513081,0.330812 -0.2550723,0.695914 -0.2550723,1.104185 0,1.270396 0.810179,2.29309 1.8157704,2.29309 0.9969437,0 1.8157693,-1.022694 1.8157693,-2.29309 0,-1.263537 -0.8183933,-2.291476 -1.8157693,-2.291476 h -0.00349 l 1.3951122,-2.460915 c 0.6281711,1.858597 0.804993,4.401208 0.804993,5.543513 0,0.01562 0.015417,0.02424 0.017085,0.03804 0.00497,0.05649 0.034355,0.09683 0.060539,0.149269 0.027451,0.04841 0.042889,0.09683 0.08647,0.133124 0.010194,0.0086 0.010194,0.0259 0.0222,0.0346 0.0735,0.05243 0.1599599,0.07665 0.2421019,0.07665 0.09944,0 0.190224,-0.04841 0.268041,-0.112968 0.01543,-0.01375 0.03092,-0.02424 0.04294,-0.03978 0.01195,-0.01375 0.03092,-0.02077 0.03944,-0.03636 0.0908,-0.137165 1.673101,-2.483508 2.577527,-4.835658 l 0.828768,1.467675 c -0.914801,0.112956 -1.638947,1.06263 -1.638947,2.249918 0,1.266769 0.811912,2.295109 1.812312,2.295109 1.007319,0 1.815768,-1.027937 1.815768,-2.295109 0,-0.510738 -0.15996,-0.960561 -0.384767,-1.341398 l 0.06053,-1.246193 1.029802,4.788942 c 0.0085,0.03636 0.03777,0.0565 0.05189,0.08875 0.02055,0.03981 0.03429,0.07261 0.06486,0.104892 0.04325,0.04841 0.09943,0.07667 0.164283,0.100854 0.02747,0.01023 0.04118,0.03808 0.06919,0.04437 0.02228,0.0034 0.04293,0.0052 0.06486,0.0052 0.03092,0 0.06051,-0.0034 0.0908,-0.01023 0.03092,-0.0071 0.04325,-0.03808 0.07349,-0.04841 0.06052,-0.02589 0.108085,-0.05245 0.15131,-0.104892 0.0309,-0.03636 0.04325,-0.07261 0.06486,-0.112957 0.01361,-0.03288 0.04292,-0.05245 0.04756,-0.08875 l 0.246429,-1.599194 0.442699,4.621037 C 15.130378,30.804117 5.9868971,30.715765 3.3097601,28.405329 Z M 22.076801,23.955185 c -0.0068,-0.05648 -0.03603,-0.09683 -0.06053,-0.149269 -0.02911,-0.04841 -0.04755,-0.0928 -0.09079,-0.129092 -0.01543,-0.01212 -0.01543,-0.03293 -0.03092,-0.04035 -0.03609,-0.02427 -0.08216,-0.0086 -0.121056,-0.02077 -0.03772,-0.01023 -0.06486,-0.04437 -0.108084,-0.04437 h -0.0016 c -0.01713,0 -0.02916,0.01727 -0.04325,0.01917 -0.05623,0.0071 -0.09511,0.0346 -0.142662,0.06051 -0.05189,0.02945 -0.09939,0.04841 -0.134021,0.09683 -0.01008,0.01375 -0.03092,0.01375 -0.03944,0.0294 l -0.0908,0.145234 c 0.181579,-1.459202 0.263718,-3.018453 0.159961,-4.586421 0,-0.0017 -0.0016,-0.0017 -0.0016,-0.0036 0,-0.0017 0.0016,-0.0034 0.0016,-0.0071 -0.01008,-0.100854 -0.23778,-2.512957 -1.044933,-4.18662 -0.0031,-0.0071 0.0016,-0.01375 -0.0016,-0.02239 -0.0084,-0.01565 -0.07347,-0.141201 -0.1859,-0.330812 0.47556,-1.079979 1.058766,-2.753805 0.406386,-3.371453 -0.332891,-0.314675 -0.839144,-0.286437 -1.503196,0.07663 -0.01543,0.0087 -0.01543,0.02768 -0.02915,0.03636 -0.324311,-0.330738 -0.50459,-0.569165 -0.538742,-0.624837 -0.06053,-0.201716 -0.255074,-0.69753 -0.785971,-1.0158341 -0.42368,-0.2541614 -0.947226,-0.294504 -1.541241,-0.1573374 -0.0016,0 -0.0031,-0.00172 -0.0048,-0.00172 -0.13834,0 -0.242101,-0.017285 -0.350183,-0.031155 l 0.371856,-2.3829768 c 0.0048,0.0035 0.0099,0.00176 0.01364,0.00526 0.02227,0.01904 0.02577,0.048416 0.05189,0.064552 0.06486,0.034616 0.134019,0.052442 0.203192,0.052442 0.0908,0 0.177256,-0.03808 0.250752,-0.096822 0.0084,-0.00688 0.02228,-0.0035 0.03264,-0.012145 0.01362,-0.01211 0.0099,-0.03115 0.02224,-0.04438 0.02391,-0.025982 0.05622,-0.04438 0.07349,-0.07665 0.0068,-0.013836 0.695181,-1.2909717 1.759135,-2.0784649 l 0.11673,0.6055553 c 0.0032,0.013836 0.01713,0.020776 0.02056,0.032881 0.0033,0.01036 -0.0048,0.022512 -0.0016,0.03288 0.01008,0.029411 0.04123,0.038084 0.05621,0.064549 0.03609,0.060514 0.07348,0.1089258 0.134018,0.1452345 0.03608,0.020776 0.06486,0.027716 0.108085,0.038084 0.03608,0.01036 0.06486,0.036348 0.103761,0.036348 0.02746,0 0.05622,-0.00172 0.08216,-0.00867 0.01195,-0.00172 0.01876,-0.015572 0.0309,-0.020776 0.01193,-0.00342 0.02391,0.0052 0.03609,0.00172 1.187598,-0.4429646 2.141742,-0.3993944 2.831735,0.1210291 1.834359,1.386182 1.565021,5.6214163 1.563291,5.6629293 0,0.0052 0.0048,0.0087 0.0048,0.01556 0,0.0069 -0.0068,0.0087 -0.0068,0.01556 0.0068,3.966915 0.51663,6.450421 0.92691,8.445941 0.397738,1.938476 0.710312,3.473523 0.461723,5.630051 -0.216164,1.176803 -0.777323,2.021582 -1.141342,2.469793 -1.748759,-2.469793 -1.807122,-4.392576 -1.807122,-4.411615 -0.0031,-0.02427 -0.02056,-0.03636 -0.02228,-0.05246 z"
       id="path237"
       style="fill:#ffffff;stroke-width:1.72340739"
       inkscape:connector-curvature="0"
       sodipodi:nodetypes="ccccssccccccccccccccccccccccccscccssscccccsccccccsccccccccsccsccscccccccscccccccccccscsccccccccccccccccccccccccccccccccccccccscccccccccccscccccccsssccsccccccccccsccccccccccccccccccccccscssccsssssccccccssccccccccssssccsccccscccccssscccccccssccccccccccccssccccccsccccccccccsccccscccccccccscscccccscccccc" />
  </g>
</svg>
