<?xml version="1.0" encoding="UTF-8" standalone="no"?>
<!-- Created with Inkscape (http://www.inkscape.org/) -->

<svg
   xmlns:dc="http://purl.org/dc/elements/1.1/"
   xmlns:cc="http://creativecommons.org/ns#"
   xmlns:rdf="http://www.w3.org/1999/02/22-rdf-syntax-ns#"
   xmlns:svg="http://www.w3.org/2000/svg"
   xmlns="http://www.w3.org/2000/svg"
   xmlns:sodipodi="http://sodipodi.sourceforge.net/DTD/sodipodi-0.dtd"
   xmlns:inkscape="http://www.inkscape.org/namespaces/inkscape"
   width="210mm"
   height="297mm"
   viewBox="0 0 210 297"
   version="1.1"
   id="svg5225"
   inkscape:version="0.92.1 r15371"
   sodipodi:docname="login.svg">
  <defs
     id="defs5219">
    <inkscape:perspective
       sodipodi:type="inkscape:persp3d"
       inkscape:vp_x="-15.119048 : 184.05068 : 1"
       inkscape:vp_y="0 : 1286.7899 : 0"
       inkscape:vp_z="219.07143 : 196.14592 : 1"
       inkscape:persp3d-origin="86.857139 : 119.59863 : 1"
       id="perspective5227" />
  </defs>
  <sodipodi:namedview
     id="base"
     pagecolor="#ffffff"
     bordercolor="#666666"
     borderopacity="1.0"
     inkscape:pageopacity="0.0"
     inkscape:pageshadow="2"
     inkscape:zoom="0.35"
     inkscape:cx="-87.142857"
     inkscape:cy="560"
     inkscape:document-units="mm"
     inkscape:current-layer="layer1"
     showgrid="false"
     inkscape:window-width="1920"
     inkscape:window-height="1017"
     inkscape:window-x="1016"
     inkscape:window-y="-8"
     inkscape:window-maximized="1" />
  <metadata
     id="metadata5222">
    <rdf:RDF>
      <cc:Work
         rdf:about="">
        <dc:format>image/svg+xml</dc:format>
        <dc:type
           rdf:resource="http://purl.org/dc/dcmitype/StillImage" />
        <dc:title></dc:title>
      </cc:Work>
    </rdf:RDF>
  </metadata>
  <g
     inkscape:label="Ebene 1"
     inkscape:groupmode="layer"
     id="layer1">
    <g
       sodipodi:type="inkscape:box3d"
       id="g5266"
       style="fill:#ffffff"
       inkscape:perspectiveID="#perspective5227"
       inkscape:corner0="1.6328323 : 0.26387929 : 0 : 1"
       inkscape:corner7="1.6259001 : -0.30369502 : 1.1981995 : 1">
      <path
         sodipodi:type="inkscape:box3dside"
         id="path5268"
         style="fill:#ffffff;fill-rule:evenodd;stroke:none;stroke-width:1.13436759;stroke-linejoin:round"
         inkscape:box3dsidetype="6"
         d="M 23.613456,8.4591351 V 285.85959 L 84.7452,227.99698 V 37.356724 Z"
         points="23.613456,285.85959 84.7452,227.99698 84.7452,37.356724 23.613456,8.4591351 " />
      <path
         sodipodi:type="inkscape:box3dside"
         id="path5276"
         style="fill:#ffffff;fill-rule:evenodd;stroke:none;stroke-width:1.13436759;stroke-linejoin:round"
         inkscape:box3dsidetype="13"
         d="m 23.613456,285.85959 0.102252,0.45647 61.210522,-58.11053 -0.18103,-0.20855 z"
         points="23.715708,286.31606 84.92623,228.20553 84.7452,227.99698 23.613456,285.85959 " />
      <path
         sodipodi:type="inkscape:box3dside"
         id="path5278"
         style="fill:#ffffff;fill-rule:evenodd;stroke:none;stroke-width:1.13436759;stroke-linejoin:round"
         inkscape:box3dsidetype="11"
         d="m 84.7452,37.356724 0.18103,-0.137031 V 228.20553 l -0.18103,-0.20855 z"
         points="84.92623,37.219693 84.92623,228.20553 84.7452,227.99698 84.7452,37.356724 " />
      <path
         sodipodi:type="inkscape:box3dside"
         id="path5270"
         style="fill:#ffffff;fill-rule:evenodd;stroke:none;stroke-width:1.13436759;stroke-linejoin:round"
         inkscape:box3dsidetype="5"
         d="M 23.613456,8.4591351 23.715708,8.1832881 84.92623,37.219693 84.7452,37.356724 Z"
         points="23.715708,8.1832881 84.92623,37.219693 84.7452,37.356724 23.613456,8.4591351 " />
      <path
         sodipodi:type="inkscape:box3dside"
         id="path5274"
         style="fill:#ffffff;fill-rule:evenodd;stroke:none;stroke-width:1.13436759;stroke-linejoin:round"
         inkscape:box3dsidetype="14"
         d="M 23.715708,8.1832881 V 286.31606 L 84.92623,228.20553 V 37.219693 Z"
         points="23.715708,286.31606 84.92623,228.20553 84.92623,37.219693 23.715708,8.1832881 " />
      <path
         sodipodi:type="inkscape:box3dside"
         id="path5272"
         style="fill:#ffffff;fill-rule:evenodd;stroke:none;stroke-width:1.13436759;stroke-linejoin:round"
         inkscape:box3dsidetype="3"
         d="m 23.613456,8.4591351 0.102252,-0.275847 V 286.31606 l -0.102252,-0.45647 z"
         points="23.715708,8.1832881 23.715708,286.31606 23.613456,285.85959 23.613456,8.4591351 " />
    </g>
    <rect
       style="fill:#ffffff;stroke-width:0.21394832"
       id="rect5296"
       width="85.323059"
       height="43.003521"
       x="117.07303"
       y="120.10714" />
    <g
       sodipodi:type="inkscape:box3d"
       id="g5312"
       style="fill:#000000"
       inkscape:perspectiveID="#perspective5227"
       inkscape:corner0="-0.22346403 : 0.019685454 : 0 : 1"
       inkscape:corner7="-0.22346404 : 0.019685453 : 0.25 : 1">
      <path
         sodipodi:type="inkscape:box3dside"
         id="path5314"
         style="fill:#353564;fill-rule:evenodd;stroke:none;stroke-linejoin:round"
         inkscape:box3dsidetype="6"
         d="m 116.20286,163.3282 v 0 l 25.05236,-15.21479 v 0 z"
         points="116.20286,163.3282 141.25522,148.11341 141.25522,148.11341 116.20286,163.3282 " />
      <path
         sodipodi:type="inkscape:box3dside"
         id="path5322"
         style="fill:#afafde;fill-rule:evenodd;stroke:none;stroke-linejoin:round"
         inkscape:box3dsidetype="13"
         d="m 116.20286,163.3282 1e-5,0 25.05235,-15.21479 0,0 z"
         points="116.20287,163.3282 141.25522,148.11341 141.25522,148.11341 116.20286,163.3282 " />
      <path
         sodipodi:type="inkscape:box3dside"
         id="path5324"
         style="fill:#e9e9ff;fill-rule:evenodd;stroke:none;stroke-linejoin:round"
         inkscape:box3dsidetype="11"
         d="m 141.25522,148.11341 0,0 v 0 l 0,0 z"
         points="141.25522,148.11341 141.25522,148.11341 141.25522,148.11341 141.25522,148.11341 " />
      <path
         sodipodi:type="inkscape:box3dside"
         id="path5316"
         style="fill:#4d4d9f;fill-rule:evenodd;stroke:none;stroke-linejoin:round"
         inkscape:box3dsidetype="5"
         d="m 116.20286,163.3282 1e-5,0 25.05235,-15.21479 0,0 z"
         points="116.20287,163.3282 141.25522,148.11341 141.25522,148.11341 116.20286,163.3282 " />
      <path
         sodipodi:type="inkscape:box3dside"
         id="path5320"
         style="fill:#d7d7ff;fill-rule:evenodd;stroke:none;stroke-linejoin:round"
         inkscape:box3dsidetype="14"
         d="m 116.20287,163.3282 v 0 l 25.05235,-15.21479 v 0 z"
         points="116.20287,163.3282 141.25522,148.11341 141.25522,148.11341 116.20287,163.3282 " />
      <path
         sodipodi:type="inkscape:box3dside"
         id="path5318"
         style="fill:#8686bf;fill-rule:evenodd;stroke:none;stroke-linejoin:round"
         inkscape:box3dsidetype="3"
         d="m 116.20286,163.3282 1e-5,0 v 0 l -1e-5,0 z"
         points="116.20287,163.3282 116.20287,163.3282 116.20286,163.3282 116.20286,163.3282 " />
    </g>
    <path
       sodipodi:type="star"
       style="fill:#ffffff;stroke-width:0.26458332"
       id="path5330"
       sodipodi:sides="3"
       sodipodi:cx="102.05357"
       sodipodi:cy="142.02975"
       sodipodi:r1="46.038681"
       sodipodi:r2="23.494696"
       sodipodi:arg1="1.0557235"
       sodipodi:arg2="2.2808696"
       inkscape:flatsided="false"
       inkscape:rounded="0"
       inkscape:randomized="0"
       d="M 124.73215,182.09523 86.737632,159.84611 56.016566,141.63724 94.282125,119.85758 125.41201,102.3568 l -0.27105,44.02877 z"
       inkscape:transform-center-x="4.924857"
       inkscape:transform-center-y="-4.4000273"
       transform="matrix(0.76034518,0,0,1,30.055592,0)" />
  </g>
</svg>
