<?xml version="1.0" encoding="UTF-8" standalone="no"?>
<!-- Created with Inkscape (http://www.inkscape.org/) -->

<svg
   xmlns:dc="http://purl.org/dc/elements/1.1/"
   xmlns:cc="http://creativecommons.org/ns#"
   xmlns:rdf="http://www.w3.org/1999/02/22-rdf-syntax-ns#"
   xmlns:svg="http://www.w3.org/2000/svg"
   xmlns="http://www.w3.org/2000/svg"
   xmlns:sodipodi="http://sodipodi.sourceforge.net/DTD/sodipodi-0.dtd"
   xmlns:inkscape="http://www.inkscape.org/namespaces/inkscape"
   width="32px"
   height="32px"
   viewBox="0 0 32 32"
   version="1.1"
   id="SVGRoot"
   inkscape:version="0.92.1 r15371"
   sodipodi:docname="manga.svg">
  <sodipodi:namedview
     id="base"
     pagecolor="#ffffff"
     bordercolor="#666666"
     borderopacity="1.0"
     inkscape:pageopacity="0.0"
     inkscape:pageshadow="2"
     inkscape:zoom="8"
     inkscape:cx="-5.3125"
     inkscape:cy="16"
     inkscape:document-units="px"
     inkscape:current-layer="layer1"
     showgrid="false"
     inkscape:window-width="1920"
     inkscape:window-height="1017"
     inkscape:window-x="1016"
     inkscape:window-y="-8"
     inkscape:window-maximized="1"
     inkscape:grid-bbox="true" />
  <defs
     id="defs420" />
  <metadata
     id="metadata423">
    <rdf:RDF>
      <cc:Work
         rdf:about="">
        <dc:format>image/svg+xml</dc:format>
        <dc:type
           rdf:resource="http://purl.org/dc/dcmitype/StillImage" />
        <dc:title />
      </cc:Work>
    </rdf:RDF>
  </metadata>
  <g
     id="layer1"
     inkscape:groupmode="layer"
     inkscape:label="Ebene 1">
    <g
       id="g410"
       style="fill:#ffffff"
       transform="matrix(0.86666667,0,0,0.86666667,0,6.000001)">
      <g
         id="g408"
         style="fill:#ffffff">
        <path
           inkscape:connector-curvature="0"
           d="m 5,15 h 8 c 0.552,0 1,-0.447 1,-1 V 10 C 14,9.447 13.552,9 13,9 H 5 C 4.448,9 4,9.447 4,10 v 4 c 0,0.553 0.448,1 1,1 z m 1,-4 h 6 v 2 H 6 Z M 5,27 h 8 c 0.552,0 1,-0.447 1,-1 v -4 c 0,-0.553 -0.448,-1 -1,-1 H 5 c -0.552,0 -1,0.447 -1,1 v 4 c 0,0.553 0.448,1 1,1 z m 1,-4 h 6 v 2 H 6 Z M 29.959,0.797 C 29.863,0.346 29.48,0 29,0 28.849,0 28.678,0.039 28.55,0.099 L 16.788,5 H 1 C 0.448,5 0,5.447 0,6 v 23 c 0,0.553 0.448,1 1,1 h 15.951 c 0.15,0 0.289,-0.038 0.417,-0.098 0.001,0 0.001,-0.001 0.001,-0.001 l 12.13,-4.995 c 0,-0.021 0.028,-0.005 0.028,-0.026 C 29.824,24.706 30,24.367 30,24 V 1 C 30,0.929 29.985,0.861 29.959,0.797 Z M 15.951,28 H 2 V 7 H 15.951 Z M 28,23.25 17.951,27.688 V 6.75 L 28,2.562 Z m -7.974,-9.12 c 0.037,0.268 0.173,0.496 0.378,0.652 0.006,0.005 0.013,0.009 0.02,0.014 0.093,0.067 0.194,0.118 0.308,0.15 0.023,0.007 0.047,0.009 0.071,0.014 C 20.869,14.974 20.93,15 21,15 l 0.045,-0.023 c 0.16,-0.005 0.32,-0.035 0.468,-0.12 l 3.811,-1.923 C 25.715,12.799 26,12.438 26,12 V 7 C 26,6.813 25.935,6.649 25.847,6.5 25.846,6.497 25.846,6.494 25.844,6.491 25.84,6.485 25.835,6.482 25.831,6.476 25.771,6.381 25.701,6.298 25.614,6.229 25.578,6.2 25.54,6.179 25.502,6.154 25.442,6.119 25.383,6.087 25.316,6.063 25.234,6.034 25.152,6.021 25.065,6.012 25.042,6.012 25.023,6 25,6 L 24.985,6.008 C 24.812,6.006 24.638,6.032 24.478,6.125 l -3.964,2 C 20.477,8.146 20.455,8.181 20.422,8.206 20.359,8.252 20.299,8.299 20.248,8.359 20.222,8.39 20.203,8.423 20.181,8.458 20.129,8.537 20.087,8.618 20.058,8.71 20.051,8.733 20.049,8.757 20.044,8.78 20.027,8.854 20,8.922 20,9 v 5 c 0,0.038 0.018,0.07 0.021,0.106 0.002,0.009 0.004,0.016 0.005,0.024 z M 22,9.611 24,8.602 v 2.873 l -2,1 z M 5,19 H 7 C 7.552,19 8,18.553 8,18 8,17.447 7.552,17 7,17 H 5 c -0.552,0 -1,0.447 -1,1 0,0.553 0.448,1 1,1 z m 8,-2 h -2 c -0.552,0 -1,0.447 -1,1 0,0.553 0.448,1 1,1 h 2 c 0.552,0 1,-0.447 1,-1 0,-0.553 -0.448,-1 -1,-1 z"
           id="path406"
           style="fill:#ffffff;fill-rule:evenodd" />
      </g>
    </g>
  </g>
</svg>
