<?xml version="1.0" encoding="UTF-8" standalone="no"?>
<!-- Generator: Adobe Illustrator 16.0.0, SVG Export Plug-In . SVG Version: 6.00 Build 0)  -->

<svg
   xmlns:rdf="http://www.w3.org/1999/02/22-rdf-syntax-ns#"
   xmlns:svg="http://www.w3.org/2000/svg"
   xmlns="http://www.w3.org/2000/svg"
   xmlns:sodipodi="http://sodipodi.sourceforge.net/DTD/sodipodi-0.dtd"
   xmlns:inkscape="http://www.inkscape.org/namespaces/inkscape"
   version="1.1"
   width="32px"
   height="32px"
   viewBox="0 0 32 32"
   enable-background="new 0 0 32 32"
   xml:space="preserve"
   sodipodi:docname="anime_follow.svg"
   inkscape:version="0.92.1 r15371">
	<g id="anime_svg">
            <g
                  id="layer1"
                  inkscape:groupmode="layer"
                  inkscape:label="Ebene 1">
                  <path
                        d="m 12.906809,27.715431 c -0.09837,0.104893 -0.691756,0.302573 -1.405527,0.2824 -0.494582,-0.01023 -0.901581,-0.121029 -1.04115,-0.286433 -0.159234,-0.185577 -0.449619,-0.217852 -0.6524152,-0.07263 -0.2013916,0.145232 -0.2388604,0.418757 -0.07962,0.607562 0.4496202,0.534945 1.3441762,0.616035 1.8462502,0.616035 0.0052,0 0.0109,0 0.0167,0 0.70815,-0.0016 1.669679,-0.165406 2.046702,-0.618052 0.154554,-0.185578 0.117094,-0.442965 -0.07958,-0.59183 -0.192024,-0.145233 -0.485216,-0.12103 -0.652419,0.0605 z"
                        id="path235"
                        style="fill:#ffffff;stroke-width:1.79377747"
                        inkscape:connector-curvature="0" />
                  <path
                        d="M 24.513692,11.867168 C 24.537731,11.504083 24.768765,7.1146162 22.610593,5.4808106 21.776636,4.8490411 20.702307,4.7433427 19.444236,5.1056218 L 19.292929,4.3423345 c -0.0048,-0.02247 -0.02746,-0.031146 -0.03429,-0.052445 -0.0068,-0.020776 0.0048,-0.040344 -0.0048,-0.060513 -0.01712,-0.034614 -0.05621,-0.039819 -0.07783,-0.068583 -0.03773,-0.048412 -0.07346,-0.084719 -0.125374,-0.1089258 -0.05189,-0.024245 -0.09512,-0.027676 -0.151307,-0.031145 -0.03609,0 -0.06486,-0.027716 -0.108095,-0.019043 -0.02229,0.00342 -0.03092,0.02594 -0.05189,0.034614 -0.02055,0.00692 -0.04118,-0.0052 -0.06053,0.00516 -1.08819,0.5643963 -1.889291,1.6044357 -2.303026,2.2341881 L 16.202647,6.082 C 16.166567,6.043916 16.116207,6.042182 16.072951,6.017453 16.031721,5.993247 15.999501,5.94887 15.947574,5.940802 c -0.0084,0 -0.01365,0.00516 -0.02227,0.00516 -0.05621,-0.00692 -0.108085,0.022512 -0.164285,0.039818 -0.05189,0.015572 -0.108084,0.017307 -0.151306,0.052446 -0.0048,0.00348 -0.01364,0.00172 -0.01878,0.00516 -0.03608,0.032921 -0.03608,0.080685 -0.05622,0.1210287 -0.02752,0.044378 -0.07349,0.076651 -0.08216,0.1331318 l -0.490741,3.1410986 c -0.0326,-0.020785 -0.06053,-0.044369 -0.06486,-0.048408 -0.02574,-0.024242 -0.0605,-0.017295 -0.08644,-0.034612 -0.02751,-0.015572 -0.03608,-0.048408 -0.06486,-0.060512 -0.02574,-0.00872 -0.05189,0.00689 -0.07349,0.00355 -0.05622,-0.010338 -0.108084,-0.00517 -0.164284,0.00689 -0.05189,0.012148 -0.0908,0.02772 -0.13402,0.060512 -0.02391,0.015572 -0.05622,0.010339 -0.07349,0.032879 -0.02391,0.024252 -0.0188,0.060523 -0.03609,0.08876 -0.01709,0.027666 -0.05189,0.036346 -0.06053,0.068578 L 13.731646,10.8872 c -0.837396,-0.125061 -1.796728,-0.213816 -2.927693,-0.221885 -0.0048,0 -0.0085,-0.0069 -0.01542,-0.0069 -0.02575,0 -0.04325,0.0017 -0.07349,0.0017 -0.02575,0 -0.04325,-0.0017 -0.06919,-0.0017 -0.0067,0 -0.01006,0.0052 -0.01542,0.0069 -5.4160949,0.03117 -7.2798096,1.789625 -7.3295703,1.83965 -1.5360547,1.268784 -2.1707095,2.537164 -2.2001076,2.59445 0,0 -0.0017,0 -0.0017,0.0017 -0.81709621,1.677055 -1.04320273,4.10876 -1.05357851,4.210869 0,0.0017 0.001733,0.0034 0.001733,0.0052 0,0.0017 -0.001733,0.0017 -0.001733,0.0034 -0.40638919,6.13712 2.04230591,12.154867 2.14865831,12.40931 0.010302,0.02589 0.036056,0.03804 0.05188,0.06051 0.018893,0.02945 0.036055,0.04841 0.0562,0.07261 0.0562,0.05647 0.125375,0.09279 0.1988702,0.10892 0.018893,0.0036 0.027453,0.02239 0.043232,0.02429 0.013748,0 0.027453,0.0017 0.039475,0.0017 0.0562,0 0.1080821,-0.01023 0.1642841,-0.03288 0.023949,-0.01034 0.029179,-0.03636 0.047557,-0.04841 0.051878,-0.03292 0.086467,-0.07263 0.1210515,-0.12103 0.02918,-0.04035 0.05188,-0.07663 0.064848,-0.125061 0.00511,-0.02239 0.029178,-0.03636 0.03087,-0.06051 l 0.069172,-2.046594 c 13.7297233,4.240723 15.4250043,-3.210487 15.1089723,1.856579 0.259396,-1.084821 0.259396,-0.16944 0.268041,-0.145234 0.01365,0.04841 0.02323,0.48129 0.05189,0.522843 0.03427,0.05245 0.06486,0.08875 0.116728,0.12103 0.02229,0.01375 0.02751,0.03981 0.05189,0.04841 0.05189,0.02238 0.108085,0.03287 0.164282,0.03287 0.01364,0 0.02746,0 0.04118,-0.0017 0.0188,-0.0017 0.02915,-0.02076 0.04756,-0.0259 0.07345,-0.01727 0.142664,-0.04841 0.19887,-0.10892 0.02391,-0.02429 0.03944,-0.04437 0.05622,-0.07263 0.01543,-0.02239 0.03944,-0.0346 0.05189,-0.06051 0.06486,-0.153303 0.995217,-2.452445 1.621656,-5.611009 l 0.571535,-0.920625 c 0.23778,0.979526 0.78597,2.462932 2.097215,4.158947 0.0031,0.0036 0.0099,0.0017 0.01364,0.0052 0.0033,0.0052 0,0.01213 0.0048,0.01727 0.08644,0.09683 0.203193,0.145233 0.319922,0.145233 0.09081,0 0.181577,-0.02937 0.263718,-0.0928 0.0032,-0.0036 0.0032,-0.0086 0.0068,-0.01213 0.0048,-0.0036 0.0099,-0.0017 0.01543,-0.0052 0.05622,-0.04841 1.36442,-1.240947 1.745301,-3.335145 0.0016,-0.0052 -0.0031,-0.0086 -0.0031,-0.01375 0.0016,-0.0052 0.0068,-0.0071 0.0068,-0.01213 0.272369,-2.307211 -0.07347,-3.984262 -0.470368,-5.924271 -0.423705,-2.056375 -0.904453,-4.390977 -0.911367,-8.26607 z m -9.682331,-1.529802 c 0.0275,0.01212 0.06919,0.02076 0.09942,0.03288 0.06486,0.10892 0.159962,0.193646 0.289657,0.213818 0.02391,0.0034 0.04325,0.0052 0.06486,0.0052 0.06919,0 0.125375,-0.03808 0.185901,-0.06858 0.198872,0.03631 0.415035,0.06858 0.674428,0.06858 0.02221,0 0.03425,-0.01908 0.05189,-0.02252 0.02227,-0.0017 0.03778,0.01384 0.06053,0.0069 0.406385,-0.112958 0.743167,-0.09683 0.986568,0.04841 0.324246,0.193646 0.423679,0.571255 0.423679,0.571255 0.0068,0.02941 0.03259,0.04437 0.0429,0.06858 0.0084,0.02077 -0.0016,0.04437 0.01008,0.06051 0.01712,0.02941 0.419359,0.633385 1.239051,1.309935 l -0.367532,0.290475 c -0.13834,-0.129093 -0.281011,-0.25416 -0.43751,-0.387293 -0.05623,-0.05246 -1.048393,-0.964194 -3.576202,-1.49551 z m 4.374404,3.202016 0.648491,-0.512355 c -0.07346,0.278365 -0.181579,0.593443 -0.306951,0.91538 -0.09941,-0.129092 -0.216164,-0.262229 -0.34154,-0.403429 z m 0.732793,-1.204639 c -0.01712,-0.01552 -0.01712,-0.04035 -0.03608,-0.05649 -0.07346,-0.04841 -0.121051,-0.09683 -0.185901,-0.149271 0.142665,-0.0565 0.237782,-0.08472 0.242103,-0.09278 0.03258,0.06051 0.03258,0.181543 0.02056,0.318709 -0.01195,-0.01212 -0.02915,-0.01212 -0.04123,-0.02252 z M 0.89476569,19.396116 v 0 c 0.00174,-0.02427 0.22481001,-2.377806 0.96970771,-3.908012 v -0.0017 c 0.015428,-0.02946 0.5970424,-1.171561 1.9990756,-2.329403 0.018844,-0.01557 1.7625933,-1.612907 6.847313,-1.628641 5.091761,0.01556 6.831874,1.61291 6.876492,1.652847 1.329832,1.095714 1.908287,2.191023 1.959733,2.289862 0.0031,0.0069 -0.0016,0.01213 0.0016,0.01917 0.748356,1.529802 0.969706,3.883808 0.971436,3.908014 v 0 c 0.259396,3.954813 -0.741438,7.940569 -1.443105,10.180122 l -0.877115,-9.167593 c -0.0048,-0.04437 -0.0394,-0.07261 -0.05621,-0.10892 -0.02056,-0.04841 -0.03259,-0.08875 -0.06486,-0.129094 -0.03946,-0.04437 -0.09082,-0.06454 -0.146985,-0.08875 -0.03608,-0.01565 -0.05622,-0.05245 -0.09514,-0.06051 -0.01876,-0.0017 -0.03425,0.01375 -0.05189,0.01375 -0.02225,0 -0.03426,-0.01917 -0.05623,-0.01727 -0.04325,0.0034 -0.06919,0.04035 -0.108084,0.06051 -0.04754,0.01917 -0.08644,0.03288 -0.125375,0.06858 -0.04325,0.03981 -0.06486,0.08875 -0.09081,0.145235 -0.0171,0.0346 -0.05189,0.0565 -0.05621,0.09279 l -0.415012,2.706996 -1.23213,-5.721791 c -0.0084,-0.03808 -0.04288,-0.05649 -0.06051,-0.08875 -0.02914,-0.05647 -0.05189,-0.100854 -0.0994,-0.137163 -0.04123,-0.03631 -0.08645,-0.04841 -0.138342,-0.06454 -0.03609,-0.01375 -0.06053,-0.04841 -0.103762,-0.04841 -0.02225,-0.0036 -0.03608,0.01917 -0.05623,0.01917 -0.02056,0 -0.03609,-0.01375 -0.05189,-0.01023 -0.0326,0.0069 -0.04755,0.03804 -0.07349,0.05245 -0.06053,0.02768 -0.108084,0.04841 -0.155632,0.104892 -0.03429,0.04035 -0.04293,0.08471 -0.06051,0.133126 -0.01365,0.03804 -0.04755,0.06858 -0.05189,0.10892 l -0.159959,3.342 -1.266715,-2.24145 c 0.159957,-0.572869 0.259393,-1.123146 0.259393,-1.62017 0,-0.238023 -0.190222,-0.432879 -0.428003,-0.432879 -0.237777,0 -0.428002,0.193646 -0.428002,0.432879 0,1.744425 -1.422783,4.399512 -2.325481,5.908698 -0.133982,-1.948963 -0.5818732,-5.379077 -2.1209543,-6.651168 -0.1815764,-0.149269 -0.451349,-0.125062 -0.6022299,0.06051 -0.1513083,0.185575 -0.1253751,0.458697 0.06053,0.609176 0.2421029,0.201714 0.4461608,0.505495 0.6316282,0.844377 l -1.7504217,3.09465 -0.1642842,-3.347248 c -0.00349,-0.05245 -0.037786,-0.08875 -0.056202,-0.137166 -0.013667,-0.03119 -0.015412,-0.0605 -0.036008,-0.08875 C 6.4214011,17.150693 6.358837,17.118407 6.281026,17.09017 6.255253,17.079939 6.24324,17.050388 6.216177,17.0458 6.197379,17.0424 6.181854,17.05603 6.164295,17.0544 6.14035,17.0544 6.129972,17.03201 6.103765,17.03523 6.060831,17.03693 6.034595,17.07159 6,17.08364 c -0.051881,0.01727 -0.095123,0.03115 -0.1383419,0.06455 -0.043237,0.03981 -0.064847,0.08471 -0.09078,0.137166 -0.018798,0.0346 -0.051882,0.04841 -0.06053,0.08875 l -1.2251938,5.725171 -0.419355,-2.710234 c -0.00686,-0.04035 -0.042889,-0.06051 -0.056202,-0.09683 -0.023945,-0.05246 -0.043237,-0.100853 -0.08646,-0.141201 -0.041204,-0.03636 -0.082139,-0.04841 -0.1340193,-0.07263 -0.039426,-0.01565 -0.06485,-0.05245 -0.1080865,-0.05648 -0.020531,-0.0017 -0.034323,0.01565 -0.051883,0.01727 -0.018798,0 -0.034294,-0.01562 -0.051882,-0.01375 -0.041156,0.0071 -0.06053,0.04437 -0.099445,0.06052 -0.051877,0.02239 -0.099435,0.04035 -0.1383463,0.08471 -0.036055,0.03982 -0.051878,0.08471 -0.069172,0.137165 -0.015394,0.03808 -0.051878,0.06051 -0.0562,0.104893 L 2.3425355,29.580091 C 1.638713,27.342335 0.63658082,23.358191 0.89424699,19.400032 Z M 14.682077,22.502922 c 0.01008,0.01917 0.0309,0.0259 0.04118,0.04035 0.01712,0.02239 0.03258,0.03631 0.05189,0.05245 0.06919,0.06051 0.146986,0.100853 0.237778,0.10892 0.0084,0 0.01363,0.0086 0.02227,0.01023 h 0.02052 c 0.0171,0 0.03263,-0.01023 0.04756,-0.01213 -0.151311,0.181542 -0.371802,0.302571 -0.622983,0.302571 -0.459995,0 -0.832229,-0.375188 -0.832229,-0.834289 0,-0.314676 0.181579,-0.583358 0.442703,-0.724962 z M 7.9153957,21.426575 c 0.4565371,0 0.8235809,0.375188 0.8235809,0.835906 0,0.46031 -0.367476,0.837516 -0.8235809,0.837516 -0.459995,0 -0.828768,-0.379223 -0.828768,-0.837516 0,-0.463943 0.3674764,-0.835906 0.828768,-0.835906 z m -4.5991711,6.980044 0.4236797,-4.487782 0.2507486,1.611294 c 0.00509,0.03636 0.036008,0.0565 0.047562,0.08875 0.018798,0.04437 0.034323,0.07666 0.064847,0.112968 0.041202,0.04841 0.090779,0.07667 0.1513083,0.104892 0.029189,0.01213 0.041155,0.04437 0.073494,0.04841 0.030877,0.007 0.06053,0.01023 0.09078,0.01023 0.022212,0 0.042889,-0.0017 0.064848,-0.0052 0.029171,-0.0052 0.042934,-0.03288 0.06917,-0.04437 0.064848,-0.02239 0.1167309,-0.04841 0.1642845,-0.100854 0.030909,-0.03288 0.042934,-0.06454 0.064847,-0.104892 0.015411,-0.03115 0.043237,-0.05245 0.051883,-0.08875 l 1.0246121,-4.787204 0.073494,1.540292 c 0,0.0086 0.010173,0.01565 0.011921,0.02428 -0.1513081,0.330812 -0.2550723,0.695914 -0.2550723,1.104185 0,1.270396 0.810179,2.29309 1.8157704,2.29309 0.9969437,0 1.8157693,-1.022694 1.8157693,-2.29309 0,-1.263537 -0.8183933,-2.291476 -1.8157693,-2.291476 h -0.00349 l 1.3951122,-2.460915 c 0.6281711,1.858597 0.804993,4.401208 0.804993,5.543513 0,0.01562 0.015417,0.02424 0.017085,0.03804 0.00497,0.05649 0.034355,0.09683 0.060539,0.149269 0.027451,0.04841 0.042889,0.09683 0.08647,0.133124 0.010194,0.0086 0.010194,0.0259 0.0222,0.0346 0.0735,0.05243 0.1599599,0.07665 0.2421019,0.07665 0.09944,0 0.190224,-0.04841 0.268041,-0.112968 0.01543,-0.01375 0.03092,-0.02424 0.04294,-0.03978 0.01195,-0.01375 0.03092,-0.02077 0.03944,-0.03636 0.0908,-0.137165 1.673101,-2.483508 2.577527,-4.835658 l 0.828768,1.467675 c -0.914801,0.112956 -1.638947,1.06263 -1.638947,2.249918 0,1.266769 0.811912,2.295109 1.812312,2.295109 1.007319,0 1.815768,-1.027937 1.815768,-2.295109 0,-0.510738 -0.15996,-0.960561 -0.384767,-1.341398 l 0.06053,-1.246193 1.029802,4.788942 c 0.0085,0.03636 0.03777,0.0565 0.05189,0.08875 0.02055,0.03981 0.03429,0.07261 0.06486,0.104892 0.04325,0.04841 0.09943,0.07667 0.164283,0.100854 0.02747,0.01023 0.04118,0.03808 0.06919,0.04437 0.02228,0.0034 0.04293,0.0052 0.06486,0.0052 0.03092,0 0.06051,-0.0034 0.0908,-0.01023 0.03092,-0.0071 0.04325,-0.03808 0.07349,-0.04841 0.06052,-0.02589 0.108085,-0.05245 0.15131,-0.104892 0.0309,-0.03636 0.04325,-0.07261 0.06486,-0.112957 0.01361,-0.03288 0.04292,-0.05245 0.04756,-0.08875 l 0.246429,-1.599194 0.442699,4.621037 C 15.130378,30.804117 5.9868971,30.715765 3.3097601,28.405329 Z M 22.076801,23.955185 c -0.0068,-0.05648 -0.03603,-0.09683 -0.06053,-0.149269 -0.02911,-0.04841 -0.04755,-0.0928 -0.09079,-0.129092 -0.01543,-0.01212 -0.01543,-0.03293 -0.03092,-0.04035 -0.03609,-0.02427 -0.08216,-0.0086 -0.121056,-0.02077 -0.03772,-0.01023 -0.06486,-0.04437 -0.108084,-0.04437 h -0.0016 c -0.01713,0 -0.02916,0.01727 -0.04325,0.01917 -0.05623,0.0071 -0.09511,0.0346 -0.142662,0.06051 -0.05189,0.02945 -0.09939,0.04841 -0.134021,0.09683 -0.01008,0.01375 -0.03092,0.01375 -0.03944,0.0294 l -0.0908,0.145234 c 0.181579,-1.459202 0.263718,-3.018453 0.159961,-4.586421 0,-0.0017 -0.0016,-0.0017 -0.0016,-0.0036 0,-0.0017 0.0016,-0.0034 0.0016,-0.0071 -0.01008,-0.100854 -0.23778,-2.512957 -1.044933,-4.18662 -0.0031,-0.0071 0.0016,-0.01375 -0.0016,-0.02239 -0.0084,-0.01565 -0.07347,-0.141201 -0.1859,-0.330812 0.47556,-1.079979 1.058766,-2.753805 0.406386,-3.371453 -0.332891,-0.314675 -0.839144,-0.286437 -1.503196,0.07663 -0.01543,0.0087 -0.01543,0.02768 -0.02915,0.03636 -0.324311,-0.330738 -0.50459,-0.569165 -0.538742,-0.624837 -0.06053,-0.201716 -0.255074,-0.69753 -0.785971,-1.0158341 -0.42368,-0.2541614 -0.947226,-0.294504 -1.541241,-0.1573374 -0.0016,0 -0.0031,-0.00172 -0.0048,-0.00172 -0.13834,0 -0.242101,-0.017285 -0.350183,-0.031155 l 0.371856,-2.3829768 c 0.0048,0.0035 0.0099,0.00176 0.01364,0.00526 0.02227,0.01904 0.02577,0.048416 0.05189,0.064552 0.06486,0.034616 0.134019,0.052442 0.203192,0.052442 0.0908,0 0.177256,-0.03808 0.250752,-0.096822 0.0084,-0.00688 0.02228,-0.0035 0.03264,-0.012145 0.01362,-0.01211 0.0099,-0.03115 0.02224,-0.04438 0.02391,-0.025982 0.05622,-0.04438 0.07349,-0.07665 0.0068,-0.013836 0.695181,-1.2909717 1.759135,-2.0784649 l 0.11673,0.6055553 c 0.0032,0.013836 0.01713,0.020776 0.02056,0.032881 0.0033,0.01036 -0.0048,0.022512 -0.0016,0.03288 0.01008,0.029411 0.04123,0.038084 0.05621,0.064549 0.03609,0.060514 0.07348,0.1089258 0.134018,0.1452345 0.03608,0.020776 0.06486,0.027716 0.108085,0.038084 0.03608,0.01036 0.06486,0.036348 0.103761,0.036348 0.02746,0 0.05622,-0.00172 0.08216,-0.00867 0.01195,-0.00172 0.01876,-0.015572 0.0309,-0.020776 0.01193,-0.00342 0.02391,0.0052 0.03609,0.00172 1.187598,-0.4429646 2.141742,-0.3993944 2.831735,0.1210291 1.834359,1.386182 1.565021,5.6214163 1.563291,5.6629293 0,0.0052 0.0048,0.0087 0.0048,0.01556 0,0.0069 -0.0068,0.0087 -0.0068,0.01556 0.0068,3.966915 0.51663,6.450421 0.92691,8.445941 0.397738,1.938476 0.710312,3.473523 0.461723,5.630051 -0.216164,1.176803 -0.777323,2.021582 -1.141342,2.469793 -1.748759,-2.469793 -1.807122,-4.392576 -1.807122,-4.411615 -0.0031,-0.02427 -0.02056,-0.03636 -0.02228,-0.05246 z"
                        id="path237"
                        style="fill:#ffffff;stroke-width:1.72340739"
                        inkscape:connector-curvature="0"
                        sodipodi:nodetypes="ccccssccccccccccccccccccccccccscccssscccccsccccccsccccccccsccsccscccccccscccccccccccscsccccccccccccccccccccccccccccccccccccccscccccccccccscccccccsssccsccccccccccsccccccccccccccccccccccscssccsssssccccccssccccccccssssccsccccscccccssscccccccssccccccccccccssccccccsccccccccccsccccscccccccccscscccccscccccc" />
                  </g>
	</g>
	<g id="anime_follow_svg">
		<g
            id="layer1"
            inkscape:groupmode="layer"
            inkscape:label="Ebene 1">
            <path
                  sodipodi:type="star"
                  style="fill:#ffffff;stroke-width:1"
                  id="path252"
                  sodipodi:sides="5"
                  sodipodi:cx="86.676537"
                  sodipodi:cy="4.6772561"
                  sodipodi:r1="6.9985013"
                  sodipodi:r2="5.6619072"
                  sodipodi:arg1="0.62024949"
                  sodipodi:arg2="1.248568"
                  inkscape:flatsided="true"
                  inkscape:rounded="0"
                  inkscape:randomized="0"
                  d="M 92.371451,8.7450524 84.567658,11.35046 79.678263,4.7337267 84.460244,-1.9610471 92.305066,0.51808851 Z"
                  inkscape:transform-center-x="0.0019268967"
                  inkscape:transform-center-y="4.7991734e-005"
                  transform="matrix(0.06308404,0,0,0.05842508,-1.3759207e-6,30.130398)" />
            <path
                  d="M 24.52155,11.866926 C 24.545589,11.503515 24.777281,7.1148939 22.618159,5.4812746 21.784031,4.8496317 20.709619,4.7440693 19.45156,5.1057497 l -0.151035,-0.763163 c -0.0051,-0.022498 -0.02746,-0.03115 -0.03433,-0.051916 -0.0068,-0.020766 0.0051,-0.041533 -0.0051,-0.062299 -0.01716,-0.03461 -0.05493,-0.039803 -0.07894,-0.067491 -0.03777,-0.046723 -0.07208,-0.083065 -0.127003,-0.109023 -0.04977,-0.024228 -0.09611,-0.027689 -0.15275,-0.03115 -0.03604,0 -0.06694,-0.027689 -0.106417,-0.019036 -0.02232,0.00347 -0.0309,0.025957 -0.04977,0.03461 -0.02059,0.00691 -0.0412,-0.0052 -0.06178,0.0052 -1.088143,0.5641509 -1.889661,1.6041984 -2.303291,2.2341113 L 16.207751,6.0800445 c -0.03604,-0.038071 -0.08753,-0.039803 -0.130435,-0.064031 -0.04119,-0.024228 -0.07209,-0.069221 -0.12357,-0.076143 -0.0087,0 -0.01373,0.0052 -0.02232,0.0052 -0.05665,-0.00691 -0.108138,0.022497 -0.163049,0.039803 -0.05149,0.015575 -0.108138,0.017305 -0.149318,0.051916 -0.0051,0.00347 -0.01373,0.00173 -0.01888,0.0052 -0.03604,0.032881 -0.03604,0.081336 -0.05836,0.1228679 -0.02746,0.044994 -0.07209,0.077874 -0.08067,0.1349812 L 14.970277,9.440731 c -0.03261,-0.020763 -0.06007,-0.04326 -0.06522,-0.046728 -0.02574,-0.024231 -0.05836,-0.017306 -0.08753,-0.034612 -0.02747,-0.015572 -0.03604,-0.048461 -0.06522,-0.058832 -0.02575,-0.00862 -0.04977,0.00689 -0.07551,0.00345 -0.05836,-0.010338 -0.106417,-0.00517 -0.164766,0.00689 -0.05149,0.012115 -0.09096,0.027688 -0.133866,0.058843 -0.02403,0.015572 -0.05493,0.010338 -0.07551,0.032878 -0.02403,0.024231 -0.01888,0.060566 -0.03604,0.088254 -0.01716,0.027688 -0.04977,0.036335 -0.06178,0.069225 l -0.472014,1.330776 c -0.837563,-0.126329 -1.796983,-0.214586 -2.928032,-0.221507 -0.0051,0 -0.0086,-0.0069 -0.01545,-0.0069 -0.02575,0 -0.04462,0.0017 -0.07209,0.0017 -0.02574,0 -0.04462,-0.0017 -0.07037,-0.0017 -0.0069,0 -0.01029,0.0052 -0.01545,0.0069 -5.416684,0.03116 -7.2805997,1.789367 -7.330373,1.839552 -1.5361002,1.268477 -2.1711356,2.536955 -2.2003132,2.594063 0,0 -0.00172,0 -0.00172,0.0017 -0.81696482,1.676883 -1.04351852,4.108276 -1.05381636,4.210377 0,0.0017 0.0017159,0.0034 0.0017159,0.0053 0,0.0017 -0.0017159,0.0017 -0.0017159,0.0034 -0.40504935,6.136456 2.04241326,12.153505 2.14882466,12.407892 0.010292,0.02596 0.036043,0.03808 0.049773,0.06057 0.018878,0.02942 0.036043,0.04846 0.058355,0.07268 0.058355,0.05711 0.1235753,0.09172 0.2008091,0.109023 0.018878,0.0034 0.02746,0.0225 0.044624,0.02423 0.013731,0 0.02746,0.0017 0.039475,0.0017 0.054922,0 0.1098431,-0.01034 0.164766,-0.03288 0.024027,-0.01034 0.029176,-0.03635 0.048057,-0.05018 0.053206,-0.03288 0.087532,-0.07096 0.1201416,-0.121138 0.029177,-0.04153 0.049773,-0.07614 0.063503,-0.124603 0.00516,-0.0225 0.029177,-0.03635 0.030893,-0.0623 l 0.070795,-2.046523 c 13.7312702,4.240321 15.4267612,-3.210045 15.1106992,1.856477 0.25833,-1.08486 0.260972,-0.169887 0.266121,-0.14566 0.01373,0.04846 0.0232,0.481148 0.05067,0.522681 0.03433,0.05191 0.06694,0.08999 0.11843,0.121138 0.02232,0.01385 0.02746,0.03979 0.04977,0.05018 0.05321,0.0225 0.108128,0.03288 0.164765,0.03288 0.01373,0 0.02747,0 0.0412,-0.0017 0.01888,-0.0017 0.02917,-0.02076 0.04633,-0.02596 0.07551,-0.0173 0.140739,-0.05018 0.197377,-0.107294 0.02402,-0.02423 0.03948,-0.04326 0.05835,-0.07268 0.01545,-0.0225 0.03948,-0.03461 0.04977,-0.06057 0.06351,-0.154019 0.995461,-2.452159 1.621916,-5.610373 l 0.571531,-0.920642 c 0.238568,0.979478 0.786073,2.462542 2.097336,4.15846 0.0034,0.0034 0.0104,0.0017 0.01373,0.0053 0.0035,0.0053 0,0.01209 0.0051,0.01732 0.08582,0.09518 0.202525,0.143633 0.32095,0.143633 0.09268,0 0.183648,-0.02941 0.262596,-0.09172 0.0034,-0.0034 0.0034,-0.0086 0.0068,-0.01209 0.0051,-0.0034 0.0104,-0.0017 0.01545,-0.0053 0.05493,-0.05018 1.36447,-1.24079 1.745491,-3.334729 0.0017,-0.0053 -0.0034,-0.0086 -0.0034,-0.01385 0.0017,-0.0053 0.0068,-0.007 0.0068,-0.01209 0.271186,-2.306791 -0.07208,-3.983673 -0.470261,-5.923597 -0.425669,-2.055989 -0.904522,-4.390473 -0.911386,-8.265127 z m -9.68344,-1.529788 c 0.02745,0.01211 0.06865,0.02076 0.09783,0.03288 0.0635,0.107294 0.157901,0.192089 0.290056,0.212855 0.02403,0.0034 0.04462,0.0052 0.06694,0.0052 0.07037,0 0.127002,-0.03807 0.185362,-0.06923 0.20081,0.03634 0.413631,0.06923 0.674512,0.06923 0.02232,0 0.03433,-0.01904 0.0532,-0.0225 0.02232,-0.0017 0.03777,0.01384 0.06007,0.0069 0.406769,-0.112485 0.743165,-0.09863 0.986881,0.04673 0.326099,0.192088 0.423929,0.571075 0.425646,0.571075 0.0068,0.02942 0.03261,0.04326 0.0429,0.06922 0.0086,0.02076 -0.0017,0.04326 0.0104,0.0623 0.01716,0.02942 0.420496,0.633374 1.239178,1.310011 l -0.369008,0.290729 c -0.13902,-0.128059 -0.279758,-0.256118 -0.43766,-0.385908 -0.05493,-0.05364 -1.048666,-0.963904 -3.576795,-1.495177 z m 4.374882,3.201478 0.648767,-0.512236 c -0.07551,0.278615 -0.181928,0.593571 -0.305502,0.915449 -0.10126,-0.128059 -0.217972,-0.263039 -0.343265,-0.403213 z m 0.732867,-1.204448 c -0.01716,-0.01557 -0.01716,-0.04154 -0.03604,-0.05537 -0.07207,-0.05019 -0.120138,-0.09864 -0.187076,-0.148825 0.142452,-0.05711 0.236851,-0.08306 0.243716,-0.09344 0.03261,0.05883 0.03261,0.179975 0.0206,0.320146 -0.01198,-0.01211 -0.02918,-0.01211 -0.0412,-0.0225 z M 0.89993212,19.394726 v 0 c 0.00171,-0.02423 0.22312068,-2.377746 0.96971638,-3.907534 v -0.0017 c 0.015447,-0.02941 0.5972772,-1.171568 1.9995049,-2.329292 0.01888,-0.01557 1.7626537,-1.612853 6.8480886,-1.628427 5.092302,0.01557 6.832644,1.612853 6.877268,1.652655 1.330142,1.095424 1.908541,2.190848 1.960031,2.289489 0.0035,0.0069 -0.0017,0.01209 0.0017,0.01903 0.748312,1.529789 0.969717,3.883308 0.971433,3.907534 v 0 c 0.259163,3.954258 -0.741448,7.939667 -1.443421,10.178971 l -0.877001,-9.16661 c -0.0051,-0.04499 -0.03948,-0.07096 -0.05493,-0.109024 -0.02059,-0.04846 -0.03261,-0.08999 -0.06522,-0.12979 -0.03948,-0.04326 -0.08926,-0.06402 -0.145886,-0.08825 -0.03604,-0.01558 -0.05493,-0.05191 -0.09611,-0.05884 -0.01888,-0.0017 -0.03433,0.01385 -0.05149,0.01385 -0.02232,0 -0.03433,-0.01903 -0.05493,-0.0173 -0.04462,0.0034 -0.07037,0.04153 -0.108138,0.05884 -0.04634,0.01903 -0.08753,0.03288 -0.125294,0.06749 -0.04462,0.03979 -0.06522,0.08825 -0.08926,0.143635 -0.01716,0.03461 -0.05149,0.05538 -0.05835,0.09344 l -0.41363,2.706546 -1.232313,-5.721127 c -0.0086,-0.03808 -0.0429,-0.05538 -0.06008,-0.08825 -0.02917,-0.05537 -0.04977,-0.100369 -0.09783,-0.138444 -0.0412,-0.03635 -0.08582,-0.04673 -0.137306,-0.06402 -0.03604,-0.01385 -0.06178,-0.04846 -0.104694,-0.05018 -0.02232,-0.0034 -0.03604,0.01903 -0.05665,0.01903 -0.0206,0 -0.03604,-0.01385 -0.05321,-0.01034 -0.03261,0.007 -0.04633,0.03808 -0.07381,0.05191 -0.06178,0.0277 -0.109843,0.05017 -0.154468,0.10556 -0.03433,0.04153 -0.0429,0.08306 -0.06008,0.134982 -0.01373,0.03808 -0.04806,0.06749 -0.04977,0.109022 l -0.161344,3.341617 -1.266639,-2.241034 c 0.159618,-0.572806 0.257447,-1.123113 0.257447,-1.619775 0,-0.238813 -0.192228,-0.432633 -0.429079,-0.432633 -0.236852,0 -0.429078,0.19382 -0.429078,0.432633 0,1.744372 -1.422823,4.399005 -2.325603,5.908025 -0.132158,-1.94861 -0.5818309,-5.378519 -2.121364,-6.650457 -0.1819287,-0.150556 -0.4513903,-0.124602 -0.6024254,0.06058 -0.1510359,0.185166 -0.1235748,0.458589 0.06007,0.609144 0.243717,0.200743 0.446242,0.505315 0.6316037,0.844498 L 6.7267685,20.784341 6.5637183,17.437498 c -0.00343,-0.05191 -0.037759,-0.08999 -0.054922,-0.138442 -0.013731,-0.03114 -0.015446,-0.0623 -0.036043,-0.08999 -0.041192,-0.06576 -0.104696,-0.09691 -0.1819294,-0.12633 -0.025746,-0.01034 -0.037759,-0.0398 -0.06522,-0.04499 -0.018878,-0.0034 -0.034326,0.01034 -0.05149,0.0086 -0.024029,0 -0.034326,-0.0225 -0.060071,-0.01903 -0.042908,0.0017 -0.068652,0.03635 -0.1046939,0.04846 -0.051489,0.0173 -0.096114,0.03114 -0.1390214,0.06576 -0.044624,0.03979 -0.06522,0.08306 -0.092681,0.136712 -0.01888,0.03461 -0.053206,0.05018 -0.061787,0.08999 l -1.225447,5.724615 -0.4187808,-2.710007 c -0.00687,-0.04153 -0.042908,-0.0623 -0.058355,-0.09691 -0.024028,-0.05364 -0.044624,-0.100369 -0.085816,-0.140172 -0.041192,-0.03635 -0.082382,-0.05018 -0.132156,-0.07095 -0.039474,-0.01558 -0.063503,-0.05191 -0.1081269,-0.05711 -0.020596,-0.0017 -0.034326,0.01558 -0.053206,0.01731 -0.018878,0 -0.034326,-0.01558 -0.05149,-0.01385 -0.041192,0.007 -0.061786,0.04326 -0.09783,0.06058 -0.053206,0.0225 -0.1012629,0.04153 -0.1390214,0.0848 -0.036043,0.03979 -0.049773,0.0848 -0.070369,0.136712 -0.015446,0.03807 -0.049773,0.06057 -0.054922,0.103826 L 2.3485,29.573691 C 1.6448121,27.336123 0.64248489,23.352445 0.89993212,19.394726 Z M 14.688793,22.501025 c 0.0104,0.01903 0.03089,0.02597 0.0412,0.04153 0.01716,0.0225 0.03261,0.03635 0.05149,0.05364 0.06865,0.0623 0.147603,0.102103 0.236853,0.110755 0.0087,0 0.01373,0.0086 0.02232,0.01034 h 0.0206 c 0.01716,0 0.03261,-0.01034 0.04806,-0.01209 -0.152751,0.181707 -0.372438,0.304573 -0.623021,0.304573 -0.459971,0 -0.832411,-0.375524 -0.832411,-0.834115 0,-0.316686 0.181929,-0.583187 0.442808,-0.725091 z M 7.9213685,21.424636 c 0.4565392,0 0.8238303,0.373794 0.8238303,0.835845 0,0.460322 -0.3690069,0.837577 -0.8238303,0.837577 -0.4599716,0 -0.8289791,-0.377255 -0.8289791,-0.837577 0,-0.463781 0.3690075,-0.835845 0.8289791,-0.835845 z m -4.5997191,6.979223 0.4256457,-4.487261 0.2505818,1.611122 c 0.00516,0.03635 0.036043,0.05711 0.048057,0.08825 0.018879,0.04326 0.034326,0.07787 0.063504,0.112487 0.041192,0.04846 0.090965,0.07787 0.1493193,0.103826 0.029178,0.01209 0.041192,0.04326 0.072085,0.05017 0.030893,0.007 0.06007,0.01034 0.090965,0.01034 0.022311,0 0.042908,-0.0017 0.06522,-0.0053 0.029176,-0.0053 0.042908,-0.03288 0.070368,-0.04326 0.063504,-0.0225 0.1184257,-0.05017 0.1664826,-0.102103 0.030894,-0.03288 0.042908,-0.06402 0.063503,-0.103837 0.015447,-0.03114 0.044624,-0.05191 0.053206,-0.08825 l 1.0246386,-4.786641 0.075517,1.540169 c 0,0.0086 0.010292,0.01558 0.012018,0.02423 -0.1493187,0.332261 -0.2557302,0.695672 -0.2557302,1.104077 0,1.270207 0.8101001,2.292951 1.815859,2.292951 0.9971782,0 1.8158595,-1.022744 1.8158595,-2.292951 0,-1.263286 -0.8186813,-2.291221 -1.8158595,-2.291221 h -0.00343 L 8.9048168,18.67994 c 0.6281707,1.858588 0.8049505,4.400735 0.8049505,5.542884 0,0.01558 0.015447,0.02423 0.017163,0.03808 0.00515,0.05711 0.034326,0.09864 0.06007,0.148825 0.027462,0.05018 0.042908,0.09864 0.087532,0.134981 0.010292,0.0086 0.010292,0.02596 0.022312,0.03461 0.075518,0.05191 0.1596167,0.07614 0.2437157,0.07614 0.09955,0 0.190511,-0.04673 0.269461,-0.112487 0.01545,-0.01385 0.03089,-0.02423 0.04291,-0.0398 0.01202,-0.01385 0.03089,-0.02076 0.03948,-0.03635 0.09268,-0.136711 1.673405,-2.483308 2.577903,-4.835097 l 0.828979,1.467489 c -0.914796,0.11422 -1.63908,1.062544 -1.63908,2.249687 0,1.266748 0.811816,2.294682 1.812427,2.294682 1.007475,0 1.81586,-1.027934 1.81586,-2.294682 0,-0.510506 -0.157901,-0.960443 -0.382738,-1.34116 l 0.06008,-1.245979 1.029788,4.788371 c 0.0087,0.03635 0.03777,0.05711 0.0532,0.08825 0.02059,0.0398 0.03433,0.07268 0.06522,0.10556 0.04462,0.05018 0.101259,0.07787 0.164765,0.100369 0.02746,0.01034 0.0412,0.03808 0.07037,0.04326 0.02232,0.0034 0.0429,0.0053 0.06522,0.0053 0.0309,0 0.06007,-0.0034 0.09096,-0.01034 0.0309,-0.007 0.04462,-0.03808 0.07209,-0.05017 0.05835,-0.02596 0.108139,-0.05364 0.14932,-0.103826 0.0309,-0.03635 0.04462,-0.07096 0.0635,-0.11422 0.01373,-0.03288 0.0429,-0.05364 0.04806,-0.08825 l 0.245431,-1.599009 0.442809,4.620512 C 15.143615,30.800642 5.9990982,30.712383 3.3216494,28.403859 Z M 22.084385,23.952938 c -0.0068,-0.05711 -0.03604,-0.09863 -0.06178,-0.148824 -0.02917,-0.04846 -0.04633,-0.09345 -0.09096,-0.12806 -0.01545,-0.01209 -0.01545,-0.03288 -0.03089,-0.04153 -0.03604,-0.02423 -0.08066,-0.0086 -0.120138,-0.02076 -0.03777,-0.01034 -0.06522,-0.04499 -0.108117,-0.04499 h -0.0017 c -0.01716,0 -0.02917,0.01729 -0.04462,0.01903 -0.05493,0.007 -0.09439,0.03461 -0.142454,0.06058 -0.05149,0.02941 -0.09783,0.04846 -0.133865,0.09518 -0.0104,0.01385 -0.0309,0.01385 -0.03948,0.02941 l -0.08926,0.143635 c 0.181929,-1.458836 0.264311,-3.018042 0.161332,-4.585901 0,-0.0017 -0.0017,-0.0017 -0.0017,-0.0034 0,-0.0017 0.0017,-0.0034 0.0017,-0.007 -0.0104,-0.102103 -0.23685,-2.512729 -1.045234,-4.18615 -0.0034,-0.0069 0.0017,-0.01385 -0.0017,-0.0225 -0.0087,-0.01558 -0.07208,-0.140172 -0.185362,-0.328799 0.475419,-1.07985 1.058966,-2.753272 0.408483,-3.371071 -0.332964,-0.314956 -0.839277,-0.285537 -1.503492,0.07787 -0.01545,0.0086 -0.01545,0.02769 -0.02917,0.03634 C 18.701639,11.197234 18.521425,10.956691 18.4871,10.901313 18.42532,10.698842 18.23137,10.203911 17.701028,9.8854936 17.277098,9.631106 16.753625,9.591304 16.159779,9.7297457 c -0.0017,0 -0.0035,-0.00172 -0.0051,-0.00172 -0.137304,0 -0.240283,-0.017306 -0.351843,-0.031145 l 0.37244,-2.3829377 c 0.0051,0.00347 0.0104,0.00173 0.01373,0.0052 0.02232,0.019036 0.02574,0.050185 0.05149,0.06403 0.06522,0.03461 0.133866,0.051916 0.202525,0.051916 0.09268,0 0.178498,-0.038071 0.252299,-0.09518 0.0086,-0.00691 0.02232,-0.00347 0.03261,-0.012115 0.01373,-0.012115 0.0104,-0.03115 0.02232,-0.043262 0.02402,-0.025958 0.05493,-0.043263 0.07209,-0.076144 0.0068,-0.013844 0.695107,-1.2909745 1.759222,-2.0783651 l 0.118429,0.6056845 c 0.0035,0.013844 0.01716,0.020766 0.0206,0.032881 0.0034,0.010382 -0.0051,0.022497 -0.0017,0.03288 0.0104,0.029418 0.04119,0.038071 0.05835,0.06403 0.03604,0.058838 0.07381,0.1090235 0.133866,0.143634 0.03604,0.020766 0.06522,0.027689 0.106416,0.038071 0.03604,0.010381 0.06522,0.036342 0.104694,0.036342 0.02746,0 0.05493,-0.00173 0.0841,-0.00865 0.01198,-0.00173 0.01888,-0.015575 0.0309,-0.020766 0.01198,-0.00347 0.02404,0.0052 0.03604,0.00173 1.18769,-0.4430152 2.141959,-0.399752 2.831918,0.122868 1.834738,1.3861536 1.565277,5.6207566 1.563561,5.6622886 0,0.0052 0.0051,0.0086 0.0051,0.01557 0,0.0069 -0.0068,0.0086 -0.0068,0.01557 0.0068,3.966371 0.51661,6.449681 0.926808,8.444982 0.396469,1.938191 0.710554,3.473172 0.46169,5.62941 -0.216257,1.176759 -0.777491,2.021258 -1.14135,2.469463 -1.748922,-2.469463 -1.807277,-4.392081 -1.807277,-4.411118 -0.0034,-0.02423 -0.0206,-0.03635 -0.02232,-0.05191 z"
                  id="path237"
                  style="fill:#ffffff;stroke-width:1.72340631"
                  inkscape:connector-curvature="0"
                  sodipodi:nodetypes="ccccssccccccccccccccccccccccccscccssscccccsccccccsccccccccsccsccscccccccscccccccccccscsccccccccccccccccccccccccccccccccccccccscccccccccccscccccccsssccsccccccccccsccccccccccccccccccccccscssccsssssccccccssccccccccssssccsccccscccccssscccccccssccccccccccccssccccccsccccccccccsccccscccccccccscscccccscccccc" />
            <path
                  d="m 11.918768,27.599111 c -0.08925,0.10556 -0.638469,0.302843 -1.297533,0.283807 -0.456539,-0.01034 -0.8324124,-0.122871 -0.961136,-0.285537 -0.1458863,-0.186898 -0.4153472,-0.219778 -0.6024254,-0.07268 -0.1853617,0.147096 -0.2196883,0.41879 -0.072085,0.607417 0.4170644,0.534733 1.2408944,0.616068 1.7042984,0.616068 0.0052,0 0.01029,0 0.01545,0 0.653915,-0.0017 1.541249,-0.16613 1.889659,-0.617799 0.142455,-0.185166 0.108139,-0.443014 -0.07381,-0.591841 -0.17678,-0.145364 -0.447957,-0.119405 -0.602426,0.06057 z"
                  id="path235"
                  style="fill:#ffffff;stroke-width:1.72340631"
                  inkscape:connector-curvature="0" />
            <rect
                  style="fill:#ffffff;stroke-width:1.3021239"
                  id="rect5332"
                  width="5.3066034"
                  height="16.627357"
                  x="19.949499"
                  y="0.11364251" />
            <rect
                  style="fill:#ffffff;stroke-width:1.34343207"
                  id="rect5332-1"
                  width="18.183962"
                  height="5.1650934"
                  x="13.758459"
                  y="5.2433596" />
            </g>
	</g>
	<g id="anime_updates_svg">
		<g
                  id="layer1"
                  inkscape:groupmode="layer"
                  inkscape:label="Ebene 1">
                  <path
                        d="m 11.920318,27.713379 c -0.08925,0.105558 -0.638465,0.302842 -1.297526,0.283807 -0.456538,-0.01035 -0.8324082,-0.12287 -0.9611312,-0.285538 -0.1458862,-0.186897 -0.4153459,-0.219776 -0.6024233,-0.07268 -0.1853608,0.147094 -0.2196866,0.418786 -0.072085,0.607415 0.4170618,0.534733 1.2408885,0.616067 1.7042915,0.616067 0.0051,0 0.01029,0 0.01545,0 0.653912,-0.0017 1.541242,-0.166131 1.889652,-0.617799 0.142452,-0.185167 0.108126,-0.443014 -0.0738,-0.59184 -0.17678,-0.145365 -0.447955,-0.119405 -0.602423,0.06056 z"
                        id="path235"
                        style="fill:#ffffff;stroke-width:1.72340226"
                        inkscape:connector-curvature="0" />
                  <path
                        d="M 24.521431,11.866929 C 24.545471,11.503518 24.777161,7.1148971 22.618048,5.4812785 21.783924,4.8496351 20.709517,4.7440733 19.451465,5.1057537 L 19.300431,4.3425903 c -0.0051,-0.022497 -0.02747,-0.03115 -0.03433,-0.051916 -0.0069,-0.020767 0.0051,-0.041533 -0.0051,-0.062299 -0.01716,-0.03461 -0.05492,-0.039803 -0.07894,-0.06749 -0.03776,-0.046724 -0.07208,-0.083065 -0.127003,-0.1090241 -0.04977,-0.024228 -0.09612,-0.027689 -0.15275,-0.03115 -0.03604,0 -0.06694,-0.027689 -0.106411,-0.019037 -0.02231,0.00346 -0.0309,0.025958 -0.04977,0.03461 -0.02059,0.00692 -0.04119,-0.0052 -0.06179,0.0052 -1.088138,0.5641518 -1.889652,1.6041998 -2.303281,2.234112 l -0.173395,-0.195549 c -0.03604,-0.038071 -0.08753,-0.039803 -0.130434,-0.06403 -0.04119,-0.024228 -0.07208,-0.069221 -0.123569,-0.076143 -0.0086,0 -0.01373,0.0052 -0.02231,0.0052 -0.05664,-0.00692 -0.108134,0.022498 -0.163049,0.039803 -0.05149,0.015575 -0.108133,0.017305 -0.149318,0.051916 -0.0051,0.00346 -0.01373,0.00174 -0.01888,0.0052 -0.03604,0.03288 -0.03604,0.081335 -0.05835,0.1228679 -0.02747,0.044994 -0.07208,0.077874 -0.08067,0.1349812 l -0.490869,3.1408966 c -0.03261,-0.020767 -0.06008,-0.043263 -0.06522,-0.046724 -0.02574,-0.024227 -0.05835,-0.017305 -0.08753,-0.03461 -0.02747,-0.015575 -0.03604,-0.048455 -0.06522,-0.058838 -0.02575,-0.00865 -0.04977,0.00692 -0.07551,0.00346 -0.05835,-0.010383 -0.106412,-0.0052 -0.164765,0.00692 -0.05149,0.012115 -0.09096,0.027689 -0.133865,0.058838 -0.02402,0.015575 -0.05492,0.010383 -0.07551,0.03288 -0.02402,0.024228 -0.01888,0.060569 -0.03604,0.088256 -0.01716,0.027689 -0.04977,0.036342 -0.06178,0.069221 l -0.472013,1.3307761 c -0.837557,-0.126333 -1.796972,-0.21459 -2.928017,-0.221512 -0.0051,0 -0.0086,-0.0069 -0.01545,-0.0069 -0.02574,0 -0.04462,0.0017 -0.07208,0.0017 -0.02574,0 -0.04462,-0.0017 -0.07037,-0.0017 -0.0069,0 -0.01029,0.0052 -0.01545,0.0069 -5.416659,0.03115 -7.2805667,1.789367 -7.3303398,1.839552 -1.5360931,1.268478 -2.1711256,2.536956 -2.2003031,2.594063 0,0 -0.00172,0 -0.00172,0.0017 -0.81696101,1.676882 -1.04351305,4.108275 -1.05381084,4.210376 0,0.0017 0.0017222,0.0035 0.0017222,0.0052 0,0.0017 -0.0017222,0.0017 -0.0017222,0.0035 -0.40504813,6.136456 2.04240324,12.153504 2.14881414,12.40789 0.010295,0.02596 0.036043,0.03808 0.049772,0.06056 0.018879,0.02942 0.036043,0.04846 0.058354,0.07268 0.058355,0.05711 0.1235748,0.09172 0.2008082,0.109022 0.018878,0.0035 0.02746,0.0225 0.044623,0.02423 0.013731,0 0.02746,0.0017 0.039475,0.0017 0.054921,0 0.1098427,-0.01035 0.1647653,-0.03288 0.024027,-0.01035 0.029176,-0.03635 0.048057,-0.05018 0.053205,-0.03288 0.087531,-0.07096 0.1201412,-0.121138 0.029176,-0.04153 0.049772,-0.07614 0.063503,-0.124603 0.00515,-0.0225 0.029177,-0.03635 0.030894,-0.0623 l 0.070799,-2.046521 c 13.7312069,4.240238 15.4266889,-3.210127 15.1106289,1.856394 0.258327,-1.08486 0.26097,-0.169887 0.266119,-0.14566 0.01373,0.04846 0.0232,0.481148 0.05067,0.522682 0.03433,0.05191 0.06694,0.08999 0.11843,0.121137 0.02231,0.01385 0.02747,0.0398 0.04977,0.05018 0.05321,0.0225 0.108134,0.03288 0.164764,0.03288 0.01373,0 0.02747,0 0.0412,-0.0017 0.01888,-0.0017 0.02918,-0.02076 0.04633,-0.02596 0.07551,-0.0173 0.140739,-0.05018 0.197376,-0.10729 0.02402,-0.02423 0.03947,-0.04326 0.05835,-0.07268 0.01545,-0.0225 0.03947,-0.03461 0.04977,-0.06056 0.06351,-0.154017 0.995457,-2.452157 1.621908,-5.610371 l 0.571529,-0.920643 c 0.238566,0.979479 0.786069,2.462543 2.097326,4.158461 0.0034,0.0035 0.01036,0.0017 0.01373,0.0052 0.0035,0.0052 0,0.01209 0.0051,0.01731 0.08582,0.09518 0.202524,0.143633 0.320948,0.143633 0.09268,0 0.183646,-0.02942 0.262596,-0.09172 0.0034,-0.0035 0.0034,-0.0086 0.0069,-0.01209 0.0051,-0.0035 0.01036,-0.0017 0.01545,-0.0052 0.05492,-0.05018 1.364463,-1.240789 1.745483,-3.334728 0.0017,-0.0052 -0.0034,-0.0086 -0.0034,-0.01385 0.0017,-0.0052 0.0069,-0.007 0.0069,-0.01209 0.271185,-2.306791 -0.07208,-3.983673 -0.470258,-5.923596 -0.425668,-2.055989 -0.904518,-4.390473 -0.911383,-8.265125 z m -9.683394,-1.529788 c 0.02745,0.01211 0.06865,0.02077 0.09783,0.03288 0.06351,0.107292 0.157901,0.192088 0.290056,0.212854 0.02402,0.0035 0.04463,0.0052 0.06694,0.0052 0.07037,0 0.127003,-0.03807 0.185361,-0.06922 0.200809,0.03634 0.41363,0.06922 0.67451,0.06922 0.02231,0 0.03433,-0.01904 0.0532,-0.0225 0.02231,-0.0017 0.03776,0.01384 0.06008,0.0069 0.406766,-0.112484 0.743162,-0.09864 0.986877,0.04672 0.326098,0.192089 0.423927,0.571075 0.425644,0.571075 0.0069,0.02942 0.03261,0.04326 0.0429,0.06922 0.0086,0.02077 -0.0017,0.04326 0.01036,0.0623 0.01716,0.02942 0.420494,0.633373 1.239172,1.31001 l -0.369006,0.290729 c -0.13902,-0.12806 -0.279757,-0.256119 -0.437658,-0.385908 -0.05492,-0.05365 -1.048662,-0.963904 -3.57678,-1.495176 z m 4.374862,3.201478 0.648763,-0.512236 c -0.07552,0.278615 -0.181927,0.593571 -0.305501,0.915449 -0.101263,-0.128059 -0.217971,-0.26304 -0.343262,-0.403213 z m 0.732862,-1.204448 c -0.01716,-0.01557 -0.01716,-0.04153 -0.03604,-0.05538 -0.07208,-0.05019 -0.120138,-0.09864 -0.187076,-0.148825 0.142452,-0.05711 0.23685,-0.08306 0.243715,-0.09345 0.03261,0.05884 0.03261,0.179975 0.02059,0.320148 -0.01198,-0.01211 -0.02918,-0.01211 -0.0412,-0.0225 z M 0.89992253,19.394728 v 0 c 0.00171,-0.02423 0.22311967,-2.377746 0.96971267,-3.907533 v -0.0017 c 0.015447,-0.02942 0.5972738,-1.171569 1.9994955,-2.329293 0.01888,-0.01557 1.7626451,-1.612852 6.8480583,-1.628426 5.092277,0.01557 6.832611,1.612853 6.877234,1.652654 1.330137,1.095425 1.908532,2.190849 1.960022,2.289489 0.0035,0.0069 -0.0017,0.01209 0.0017,0.01903 0.748308,1.529788 0.969712,3.883307 0.971428,3.907533 v 0 c 0.259162,3.954258 -0.741444,7.939666 -1.443413,10.178971 l -0.877029,-9.16661 c -0.0051,-0.045 -0.03947,-0.07096 -0.05492,-0.109023 -0.02059,-0.04846 -0.03261,-0.08999 -0.06522,-0.12979 -0.03947,-0.04326 -0.08925,-0.06403 -0.145886,-0.08826 -0.03604,-0.01558 -0.05492,-0.05191 -0.09612,-0.05884 -0.01888,-0.0017 -0.03433,0.01385 -0.05149,0.01385 -0.02231,0 -0.03433,-0.01903 -0.05492,-0.0173 -0.04463,0.0035 -0.07037,0.04153 -0.108134,0.05884 -0.04634,0.01903 -0.08753,0.03288 -0.125293,0.06749 -0.04463,0.0398 -0.06522,0.08826 -0.08925,0.143634 -0.01716,0.03461 -0.05149,0.05538 -0.05835,0.09344 l -0.413629,2.706546 -1.232307,-5.721127 c -0.0086,-0.03808 -0.0429,-0.05538 -0.06008,-0.08826 -0.02918,-0.05538 -0.04977,-0.100373 -0.09783,-0.138442 -0.0412,-0.03635 -0.08582,-0.04673 -0.137305,-0.06403 -0.03604,-0.01385 -0.06179,-0.04846 -0.104689,-0.05018 -0.02231,-0.0035 -0.03604,0.01903 -0.05664,0.01903 -0.02059,0 -0.03604,-0.01385 -0.05321,-0.01035 -0.03261,0.007 -0.04633,0.03808 -0.0738,0.05191 -0.06179,0.0277 -0.109842,0.05018 -0.154468,0.105557 -0.03433,0.04153 -0.0429,0.08306 -0.06008,0.134982 -0.01373,0.03808 -0.04806,0.06749 -0.04977,0.109022 L 14.702398,20.779135 13.435765,18.5381 c 0.159616,-0.572805 0.257445,-1.123112 0.257445,-1.619775 0,-0.238813 -0.192225,-0.432632 -0.429076,-0.432632 -0.23685,0 -0.429076,0.193819 -0.429076,0.432632 0,1.744373 -1.422817,4.399005 -2.325593,5.908025 -0.132156,-1.948575 -0.5818279,-5.378484 -2.1213539,-6.650421 -0.1819279,-0.150557 -0.4513882,-0.124603 -0.6024227,0.06056 -0.1510351,0.185167 -0.1235741,0.45859 0.060071,0.609145 0.2437152,0.200742 0.4462393,0.505315 0.6316008,0.844499 L 6.7267281,20.784342 6.5636787,17.4375 c -0.00343,-0.05191 -0.037759,-0.08999 -0.054921,-0.138441 -0.013732,-0.03115 -0.015447,-0.06229 -0.036043,-0.08999 -0.041192,-0.06576 -0.1046957,-0.09691 -0.181929,-0.126329 -0.025745,-0.01035 -0.037759,-0.0398 -0.065219,-0.04499 -0.018879,-0.0035 -0.034326,0.01034 -0.05149,0.0086 -0.024028,0 -0.034326,-0.0225 -0.060071,-0.01903 -0.042908,0.0017 -0.068653,0.03635 -0.1046942,0.04846 -0.051488,0.0173 -0.096113,0.03115 -0.1390206,0.06576 -0.044624,0.0398 -0.06522,0.08306 -0.09268,0.136712 -0.01888,0.03461 -0.053206,0.05018 -0.061786,0.08999 L 4.4903829,23.092867 4.0716046,20.38286 c -0.00686,-0.04153 -0.042908,-0.0623 -0.058355,-0.09691 -0.024027,-0.05365 -0.044624,-0.100372 -0.085815,-0.140173 -0.041192,-0.03635 -0.082382,-0.05018 -0.1321548,-0.07095 -0.039475,-0.01558 -0.063504,-0.05191 -0.1081275,-0.05711 -0.020596,-0.0017 -0.034325,0.01558 -0.053205,0.0173 -0.018879,0 -0.034326,-0.01558 -0.05149,-0.01385 -0.041192,0.007 -0.061787,0.04326 -0.09783,0.06058 -0.053205,0.0225 -0.101262,0.04153 -0.1390208,0.08479 -0.036042,0.0398 -0.049772,0.08479 -0.070368,0.136713 -0.015447,0.03806 -0.049772,0.06056 -0.054922,0.103825 L 2.3484837,29.573692 C 1.644799,27.336124 0.6424765,23.352446 0.89992253,19.394728 Z M 14.68872,22.501027 c 0.01036,0.01903 0.03088,0.02596 0.04119,0.04153 0.01716,0.0225 0.03261,0.03635 0.05149,0.05365 0.06865,0.06229 0.147603,0.102105 0.236851,0.110755 0.0086,0 0.01373,0.0086 0.02231,0.01035 h 0.02059 c 0.01716,0 0.03261,-0.01035 0.04806,-0.01209 -0.152751,0.181706 -0.372437,0.304572 -0.623019,0.304572 -0.459969,0 -0.832408,-0.375524 -0.832408,-0.834114 0,-0.316686 0.181929,-0.583187 0.442807,-0.725091 z m -6.7673928,-1.07639 c 0.4565371,0 0.8238264,0.373795 0.8238264,0.835846 0,0.460321 -0.3690052,0.837576 -0.8238264,0.837576 -0.4599695,0 -0.8289753,-0.377255 -0.8289753,-0.837576 0,-0.463781 0.3690058,-0.835846 0.8289753,-0.835846 z m -4.5996978,6.979222 0.4256437,-4.48726 0.2505806,1.611122 c 0.00515,0.03635 0.036043,0.05711 0.048057,0.08826 0.018878,0.04326 0.034326,0.07788 0.063504,0.112487 0.041192,0.04846 0.090964,0.07788 0.149318,0.103826 0.029177,0.01209 0.041192,0.04326 0.072084,0.05018 0.030894,0.007 0.060071,0.01035 0.090964,0.01035 0.022312,0 0.042908,-0.0017 0.06522,-0.0052 0.029177,-0.0052 0.042908,-0.03288 0.070369,-0.04326 0.063503,-0.0225 0.1184252,-0.05018 0.1664811,-0.102106 0.030894,-0.03288 0.042908,-0.06403 0.063504,-0.103837 0.015447,-0.03115 0.044624,-0.05191 0.053205,-0.08826 l 1.0246342,-4.786642 0.075518,1.54017 c 0,0.0086 0.010295,0.01558 0.012018,0.02423 C 5.803411,22.66018 5.697,23.023591 5.697,23.431995 c 0,1.270208 0.8100962,2.292951 1.8158511,2.292951 0.9971736,0 1.8158512,-1.022743 1.8158512,-2.292951 0,-1.263285 -0.8186776,-2.29122 -1.8158512,-2.29122 h -0.00343 l 1.3953514,-2.460716 c 0.6281677,1.858587 0.8049473,4.400734 0.8049473,5.542883 0,0.01558 0.015447,0.02423 0.017163,0.03808 0.00514,0.05711 0.034326,0.09864 0.060071,0.148826 0.02746,0.05018 0.042908,0.09864 0.087531,0.134981 0.010295,0.0086 0.010295,0.02596 0.022311,0.03461 0.075518,0.05191 0.1596172,0.07614 0.2437152,0.07614 0.09955,0 0.190511,-0.04673 0.26946,-0.112488 0.01545,-0.01385 0.03089,-0.02423 0.04291,-0.0398 0.01202,-0.01385 0.03089,-0.02076 0.03948,-0.03634 0.09268,-0.136712 1.673398,-2.483308 2.577891,-4.835097 l 0.828975,1.467488 c -0.914791,0.114221 -1.639072,1.062545 -1.639072,2.249687 0,1.266748 0.811813,2.294682 1.812418,2.294682 1.007471,0 1.815852,-1.027934 1.815852,-2.294682 0,-0.510506 -0.1579,-0.960443 -0.382736,-1.341159 l 0.06008,-1.24598 1.029784,4.788372 c 0.0086,0.03635 0.03776,0.05711 0.0532,0.08826 0.02059,0.0398 0.03433,0.07268 0.06522,0.105557 0.04463,0.05018 0.101257,0.07787 0.164764,0.100373 0.02747,0.01034 0.04119,0.03808 0.07037,0.04326 0.02231,0.0035 0.0429,0.0052 0.06522,0.0052 0.0309,0 0.06008,-0.0035 0.09096,-0.01034 0.0309,-0.007 0.04463,-0.03808 0.07208,-0.05018 0.05835,-0.02596 0.108133,-0.05364 0.149319,-0.103825 0.0309,-0.03635 0.04463,-0.07096 0.06351,-0.11422 0.01373,-0.03288 0.0429,-0.05365 0.04806,-0.08826 l 0.245432,-1.599009 0.442806,4.620512 C 15.14354,30.800642 5.9990653,30.712385 3.3216294,28.403859 Z M 22.084277,23.95294 c -0.0069,-0.05711 -0.03604,-0.09864 -0.06179,-0.148825 -0.02918,-0.04846 -0.04633,-0.09345 -0.09096,-0.128059 -0.01545,-0.01209 -0.01545,-0.03288 -0.03089,-0.04153 -0.03604,-0.02423 -0.08067,-0.0086 -0.120138,-0.02077 -0.03776,-0.01034 -0.06522,-0.04499 -0.10812,-0.04499 h -0.0017 c -0.01716,0 -0.02918,0.0173 -0.04463,0.01903 -0.05492,0.007 -0.09439,0.03461 -0.142452,0.06058 -0.05149,0.02942 -0.09783,0.04846 -0.133866,0.09518 -0.01036,0.01385 -0.0309,0.01385 -0.03947,0.02942 l -0.08925,0.143633 c 0.181927,-1.458835 0.264309,-3.018041 0.161331,-4.585899 0,-0.0017 -0.0017,-0.0017 -0.0017,-0.0035 0,-0.0017 0.0017,-0.0035 0.0017,-0.007 -0.01036,-0.102105 -0.236849,-2.512728 -1.045229,-4.186149 -0.0034,-0.0069 0.0017,-0.01385 -0.0017,-0.0225 -0.0086,-0.01558 -0.07208,-0.140172 -0.18536,-0.3288 0.475417,-1.079849 1.058961,-2.75327 0.40848,-3.371069 -0.332962,-0.314956 -0.839273,-0.285538 -1.503483,0.07787 -0.01545,0.0087 -0.01545,0.02769 -0.02918,0.03634 -0.324337,-0.328711 -0.50455,-0.569254 -0.538876,-0.624631 -0.06179,-0.202472 -0.255729,-0.697403 -0.786068,-1.0158205 -0.423927,-0.2543874 -0.947399,-0.2941901 -1.541242,-0.1557478 -0.0017,0 -0.0035,-0.00174 -0.0051,-0.00174 -0.137304,0 -0.240282,-0.017305 -0.351842,-0.03115 L 16.17518,7.3139069 c 0.0051,0.00346 0.01036,0.00174 0.01373,0.0052 0.02231,0.019036 0.02574,0.050185 0.05149,0.06403 0.06522,0.03461 0.133865,0.051916 0.202524,0.051916 0.09268,0 0.178496,-0.038071 0.252297,-0.095179 0.0086,-0.00692 0.02231,-0.00346 0.03261,-0.012115 0.01373,-0.012115 0.01036,-0.03115 0.02231,-0.043263 0.02402,-0.025958 0.05492,-0.043264 0.07208,-0.076144 0.0069,-0.013844 0.695104,-1.2909743 1.759213,-2.0783649 l 0.11843,0.6056851 c 0.0035,0.013844 0.01716,0.020766 0.02059,0.03288 0.0034,0.010383 -0.0051,0.022498 -0.0017,0.03288 0.01036,0.029419 0.04119,0.038071 0.05835,0.064029 0.03604,0.058838 0.0738,0.1090241 0.133865,0.143634 0.03604,0.020766 0.06522,0.027689 0.106412,0.038072 0.03604,0.010382 0.06522,0.036341 0.104689,0.036341 0.02747,0 0.05492,-0.00173 0.0841,-0.00865 0.01198,-0.00174 0.01888,-0.015575 0.0309,-0.020767 0.01198,-0.00346 0.02404,0.0052 0.03604,0.00174 1.187684,-0.4430151 2.141949,-0.3997519 2.831904,0.1228679 1.83473,1.3861534 1.565269,5.620757 1.563554,5.66229 0,0.0052 0.0051,0.0086 0.0051,0.01558 0,0.0069 -0.0069,0.0086 -0.0069,0.01557 0.0069,3.966371 0.516607,6.44968 0.926804,8.44498 0.396468,1.938192 0.710551,3.473171 0.461687,5.629409 -0.216255,1.176759 -0.777486,2.021257 -1.141344,2.469464 -1.748914,-2.469464 -1.807269,-4.392081 -1.807269,-4.411117 -0.0034,-0.02423 -0.02059,-0.03635 -0.02231,-0.05191 z"
                        id="path237"
                        style="fill:#ffffff;stroke-width:1.72340226"
                        inkscape:connector-curvature="0"
                        sodipodi:nodetypes="ccccssccccccccccccccccccccccccscccssscccccsccccccsccccccccsccsccscccccccscccccccccccscsccccccccccccccccccccccccccccccccccccccscccccccccccscccccccsssccsccccccccccsccccccccccccccccccccccscssccsssssccccccssccccccccssssccsccccscccccssscccccccssccccccccccccssccccccsccccccccccsccccscccccccccscscccccscccccc" />
                  <path
                        sodipodi:type="star"
                        style="fill:#ffffff;stroke-width:0.06691027"
                        id="path97"
                        sodipodi:sides="8"
                        sodipodi:cx="23"
                        sodipodi:cy="9"
                        sodipodi:r1="9.0011702"
                        sodipodi:r2="4.5005851"
                        sodipodi:arg1="-0.016127634"
                        sodipodi:arg2="0.37657145"
                        inkscape:flatsided="false"
                        inkscape:rounded="0"
                        inkscape:randomized="0"
                        d="M 32,8.8548387 27.185233,10.65502 29.466605,15.261316 24.789131,13.129682 23.145161,18 21.34498,13.185233 16.738684,15.466605 18.870318,10.789131 14,9.1451613 18.814767,7.3449804 16.533395,2.7386838 21.210869,4.8703177 22.854839,4.2102348e-7 24.65502,4.8147669 29.261316,2.5333947 27.129682,7.2108689 Z" />
                  </g>
	</g>
	<g id="manga">
		<g
     id="layer1"
     inkscape:groupmode="layer"
     inkscape:label="Ebene 1">
    <g
       id="g410"
       style="fill:#ffffff"
       transform="matrix(0.86666667,0,0,0.86666667,0,6.000001)">
      <g
         id="g408"
         style="fill:#ffffff">
        <path
           inkscape:connector-curvature="0"
           d="m 5,15 h 8 c 0.552,0 1,-0.447 1,-1 V 10 C 14,9.447 13.552,9 13,9 H 5 C 4.448,9 4,9.447 4,10 v 4 c 0,0.553 0.448,1 1,1 z m 1,-4 h 6 v 2 H 6 Z M 5,27 h 8 c 0.552,0 1,-0.447 1,-1 v -4 c 0,-0.553 -0.448,-1 -1,-1 H 5 c -0.552,0 -1,0.447 -1,1 v 4 c 0,0.553 0.448,1 1,1 z m 1,-4 h 6 v 2 H 6 Z M 29.959,0.797 C 29.863,0.346 29.48,0 29,0 28.849,0 28.678,0.039 28.55,0.099 L 16.788,5 H 1 C 0.448,5 0,5.447 0,6 v 23 c 0,0.553 0.448,1 1,1 h 15.951 c 0.15,0 0.289,-0.038 0.417,-0.098 0.001,0 0.001,-0.001 0.001,-0.001 l 12.13,-4.995 c 0,-0.021 0.028,-0.005 0.028,-0.026 C 29.824,24.706 30,24.367 30,24 V 1 C 30,0.929 29.985,0.861 29.959,0.797 Z M 15.951,28 H 2 V 7 H 15.951 Z M 28,23.25 17.951,27.688 V 6.75 L 28,2.562 Z m -7.974,-9.12 c 0.037,0.268 0.173,0.496 0.378,0.652 0.006,0.005 0.013,0.009 0.02,0.014 0.093,0.067 0.194,0.118 0.308,0.15 0.023,0.007 0.047,0.009 0.071,0.014 C 20.869,14.974 20.93,15 21,15 l 0.045,-0.023 c 0.16,-0.005 0.32,-0.035 0.468,-0.12 l 3.811,-1.923 C 25.715,12.799 26,12.438 26,12 V 7 C 26,6.813 25.935,6.649 25.847,6.5 25.846,6.497 25.846,6.494 25.844,6.491 25.84,6.485 25.835,6.482 25.831,6.476 25.771,6.381 25.701,6.298 25.614,6.229 25.578,6.2 25.54,6.179 25.502,6.154 25.442,6.119 25.383,6.087 25.316,6.063 25.234,6.034 25.152,6.021 25.065,6.012 25.042,6.012 25.023,6 25,6 L 24.985,6.008 C 24.812,6.006 24.638,6.032 24.478,6.125 l -3.964,2 C 20.477,8.146 20.455,8.181 20.422,8.206 20.359,8.252 20.299,8.299 20.248,8.359 20.222,8.39 20.203,8.423 20.181,8.458 20.129,8.537 20.087,8.618 20.058,8.71 20.051,8.733 20.049,8.757 20.044,8.78 20.027,8.854 20,8.922 20,9 v 5 c 0,0.038 0.018,0.07 0.021,0.106 0.002,0.009 0.004,0.016 0.005,0.024 z M 22,9.611 24,8.602 v 2.873 l -2,1 z M 5,19 H 7 C 7.552,19 8,18.553 8,18 8,17.447 7.552,17 7,17 H 5 c -0.552,0 -1,0.447 -1,1 0,0.553 0.448,1 1,1 z m 8,-2 h -2 c -0.552,0 -1,0.447 -1,1 0,0.553 0.448,1 1,1 h 2 c 0.552,0 1,-0.447 1,-1 0,-0.553 -0.448,-1 -1,-1 z"
           id="path406"
           style="fill:#ffffff;fill-rule:evenodd" />
      </g>
    </g>
  </g>
	</g>
	<g id="manga_follow">
		<g
            id="layer1"
            inkscape:groupmode="layer"
            inkscape:label="Ebene 1">
            <g
                  id="g5256"
                  style="fill:#ffffff"
                  transform="matrix(0.86666667,0,0,0.86666667,0,6)">
                  <g
                  id="g5254"
                  style="fill:#ffffff">
                  <path
                  d="m 5,15 h 8 c 0.552,0 1,-0.447 1,-1 V 10 C 14,9.447 13.552,9 13,9 H 5 C 4.448,9 4,9.447 4,10 v 4 c 0,0.553 0.448,1 1,1 z m 1,-4 h 6 v 2 H 6 Z M 5,27 h 8 c 0.552,0 1,-0.447 1,-1 v -4 c 0,-0.553 -0.448,-1 -1,-1 H 5 c -0.552,0 -1,0.447 -1,1 v 4 c 0,0.553 0.448,1 1,1 z m 1,-4 h 6 v 2 H 6 Z M 29.959,0.797 C 29.863,0.346 29.48,0 29,0 28.849,0 28.678,0.039 28.55,0.099 L 16.788,5 H 1 C 0.448,5 0,5.447 0,6 v 23 c 0,0.553 0.448,1 1,1 h 15.951 c 0.15,0 0.289,-0.038 0.417,-0.098 0.001,0 0.001,-0.001 0.001,-0.001 l 12.13,-4.995 c 0,-0.021 0.028,-0.005 0.028,-0.026 C 29.824,24.706 30,24.367 30,24 V 1 C 30,0.929 29.985,0.861 29.959,0.797 Z M 15.951,28 H 2 V 7 H 15.951 Z M 28,23.25 17.951,27.688 V 6.75 L 28,2.562 Z m -7.974,-9.12 c 0.037,0.268 0.173,0.496 0.378,0.652 0.006,0.005 0.013,0.009 0.02,0.014 0.093,0.067 0.194,0.118 0.308,0.15 0.023,0.007 0.047,0.009 0.071,0.014 C 20.869,14.974 20.93,15 21,15 l 0.045,-0.023 c 0.16,-0.005 0.32,-0.035 0.468,-0.12 l 3.811,-1.923 C 25.715,12.799 26,12.438 26,12 V 7 C 26,6.813 25.935,6.649 25.847,6.5 25.846,6.497 25.846,6.494 25.844,6.491 25.84,6.485 25.835,6.482 25.831,6.476 25.771,6.381 25.701,6.298 25.614,6.229 25.578,6.2 25.54,6.179 25.502,6.154 25.442,6.119 25.383,6.087 25.316,6.063 25.234,6.034 25.152,6.021 25.065,6.012 25.042,6.012 25.023,6 25,6 L 24.985,6.008 C 24.812,6.006 24.638,6.032 24.478,6.125 l -3.964,2 C 20.477,8.146 20.455,8.181 20.422,8.206 20.359,8.252 20.299,8.299 20.248,8.359 20.222,8.39 20.203,8.423 20.181,8.458 20.129,8.537 20.087,8.618 20.058,8.71 20.051,8.733 20.049,8.757 20.044,8.78 20.027,8.854 20,8.922 20,9 v 5 c 0,0.038 0.018,0.07 0.021,0.106 0.002,0.009 0.004,0.016 0.005,0.024 z M 22,9.611 24,8.602 v 2.873 l -2,1 z M 5,19 H 7 C 7.552,19 8,18.553 8,18 8,17.447 7.552,17 7,17 H 5 c -0.552,0 -1,0.447 -1,1 0,0.553 0.448,1 1,1 z m 8,-2 h -2 c -0.552,0 -1,0.447 -1,1 0,0.553 0.448,1 1,1 h 2 c 0.552,0 1,-0.447 1,-1 0,-0.553 -0.448,-1 -1,-1 z"
                  id="path5252"
                  style="fill:#ffffff;fill-rule:evenodd"
                  inkscape:connector-curvature="0" />
                  </g>
            </g>
            <rect
                  style="fill:#ffffff;stroke-width:1.3021239"
                  id="rect5332"
                  width="5.3066034"
                  height="16.627357"
                  x="19.967041"
                  y="0.18430945" />
            <rect
                  style="fill:#ffffff;stroke-width:1.34343207"
                  id="rect5332-1"
                  width="18.183962"
                  height="5.1650934"
                  x="13.776"
                  y="5.3140268" />
            </g>
	</g>
	<g id="manga_updates">
		<g
            id="layer1"
            inkscape:groupmode="layer"
            inkscape:label="Ebene 1">
            <g
                  id="g5256"
                  style="fill:#ffffff"
                  transform="matrix(0.86666667,0,0,0.86666667,0,5.9999999)">
                  <g
                  id="g5254"
                  style="fill:#ffffff">
                  <path
                  d="m 5,15 h 8 c 0.552,0 1,-0.447 1,-1 V 10 C 14,9.447 13.552,9 13,9 H 5 C 4.448,9 4,9.447 4,10 v 4 c 0,0.553 0.448,1 1,1 z m 1,-4 h 6 v 2 H 6 Z M 5,27 h 8 c 0.552,0 1,-0.447 1,-1 v -4 c 0,-0.553 -0.448,-1 -1,-1 H 5 c -0.552,0 -1,0.447 -1,1 v 4 c 0,0.553 0.448,1 1,1 z m 1,-4 h 6 v 2 H 6 Z M 29.959,0.797 C 29.863,0.346 29.48,0 29,0 28.849,0 28.678,0.039 28.55,0.099 L 16.788,5 H 1 C 0.448,5 0,5.447 0,6 v 23 c 0,0.553 0.448,1 1,1 h 15.951 c 0.15,0 0.289,-0.038 0.417,-0.098 0.001,0 0.001,-0.001 0.001,-0.001 l 12.13,-4.995 c 0,-0.021 0.028,-0.005 0.028,-0.026 C 29.824,24.706 30,24.367 30,24 V 1 C 30,0.929 29.985,0.861 29.959,0.797 Z M 15.951,28 H 2 V 7 H 15.951 Z M 28,23.25 17.951,27.688 V 6.75 L 28,2.562 Z m -7.974,-9.12 c 0.037,0.268 0.173,0.496 0.378,0.652 0.006,0.005 0.013,0.009 0.02,0.014 0.093,0.067 0.194,0.118 0.308,0.15 0.023,0.007 0.047,0.009 0.071,0.014 C 20.869,14.974 20.93,15 21,15 l 0.045,-0.023 c 0.16,-0.005 0.32,-0.035 0.468,-0.12 l 3.811,-1.923 C 25.715,12.799 26,12.438 26,12 V 7 C 26,6.813 25.935,6.649 25.847,6.5 25.846,6.497 25.846,6.494 25.844,6.491 25.84,6.485 25.835,6.482 25.831,6.476 25.771,6.381 25.701,6.298 25.614,6.229 25.578,6.2 25.54,6.179 25.502,6.154 25.442,6.119 25.383,6.087 25.316,6.063 25.234,6.034 25.152,6.021 25.065,6.012 25.042,6.012 25.023,6 25,6 L 24.985,6.008 C 24.812,6.006 24.638,6.032 24.478,6.125 l -3.964,2 C 20.477,8.146 20.455,8.181 20.422,8.206 20.359,8.252 20.299,8.299 20.248,8.359 20.222,8.39 20.203,8.423 20.181,8.458 20.129,8.537 20.087,8.618 20.058,8.71 20.051,8.733 20.049,8.757 20.044,8.78 20.027,8.854 20,8.922 20,9 v 5 c 0,0.038 0.018,0.07 0.021,0.106 0.002,0.009 0.004,0.016 0.005,0.024 z M 22,9.611 24,8.602 v 2.873 l -2,1 z M 5,19 H 7 C 7.552,19 8,18.553 8,18 8,17.447 7.552,17 7,17 H 5 c -0.552,0 -1,0.447 -1,1 0,0.553 0.448,1 1,1 z m 8,-2 h -2 c -0.552,0 -1,0.447 -1,1 0,0.553 0.448,1 1,1 h 2 c 0.552,0 1,-0.447 1,-1 0,-0.553 -0.448,-1 -1,-1 z"
                  id="path5252"
                  style="fill:#ffffff;fill-rule:evenodd"
                  inkscape:connector-curvature="0" />
                  </g>
            </g>
            <path
                  sodipodi:type="star"
                  style="fill:#ffffff;stroke-width:0.06691027"
                  id="path97"
                  sodipodi:sides="8"
                  sodipodi:cx="23.000001"
                  sodipodi:cy="9.0000017"
                  sodipodi:r1="9.0011706"
                  sodipodi:r2="4.5005853"
                  sodipodi:arg1="-0.016127634"
                  sodipodi:arg2="0.37657145"
                  inkscape:flatsided="false"
                  inkscape:rounded="0"
                  inkscape:randomized="0"
                  d="m 32.000002,8.8548406 -4.814767,1.8001814 2.281372,4.606296 -4.677474,-2.131634 -1.64397,4.870318 -1.800181,-4.814767 -4.606297,2.281372 2.131634,-4.677474 -4.870317,-1.6439698 4.814767,-1.800181 -2.281373,-4.6062968 4.677475,2.131634 L 22.854841,1.9073486e-6 24.655022,4.8147686 29.261318,2.5333963 27.129684,7.2108707 Z" />
            </g>
	</g>
	<g id="login">
		<g
     id="layer1"
     inkscape:groupmode="layer"
     inkscape:label="Ebene 1">
    <g
       sodipodi:type="inkscape:box3d"
       id="g5266"
       style="fill:#ffffff"
       inkscape:perspectiveID="#perspective5227"
       inkscape:corner0="1.6328323 : 0.26387929 : 0 : 1"
       inkscape:corner7="1.6259001 : -0.30369502 : 1.1981995 : 1">
      <path
         sodipodi:type="inkscape:box3dside"
         id="path5268"
         style="fill:#ffffff;fill-rule:evenodd;stroke:none;stroke-width:0.60218745;stroke-linejoin:round"
         inkscape:box3dsidetype="6"
         d="M 1.4686142,0.96411529 V 31.640908 L 12.374091,25.242075 V 4.1598037 Z"
         points="1.4686142,31.640908 12.374091,25.242075 12.374091,4.1598037 1.4686142,0.96411529 " />
      <path
         sodipodi:type="inkscape:box3dside"
         id="path5276"
         style="fill:#ffffff;fill-rule:evenodd;stroke:none;stroke-width:0.60218745;stroke-linejoin:round"
         inkscape:box3dsidetype="13"
         d="m 1.4686142,31.640908 0.018241,0.05048 10.9195309,-6.42625 -0.03229,-0.02306 z"
         points="1.4868551,31.691388 12.406386,25.265138 12.374091,25.242075 1.4686142,31.640908 " />
      <path
         sodipodi:type="inkscape:box3dside"
         id="path5278"
         style="fill:#ffffff;fill-rule:evenodd;stroke:none;stroke-width:0.60218745;stroke-linejoin:round"
         inkscape:box3dsidetype="11"
         d="m 12.374091,4.1598037 0.03229,-0.015154 V 25.265138 l -0.03229,-0.02306 z"
         points="12.406386,4.1446498 12.406386,25.265138 12.374091,25.242075 12.374091,4.1598037 " />
      <path
         sodipodi:type="inkscape:box3dside"
         id="path5270"
         style="fill:#ffffff;fill-rule:evenodd;stroke:none;stroke-width:0.60218745;stroke-linejoin:round"
         inkscape:box3dsidetype="5"
         d="m 1.4686142,0.96411529 0.018241,-0.030505 10.9195309,3.21103952 -0.03229,0.015154 z"
         points="1.4868551,0.93361028 12.406386,4.1446498 12.374091,4.1598037 1.4686142,0.96411529 " />
      <path
         sodipodi:type="inkscape:box3dside"
         id="path5274"
         style="fill:#ffffff;fill-rule:evenodd;stroke:none;stroke-width:0.60218745;stroke-linejoin:round"
         inkscape:box3dsidetype="14"
         d="M 1.4868551,0.93361028 V 31.691388 L 12.406386,25.265138 V 4.1446498 Z"
         points="1.4868551,31.691388 12.406386,25.265138 12.406386,4.1446498 1.4868551,0.93361028 " />
      <path
         sodipodi:type="inkscape:box3dside"
         id="path5272"
         style="fill:#ffffff;fill-rule:evenodd;stroke:none;stroke-width:0.60218745;stroke-linejoin:round"
         inkscape:box3dsidetype="3"
         d="m 1.4686142,0.96411529 0.018241,-0.030505 V 31.691388 l -0.018241,-0.05048 z"
         points="1.4868551,0.93361028 1.4868551,31.691388 1.4686142,31.640908 1.4686142,0.96411529 " />
    </g>
    <rect
       style="fill:#ffffff;stroke-width:0.02545716"
       id="rect5296"
       width="9.6058645"
       height="5.4079905"
       x="20.134567"
       y="12.858505" />
    <path
       sodipodi:type="star"
       style="fill:#ffffff;stroke-width:0.26458332"
       id="path5330"
       sodipodi:sides="3"
       sodipodi:cx="102.05357"
       sodipodi:cy="142.02975"
       sodipodi:r1="46.038681"
       sodipodi:r2="23.494696"
       sodipodi:arg1="1.0557235"
       sodipodi:arg2="2.2808696"
       inkscape:flatsided="false"
       inkscape:rounded="0"
       inkscape:randomized="0"
       d="M 124.73215,182.09523 86.737632,159.84611 56.016566,141.63724 94.282125,119.85758 125.41201,102.3568 l -0.27105,44.02877 z"
       inkscape:transform-center-x="0.16792444"
       inkscape:transform-center-y="-0.17152818"
       transform="matrix(0.09798698,0,0,0.1473395,8.90142,-5.1883249)" />
  </g>
	</g>
	<g id="logout" width="32px" height="32px">
            <g id="layer1"
            inkscape:groupmode="layer"
            inkscape:label="Ebene 1">
            <g
                  sodipodi:type="inkscape:box3d"
                  id="g5266"
                  style="fill:#ffffff"
                  inkscape:perspectiveID="#perspective5227"
                  inkscape:corner0="1.6328323 : 0.26387929 : 0 : 1"
                  inkscape:corner7="1.6259001 : -0.30369502 : 1.1981995 : 1">
                  <path
                  sodipodi:type="inkscape:box3dside"
                  id="path5268"
                  style="fill:#ffffff;fill-rule:evenodd;stroke:none;stroke-width:0.60340983;stroke-linejoin:round"
                  inkscape:box3dsidetype="6"
                  d="M 1.5936137,0.58923758 V 31.3907 L 12.499093,24.965862 V 3.7979133 Z"
                  points="1.5936137,31.3907 12.499093,24.965862 12.499093,3.7979133 1.5936137,0.58923758 " />
                  <path
                  sodipodi:type="inkscape:box3dside"
                  id="path5276"
                  style="fill:#ffffff;fill-rule:evenodd;stroke:none;stroke-width:0.60340983;stroke-linejoin:round"
                  inkscape:box3dsidetype="13"
                  d="m 1.5936137,31.3907 0.018241,0.05069 10.9195324,-6.452366 -0.03229,-0.02316 z"
                  points="1.6118546,31.441385 12.531387,24.989019 12.499093,24.965862 1.5936137,31.3907 " />
                  <path
                  sodipodi:type="inkscape:box3dside"
                  id="path5278"
                  style="fill:#ffffff;fill-rule:evenodd;stroke:none;stroke-width:0.60340983;stroke-linejoin:round"
                  inkscape:box3dsidetype="11"
                  d="m 12.499093,3.7979133 0.03229,-0.015215 V 24.989019 l -0.03229,-0.02316 z"
                  points="12.531387,3.7826979 12.531387,24.989019 12.499093,24.965862 12.499093,3.7979133 " />
                  <path
                  sodipodi:type="inkscape:box3dside"
                  id="path5270"
                  style="fill:#ffffff;fill-rule:evenodd;stroke:none;stroke-width:0.60340983;stroke-linejoin:round"
                  inkscape:box3dsidetype="5"
                  d="m 1.5936137,0.58923758 0.018241,-0.030629 10.9195324,3.2240893 -0.03229,0.015215 z"
                  points="1.6118546,0.5586086 12.531387,3.7826979 12.499093,3.7979133 1.5936137,0.58923758 " />
                  <path
                  sodipodi:type="inkscape:box3dside"
                  id="path5274"
                  style="fill:#ffffff;fill-rule:evenodd;stroke:none;stroke-width:0.60340983;stroke-linejoin:round"
                  inkscape:box3dsidetype="14"
                  d="M 1.6118546,0.5586086 V 31.441385 L 12.531387,24.989019 V 3.7826979 Z"
                  points="1.6118546,31.441385 12.531387,24.989019 12.531387,3.7826979 1.6118546,0.5586086 " />
                  <path
                  sodipodi:type="inkscape:box3dside"
                  id="path5272"
                  style="fill:#ffffff;fill-rule:evenodd;stroke:none;stroke-width:0.60340983;stroke-linejoin:round"
                  inkscape:box3dsidetype="3"
                  d="m 1.5936137,0.58923758 0.018241,-0.030629 V 31.441385 L 1.5936137,31.3907 Z"
                  points="1.6118546,0.5586086 1.6118546,31.441385 1.5936137,31.3907 1.5936137,0.58923758 " />
            </g>
            <rect
                  style="fill:#ffffff;stroke-width:0.02392005"
                  id="rect5296"
                  width="8.4808731"
                  height="5.4079895"
                  x="14.884567"
                  y="13.108505" />
            <path
                  sodipodi:type="star"
                  style="fill:#ffffff;stroke-width:0.26458332"
                  id="path5330"
                  sodipodi:sides="3"
                  sodipodi:cx="102.05357"
                  sodipodi:cy="142.02975"
                  sodipodi:r1="46.038681"
                  sodipodi:r2="23.494696"
                  sodipodi:arg1="1.0557235"
                  sodipodi:arg2="2.2808696"
                  inkscape:flatsided="false"
                  inkscape:rounded="0"
                  inkscape:randomized="0"
                  d="M 124.73215,182.09523 86.737632,159.84611 56.016566,141.63724 94.282125,119.85758 125.41201,102.3568 l -0.27105,44.02877 z"
                  inkscape:transform-center-x="-0.17781043"
                  inkscape:transform-center-y="-0.17700417"
                  transform="matrix(-0.10375547,0,0,0.15204234,35.849598,-5.8743915)" />
            </g>
	</g>
	<g id="home">
		<g
            id="layer1"
            inkscape:groupmode="layer"
            inkscape:label="Ebene 1">
            <rect
                  style="fill:#ffffff;stroke-width:0.02351508"
                  id="rect267"
                  width="21.125"
                  height="13.464294"
                  x="5.3571472"
                  y="16.892853" />
            <path
                  sodipodi:type="star"
                  style="fill:#ffffff;stroke-width:0.26458332"
                  id="path271"
                  sodipodi:sides="3"
                  sodipodi:cx="94.410683"
                  sodipodi:cy="63.266323"
                  sodipodi:r1="102.95394"
                  sodipodi:r2="51.476971"
                  sodipodi:arg1="0.52278909"
                  sodipodi:arg2="1.5699866"
                  inkscape:flatsided="true"
                  inkscape:rounded="0"
                  inkscape:randomized="0"
                  d="M 183.61306,114.67108 5.2916634,114.81547 94.327322,-39.687585 Z"
                  inkscape:transform-center-x="-0.0015840906"
                  inkscape:transform-center-y="-0.79471803"
                  transform="matrix(0.1437012,0,0,0.11686293,2.2965816,5.4751807)" />
            </g>
	</g>
	<g id="profile">
		<g
            id="layer1"
            inkscape:groupmode="layer"
            inkscape:label="Ebene 1">
            <circle
                  style="fill:#ffffff;stroke-width:0.02931978"
                  id="path5209"
                  cx="15.375"
                  cy="11.25"
                  r="7.5" />
            <ellipse
                  style="fill:#ffffff;stroke-width:0.04552376"
                  id="path5213"
                  cx="16"
                  cy="38.625"
                  rx="14.75"
                  ry="18.25" />
            </g>
	</g>
</svg>